<svg xmlns="http://www.w3.org/2000/svg" viewBox="0 0 33.46 28.62"><defs><style>.cls-1{fill:#fff;}</style></defs><title>carrito</title><g id="Layer_2" data-name="Layer 2"><g id="Capa_1" data-name="Capa 1"><path class="cls-1" d="M9.35,20.3H28.56a1,1,0,0,0,1-.71L33.42,6.46a1,1,0,0,0-.15-.87,1,1,0,0,0-.8-.4H7.24L5.91.71A1,1,0,0,0,5,0H1A1,1,0,0,0,1,2H4.22L5.55,6.44v0L9.09,18.33a3.87,3.87,0,0,0,.26,7.73h1a3.54,3.54,0,0,0,6.81,0H22.4a3.54,3.54,0,0,0,6.81,0h1.28a1,1,0,1,0,0-2H29.21a3.54,3.54,0,0,0-6.81,0H17.14a3.54,3.54,0,0,0-6.81,0h-1a1.89,1.89,0,0,1,0-3.78ZM23.89,7.17h7.25l-1.36,4.58H23.89Zm0,6.57h5.3l-1.37,4.58H23.89ZM16.56,7.17h5.35v4.58H16.56V7.17Zm0,6.57h5.35v4.58H16.56V13.74Zm-2,4.58H11.15L9.79,13.74h4.78ZM7.83,7.17h6.74v4.58H9.2Zm18,16.34a1.56,1.56,0,1,1-1.57,1.56A1.56,1.56,0,0,1,25.81,23.51Zm-12.07,0a1.56,1.56,0,1,1-1.57,1.56A1.56,1.56,0,0,1,13.74,23.51Z"/></g></g></svg>