<svg xmlns="http://www.w3.org/2000/svg" viewBox="0 0 23.6 50.81"><defs><style>.cls-1{fill:#fff;fill-rule:evenodd;}</style></defs><title>iconofb</title><g id="Layer_2" data-name="Layer 2"><g id="Capa_1" data-name="Capa 1"><path class="cls-1" d="M5.2,25.61V50.17a.64.64,0,0,0,.64.64H15a.64.64,0,0,0,.64-.64v-25h6.62a.63.63,0,0,0,.63-.59l.64-7.52a.64.64,0,0,0-.64-.7H15.6V11.07A2.27,2.27,0,0,1,17.87,8.8H23a.63.63,0,0,0,.64-.64V.64A.64.64,0,0,0,23,0H14.35A9.15,9.15,0,0,0,5.2,9.15V16.4H.64A.64.64,0,0,0,0,17v7.53a.64.64,0,0,0,.64.64H5.2Z"/></g></g></svg>