<svg xmlns="http://www.w3.org/2000/svg" viewBox="0 0 53.15 53.15"><defs><style>.cls-1{fill:#fff;}</style></defs><title>icono instagram</title><g id="Layer_2" data-name="Layer 2"><g id="Capa_1" data-name="Capa 1"><path class="cls-1" d="M40.64,9.49a3.12,3.12,0,1,0,3.12,3.12A3.11,3.11,0,0,0,40.64,9.49Z"/><path class="cls-1" d="M26.79,13.49A13.09,13.09,0,1,0,39.88,26.57,13.11,13.11,0,0,0,26.79,13.49Zm0,21.47a8.39,8.39,0,1,1,8.39-8.39A8.39,8.39,0,0,1,26.79,35Z"/><path class="cls-1" d="M37.18,53.15H16a16,16,0,0,1-16-16V16A16,16,0,0,1,16,0H37.18a16,16,0,0,1,16,16V37.18A16,16,0,0,1,37.18,53.15ZM16,5A11,11,0,0,0,5,16V37.18a11,11,0,0,0,11,11H37.18a11,11,0,0,0,11-11V16a11,11,0,0,0-11-11Z"/></g></g></svg>