<svg xmlns="http://www.w3.org/2000/svg" viewBox="0 0 54.66 52.15"><defs><style>.cls-1{fill:#fff;}</style></defs><title>linkedin</title><g id="Layer_2" data-name="Layer 2"><g id="Capa_1" data-name="Capa 1"><path class="cls-1" d="M19,52.12v-35H30.59v4.67c.61-.73.93-1.15,1.28-1.55,3.58-4.11,8.18-4.77,13.12-3.57a11.34,11.34,0,0,1,8.79,9.28,45.18,45.18,0,0,1,.82,8.22c.12,5.44,0,10.9,0,16.35v1.62H43c0-.51-.07-1.05-.07-1.59,0-5.59,0-11.18,0-16.77a15.74,15.74,0,0,0-.69-4.84A5.7,5.7,0,0,0,32.8,27a7.11,7.11,0,0,0-2.2,5.29c.06,6.06,0,12.12,0,18.18v1.64Z"/><path class="cls-1" d="M.81,17.06H12.3V52.15H.81Z"/><path class="cls-1" d="M6.48,12.2C2.7,12.17,0,9.61,0,6.07S2.83,0,6.7,0s6.48,2.59,6.49,6.13S10.36,12.23,6.48,12.2Z"/></g></g></svg>