<?xml version="1.0" encoding="utf-8"?>
<!-- Generator: Adobe Illustrator 23.0.3, SVG Export Plug-In . SVG Version: 6.00 Build 0)  -->
<svg version="1.1" id="Capa_1" xmlns="http://www.w3.org/2000/svg" xmlns:xlink="http://www.w3.org/1999/xlink" x="0px" y="0px"
	 viewBox="0 0 274 218" style="enable-background:new 0 0 274 218;" xml:space="preserve">
<style type="text/css">
	.st0{fill:#DFB58A;}
	.st1{fill:#5A3A32;}
	.st2{fill:#DA8179;stroke:#5A3A32;stroke-width:4;stroke-miterlimit:10;}
	.st3{fill:#FFFFFF;}
	.st4{fill:#CCD6DF;}
	.st5{fill:#EBC0B9;}
	.st6{fill:#DA8179;}
	.st7{fill:none;stroke:#CDD8E0;stroke-width:5;stroke-miterlimit:10;}
	.st8{fill:#CDD8E0;}
</style>
<path class="st0" d="M52.5,78.7c0,0-13.4-56.3,5.3-73.7c0,0,5.1-4.3,49.9,18.2"/>
<path class="st1" d="M209.2,78.7c0,0,14.3-56-4.1-73.8c0,0-5-4.4-50.1,17.4"/>
<path class="st2" d="M62.7,91.8c0,0-13.4-56.3,5.3-73.7c0,0,5.1-4.3,49.9,18.2"/>
<path class="st2" d="M200.8,91.9c0,0,14.3-56-4.1-73.8c0,0-5-4.4-50.1,17.4"/>
<g>
	<path class="st1" d="M50.1,79.2c-0.6-2.4-13.5-57.9,6-76.1L56.2,3c4.1-3.4,22.8,2.9,52.6,17.9l-2.2,4.5C70,7.1,60.7,6.9,59.1,7.1
		c-16.8,16.7-4.3,70.4-4.1,71L50.1,79.2z M58.9,7.2L58.9,7.2L58.9,7.2z"/>
</g>
<g>
	<path class="st1" d="M211.6,79.3l-4.8-1.2c0.1-0.5,13.5-54-3-71c-1.6-0.2-10.9-0.2-47.7,17.5l-2.2-4.5C184,5.5,202.7-0.5,206.8,3
		l0.1,0.1C226,21.6,212.2,76.9,211.6,79.3z"/>
</g>
<path class="st3" d="M211.6,98.4c0,38.4-43.8,60-83.8,60s-79.1-24.3-76-62.5c3.5-43.5,36.2-76.5,78.3-76.5
	C170.1,19.4,211.6,50.9,211.6,98.4z"/>
<path class="st4" d="M102.2,24.6c0,0-99.9,83.5,12.6,133c0,0-71.4-9.8-63.2-66.5C51.6,91.1,57.8,39.4,102.2,24.6z"/>
<path class="st4" d="M161.2,24.6c0,0,99.9,83.5-12.6,133c0,0,71.4-9.8,63.2-66.5C211.8,91.1,205.5,39.4,161.2,24.6z"/>
<path class="st0" d="M126.6,19.7c0,0,4.9,66.8-70.8,56.2C55.8,75.9,75.5,14.2,126.6,19.7z"/>
<path class="st1" d="M137.8,21.7c0,0-4.9,66.8,70.8,56.2C208.6,77.9,188.9,16.2,137.8,21.7z"/>
<ellipse class="st5" cx="81.1" cy="113.7" rx="10.5" ry="3.5"/>
<ellipse class="st5" cx="179.1" cy="113.7" rx="10.5" ry="3.5"/>
<g>
	<path class="st1" d="M51.8,111H25c-1.4,0-2.5-1.1-2.5-2.5s1.1-2.5,2.5-2.5h26.8c1.4,0,2.5,1.1,2.5,2.5S53.2,111,51.8,111z"/>
</g>
<g>
	<path class="st1" d="M55.1,122.2h-19c-1.4,0-2.5-1.1-2.5-2.5s1.1-2.5,2.5-2.5h19c1.4,0,2.5,1.1,2.5,2.5S56.5,122.2,55.1,122.2z"/>
</g>
<g>
	<path class="st1" d="M51.7,99.7h-19c-1.4,0-2.5-1.1-2.5-2.5s1.1-2.5,2.5-2.5h19c1.4,0,2.5,1.1,2.5,2.5S53.1,99.7,51.7,99.7z"/>
</g>
<g>
	<path class="st1" d="M239.7,111h-26.8c-1.4,0-2.5-1.1-2.5-2.5s1.1-2.5,2.5-2.5h26.8c1.4,0,2.5,1.1,2.5,2.5S241.1,111,239.7,111z"/>
</g>
<g>
	<path class="st1" d="M228.6,122.2h-19c-1.4,0-2.5-1.1-2.5-2.5s1.1-2.5,2.5-2.5h19c1.4,0,2.5,1.1,2.5,2.5S230,122.2,228.6,122.2z"/>
</g>
<g>
	<path class="st1" d="M232.1,99.7h-19c-1.4,0-2.5-1.1-2.5-2.5s1.1-2.5,2.5-2.5h19c1.4,0,2.5,1.1,2.5,2.5S233.5,99.7,232.1,99.7z"/>
</g>
<g>
	<g id="K9V0Gw.tif_8_">
		<g>
			<g>
				<g>
					<path class="st6" d="M130.7,115.3c1.9,0,3.9,0,5.8,0c1.3,0,2.3,0.5,2.7,1.2c0.2,0.5,0.1,1-0.3,1.4c-1.9,2.1-3.7,4.2-5.6,6.2
						c-0.2,0.2-0.3,0.4-0.6,0.6c-1.3,0.9-3.5,0.8-4.5-0.3c-1.9-2.1-3.9-4.3-5.8-6.4c-0.7-0.8-0.6-1.5,0.2-2.1
						c0.6-0.4,1.3-0.6,2.1-0.6C126.8,115.3,128.7,115.3,130.7,115.3z"/>
				</g>
			</g>
		</g>
	</g>
	<g id="K9V0Gw.tif_7_">
		<g>
			<g>
				<g>
					<path class="st1" d="M130.5,128.2c-1.8,0-3.6-0.7-4.7-1.9c-2.3-2.6-4.6-5.1-6.9-7.7c-0.9-1-1.3-2.1-1.2-3.3
						c0.1-1.1,0.8-2.2,1.8-3c1.1-0.8,2.4-1.2,4-1.2c0,0,0,0,0,0l7,0l2.1,0c1.6,0,3.2,0,4.8,0c2.5,0,4.5,1.1,5.4,2.9
						c0.7,1.5,0.5,3.2-0.7,4.5l-6.8,7.5c-0.2,0.2-0.5,0.6-0.9,0.9C133.3,127.8,131.9,128.2,130.5,128.2z M123.5,116.2
						c2,2.3,4,4.5,6.1,6.7c0.2,0.3,1.4,0.4,2,0c0,0,0.1-0.1,0.1-0.1l1.4-1.6l4.5-5c0,0,0,0-0.1,0c-1.6,0-3.2,0-4.8,0l-4.1,0H123.5
						C123.5,116.2,123.5,116.2,123.5,116.2z"/>
				</g>
			</g>
		</g>
	</g>
	<g>
		<g>
			<path class="st1" d="M117.4,135.8c-1,0-1.9-0.1-2.9-0.3c-6.3-1.3-9.1-6.5-9.2-6.7c-0.7-1.2-0.2-2.7,1-3.4c1.2-0.7,2.7-0.2,3.4,1
				c0.1,0.2,2,3.4,5.9,4.2c3.8,0.8,8.3-0.9,13.4-4.9c1.1-0.9,2.7-0.7,3.5,0.4c0.9,1.1,0.7,2.7-0.4,3.5
				C126.8,133.7,121.9,135.8,117.4,135.8z"/>
		</g>
	</g>
	<g>
		<g>
			<path class="st1" d="M142.6,135.8c-1,0-1.9-0.1-2.9-0.3c-6.3-1.3-9.1-6.5-9.2-6.7c-0.7-1.2-0.2-2.7,1-3.4c1.2-0.7,2.7-0.2,3.4,1
				c0.1,0.2,2,3.4,5.9,4.2c3.8,0.8,8.3-0.9,13.4-4.9c1.1-0.9,2.7-0.7,3.5,0.4c0.9,1.1,0.7,2.7-0.4,3.5
				C152,133.7,147.1,135.8,142.6,135.8z"/>
		</g>
	</g>
</g>
<g id="K9V0Gw.tif_6_">
	<g>
		<path class="st7" d="M131.5,114.9c2.3,0,4.6,0,7,0c1.5,0,2.7,0.6,3.2,1.5c0.3,0.6,0.2,1.2-0.3,1.7c-2.2,2.5-4.5,4.9-6.7,7.4
			c-0.2,0.2-0.4,0.5-0.7,0.7c-1.5,1.1-4.2,1-5.3-0.3c-2.3-2.6-4.6-5.1-6.9-7.7c-0.8-0.9-0.7-1.8,0.3-2.5c0.7-0.5,1.5-0.7,2.5-0.7
			C126.9,114.9,129.2,114.9,131.5,114.9z"/>
	</g>
</g>
<g>
	<path class="st8" d="M118.4,137c-1,0-1.9-0.1-2.9-0.3c-6.3-1.3-9.1-6.5-9.2-6.7c-0.7-1.2-0.2-2.7,1-3.4c1.2-0.7,2.7-0.2,3.4,1
		c0.1,0.2,2,3.4,5.9,4.2c3.8,0.7,8.3-0.9,13.4-4.9c1.1-0.9,2.7-0.7,3.5,0.4c0.9,1.1,0.7,2.7-0.4,3.5
		C127.8,134.9,122.9,137,118.4,137z"/>
</g>
<g>
	<path class="st8" d="M143.6,137c-1,0-1.9-0.1-2.9-0.3c-6.3-1.3-9.1-6.5-9.2-6.7c-0.7-1.2-0.2-2.7,1-3.4c1.2-0.7,2.7-0.2,3.4,1
		c0.1,0.2,2,3.4,5.9,4.2c3.8,0.8,8.3-0.9,13.4-4.9c1.1-0.9,2.7-0.7,3.5,0.4c0.9,1.1,0.7,2.7-0.4,3.5C153,134.9,148.1,137,143.6,137z
		"/>
</g>
<g>
	<path class="st1" d="M127.8,160.9c-25.7,0-49.9-9.5-64.5-25.4c-10.4-11.3-15.2-25.1-14-39.9C51,73.9,60,54,74.7,39.5
		c14.8-14.6,34.5-22.7,55.4-22.7c20.7,0,41.7,8.1,57.5,22.3c17.1,15.4,26.6,36.4,26.6,59.2C214.1,137.5,170.2,160.9,127.8,160.9z
		 M130.1,21.9c-40.5,0-72.3,31.2-75.8,74.2c-1.1,13.4,3.3,25.9,12.7,36.1c13.5,14.6,36.8,23.7,60.8,23.7c40,0,81.3-21.5,81.3-57.5
		C209.1,51.1,168.1,21.9,130.1,21.9z"/>
</g>
<path id="XMLID_2_" class="st1" d="M104.7,99.7c4.7,3.6,10.1-3.5,5.5-7.1c-13.9-10.8-27-4.5-32,0.3c-4.2,4.1,2,10.6,6.2,6.4
	C84.8,99,93.3,90.9,104.7,99.7z"/>
<path id="XMLID_1_" class="st1" d="M182.5,92.6c-13.9-10.8-27-4.5-32,0.3c-4.2,4.1,2,10.6,6.2,6.4c0.4-0.3,9-8.5,20.3,0.3
	C181.7,103.2,187.3,96.2,182.5,92.6L182.5,92.6z"/>
<path class="st4" d="M74.9,19.4c0,0-9.3,7.3-12.3,39.3l-4.3,2c0,0-2.6-33.3,9.7-42.7L74.9,19.4z"/>
<path class="st4" d="M189.6,19.4c0,0,9.3,7.3,12.3,39.3l4.3,2c0,0,2.6-33.3-9.7-42.7L189.6,19.4z"/>
<g>
	<path class="st1" d="M40.5,211.2l-0.1,0.9v0.5l-0.2,0.7l-0.3,0.4l-0.4,0.2l-0.6,0.1h-0.4l-0.8,0.1l-6.2-0.3h-4.2l-5.1,0.3l-3.3-0.2
		h-4.2l-2.6,0.2h-0.8l-0.8-0.1l-0.6-0.1l-0.4-0.2l-0.3-0.3l-0.1-0.7v-0.9l0.3-2.1l0.1-0.8l-0.2-3v-0.9l0.1-3v-0.9l0.1-6.8v-0.9
		l-0.2-6.8v-0.9l-0.1-3v-4.8L9.2,176v-0.8l0.1-0.5l0.2-0.7l0.2-0.3l0.4-0.2l0.6-0.1h0.4l0.8-0.1l2.8,0.2h0.9l4-0.1h0.6l0.4,0.2
		l0.3,0.4v4.9l0.1,3.3v0.9l-0.2,3.3v0.9l0.1,3.3v0.9l0.2,3.3v0.9l-0.3,7.4l0.1,0.6l0.1,0.3L21,204l0.3,0.2l0.7,0.1l1.9,0.1l1.7-0.1
		h0.9l8.1-0.1l0.9-0.1l1.9-0.2l0.9-0.1H39l0.7,0.2l0.4,0.3l0.2,0.4l0.1,0.6l0.1,3.1l0.1,0.9L40.5,211.2z"/>
	<path class="st1" d="M58.2,205v0.9l-0.2,3v0.9l-0.1,3.1v0.6l-0.2,0.3l-0.4,0.1l-0.8,0.1l-2.9-0.1h-3.5l-2.8-0.2l-0.3-0.1l-0.2-0.2
		v-0.6l-0.1-1.4v-0.9l-0.1-0.8V209l-0.2-3l0.1-0.9l0.2-3l0.1-0.9l-0.2-3.1v-0.9l-0.1-3v-4.8l-0.1-3.1v-0.9l0.1-3v-4.8l-0.1-3.1
		l0.2-0.6l0.3-0.2l0.6-0.1H48l0.8-0.1l1.3,0.1H51l2.6-0.1h3.5l0.6,0.1l0.1,0.3l0.1,0.6l0.1,1.5l0.1,0.9v5.5l0.1,3v0.9l-0.1,3.1v0.9
		l0.1,3v0.9l-0.1,3v4.9L58.2,205z"/>
	<path class="st1" d="M97.2,211.2l-0.1,0.9v0.5l-0.2,0.7l-0.3,0.4l-0.4,0.2l-0.6,0.1h-0.4l-0.8,0.1l-6.2-0.3H84l-5.1,0.3l-3.3-0.2
		h-4.2l-2.6,0.2h-0.8l-0.8-0.1l-0.6-0.1l-0.4-0.2l-0.3-0.3l-0.1-0.7v-0.9l0.3-2.1l0.1-0.8l-0.2-3v-0.9l0.1-3v-0.9l0.1-6.8v-0.9
		l-0.2-6.8v-0.9l-0.1-3v-4.8l-0.1-1.7v-0.8l0.1-0.5l0.2-0.7l0.2-0.3l0.4-0.2l0.6-0.1h0.4l0.8-0.1l2.8,0.2h0.9l4-0.1h0.6l0.4,0.2
		l0.3,0.4v4.9l0.1,3.3v0.9l-0.2,3.3v0.9l0.1,3.3v0.9l0.2,3.3v0.9l-0.3,7.4l0.1,0.6l0.1,0.3l0.1,0.3l0.3,0.2l0.7,0.1l1.9,0.1l1.7-0.1
		H83l8.1-0.1l0.9-0.1l1.9-0.2l0.9-0.1h0.8l0.7,0.2l0.4,0.3l0.2,0.4l0.1,0.6l0.1,3.1l0.1,0.9L97.2,211.2z"/>
	<path class="st1" d="M114.8,205v0.9l-0.2,3v0.9l-0.1,3.1v0.6l-0.2,0.3l-0.4,0.1l-0.8,0.1l-2.9-0.1h-3.5l-2.8-0.2l-0.3-0.1l-0.2-0.2
		v-0.6l-0.1-1.4v-0.9l-0.1-0.8V209l-0.2-3l0.1-0.9l0.2-3l0.1-0.9l-0.2-3.1v-0.9l-0.1-3v-4.8l-0.1-3.1v-0.9l0.1-3v-4.8l-0.1-3.1
		l0.2-0.6l0.3-0.2l0.6-0.1h0.4l0.8-0.1l1.3,0.1h0.9l2.6-0.1h3.5l0.6,0.1l0.1,0.3l0.1,0.6l0.1,1.5l0.1,0.9v5.5l0.1,3v0.9l-0.1,3.1
		v0.9l0.1,3v0.9l-0.1,3v4.9L114.8,205z"/>
	<path class="st1" d="M181.7,201.6l-0.1,0.9l-0.1,1.5l-0.2,0.8L181,206l-0.3,0.8l-0.6,1.1l-0.5,0.7l-0.9,1l-0.6,0.6l-1.4,1l-0.7,0.5
		l-0.8,0.4l-0.8,0.4l-0.9,0.3l-0.8,0.3l-2.5,0.5l-1.3,0.2l-0.9,0.1l-1.3,0.1h-0.9l-3.1,0.1h-4.9l-3.1-0.2h-0.9l-3.9,0.1h-2.1
		l-0.9-0.1l-0.8-0.1l-0.4-0.2l-0.3-0.3l-0.1-0.6l-0.1-0.8l0.1-0.8v-0.9l0.1-0.4v-1l0.2-3l-0.1-0.9l-0.1-1.5l-0.1-1l-0.1-0.5v-1
		l0.1-1.5V197l0.2-3v-0.9l-0.1-3v-0.9l-0.1-3l0.1-0.9l0.2-3l0.1-0.9l-0.2-3l-0.1-0.9L145,176v-1.3l0.2-0.7l0.6-0.3l0.8-0.2l0.9-0.1
		h3l3.1-0.1l4.9,0.3l3-0.1h0.9l3.1,0.1h0.9l3.3,0.2l1,0.1l1,0.2l0.9,0.2l1.2,0.4l0.8,0.3l1.1,0.6l0.7,0.5l1,0.8l0.7,0.7l0.6,0.8
		l0.4,0.8l0.6,1.1l0.3,0.8l0.3,0.8l0.2,0.9l0.2,1.5l0.1,0.9l-0.1,1l-0.2,1l-0.3,1.3l-0.4,0.8l-0.5,0.8l-0.6,0.7l-1.3,1.3l-0.2,0.4
		l0.2,0.4l0.5,0.5l0.7,0.6l0.7,0.7l0.3,0.4l0.6,0.8l0.5,0.8l0.4,0.8l0.2,0.5l0.3,0.9l0.2,1l0.1,1L181.7,201.6z M156.3,186.7l0.1,0.9
		l0.1,0.6l0.2,0.4l0.4,0.2l0.7,0.1h1.3l1.9-0.1l1,0.1l1.3,0.1l1.9,0.1h1.2l0.7-0.2l0.7-0.3l0.6-0.4l0.4-0.5l0.3-0.6l0.2-0.7v-1
		l-0.2-0.8l-0.5-0.7l-0.8-0.6l-0.3-0.2l-0.8-0.2l-0.4-0.1l-1-0.1h-0.5l-0.9-0.1l-1.3-0.1l-0.8-0.1l-2.8,0.2h-0.7l-0.6,0.1l-0.5,0.1
		l-0.3,0.2l-0.2,0.3l-0.2,0.7l-0.2,1.3l-0.1,0.9L156.3,186.7z M170.4,201.5l-0.1-0.8l-0.2-0.8l-0.4-0.8l-0.3-0.4l-0.7-0.7l-0.9-0.6
		l-0.8-0.3l-0.4-0.1l-0.8-0.1l-2.5,0.1l-1,0.1H159l-0.8,0.1h-0.3l-0.7,0.1l-0.5,0.2l-0.2,0.2l-0.1,0.6v1.2l0.1,0.9v1l-0.1,1.3v0.8
		l0.1,0.6l0.2,0.3l0.4,0.2l0.7,0.1l4.4-0.1l3.5-0.1l1.9-0.1l0.9-0.1l0.6-0.3l0.4-0.4l0.2-0.3l0.4-0.8l0.2-0.9L170.4,201.5z"/>
	<path class="st1" d="M225.5,194.1l0.1,1.8l-0.1,0.8l-0.1,1.3l-0.1,0.8l-0.2,1.3l-0.2,0.9l-0.2,1.3l-0.2,0.8l-0.4,1.2l-0.3,0.8
		l-0.5,1.2l-0.4,0.8l-0.7,1.1l-0.6,0.7l-0.7,0.7l-0.7,0.6l-1.1,0.9l-0.7,0.5l-1.1,0.7l-0.7,0.4l-1.2,0.6l-0.8,0.3l-1.2,0.4l-0.8,0.2
		l-1.3,0.2l-0.8,0.2l-1.7,0.1h-2.6l-1.3-0.1l-0.8-0.1l-3.1-0.3l-0.9-0.2l-0.5-0.1l-0.9-0.3l-0.4-0.2l-0.9-0.4l-1.2-0.6l-0.8-0.5
		l-0.8-0.6l-1.5-1.2l-0.6-0.6l-0.7-1l-0.5-0.7l-0.9-1.5l-0.5-0.8l-0.4-0.8l-0.4-0.9l-0.3-0.8l-0.2-0.8l-0.2-0.8l-0.2-1.2l-0.2-1
		l-0.1-1l-0.1-1.9l-0.1-0.9l0.2-3.4v-0.9l-0.1-3.4v-0.9l0.2-3.4v-5.2l-0.1-1.8v-1l0.1-1l0.2-0.9l0.4-0.5l0.7-0.2l1.9-0.1l2.1,0.2
		h0.9l1.9-0.1l0.8,0.1l1.3,0.1l0.7,0.2l0.4,0.4l0.2,0.7l0.1,0.8v0.8l-0.1,2.2v0.9l0.2,3.4v0.9l-0.1,3.4v0.9l-0.2,3.4v0.9l-0.1,3.4
		l0.1,0.9l0.1,1.4l0.2,0.9l0.3,1.2l0.3,0.8l0.6,1.3l0.6,0.7l0.9,1l0.7,0.4l1.2,0.4l0.8,0.2l1.5,0.1h0.9l1.5-0.3l0.8-0.2l1.1-0.5
		l0.7-0.4l0.9-0.8l0.6-0.7l0.6-1.2l0.4-0.8l0.3-0.9l0.2-0.9l0.2-1.7l0.1-0.9l-0.2-3.4v-0.9l0.2-3.5v-0.9l0.1-3.4v-0.9l-0.1-3.5
		l-0.1-0.9l-0.2-2.4v-1.4l0.2-0.8l0.5-0.4l0.7-0.2h1.2l2.9,0.2h0.9l2.2-0.2h0.9l0.8,0.1l0.7,0.2l0.4,0.4l0.1,0.7l0.1,1.7v0.8
		l-0.1,1.3v0.9l0.2,3.5v0.9l-0.1,3.4v0.9l-0.2,3.5L225.5,194.1z"/>
	<path class="st1" d="M272.3,173.9l-0.3,0.5l-4,6l-0.6,0.7l-1.9,2.6l-0.5,0.7l-1.6,2.8l-0.5,0.8l-1.7,2.6l-0.6,0.8l-1.8,2.6
		l-0.6,0.7l-1.9,2.6l-0.2,0.4v4.5l0.2,3l-0.1,0.9l-0.2,3v0.9l0.2,2.4l0.1,0.8l-0.2,0.4l-0.2,0.2l-0.5,0.1h-3.7l-6.6-0.2l-0.2-0.2
		l-0.1-0.6v-6.9l-0.1-0.9l-0.2-3l-0.1-0.9l0.2-3l-0.1-0.5l-0.4-0.4l-1.5-2.7l-0.5-0.8l-1.8-2.5l-0.5-0.8l-1.6-2.7l-0.4-0.8l-3.9-6
		l-0.4-0.8l-1.7-2.6l-0.4-0.8l-1.6-2.7l-0.2-0.5l0.1-0.3l0.3-0.2h7.5l0.9,0.1l3.3,0.2l0.6,0.1l0.2,0.2l1.6,2.8l0.4,0.7l1.7,2.5
		l0.4,0.7l1.5,2.6l0.5,0.8l1.5,2.4l0.4,0.5l0.3,0.1l0.4-0.4l1.4-2.7l0.5-0.7l1.7-2.5l0.5-0.7l1.4-2.6l0.4-0.8l1.6-2.6l0.4-0.6
		l0.4-0.1l0.6,0.1l2.8,0.2h0.9l3.3-0.2h0.9l3.2,0.2l0.7,0.1l0.3,0.1L272.3,173.9z"/>
</g>
<g id="hcLXmi.tif">
	<g>
		<g>
			<path class="st6" d="M129.6,191.4c0.1-0.2,0.2-0.5,0.2-0.7c0.3-0.9,0.8-1.7,1.4-2.3c0.7-0.8,1.6-1.3,2.7-1.5
				c1.3-0.2,2.4,0,3.5,0.6c1.2,0.7,1.9,1.8,2.3,3.1c0.2,0.7,0.3,1.4,0.2,2.2c-0.1,1.2-0.4,2.3-0.9,3.4c-0.5,1.2-1.2,2.3-2,3.3
				c-1,1.3-2.1,2.4-3.3,3.4c-0.5,0.5-1.1,0.9-1.7,1.4c0,0-0.1,0-0.1,0c-1.7-0.5-3.3-1.1-4.9-1.9c-1.3-0.6-2.5-1.3-3.6-2.2
				c-0.9-0.7-1.7-1.5-2.4-2.5c-0.6-0.8-1-1.7-1.2-2.6c-0.3-1.2-0.2-2.4,0.3-3.6c0.7-1.5,1.9-2.5,3.5-2.8c1.1-0.2,2.1-0.1,3.1,0.4
				c0.9,0.4,1.6,1,2.2,1.6C129.3,191.1,129.4,191.2,129.6,191.4C129.6,191.4,129.6,191.4,129.6,191.4z"/>
			<path class="st1" d="M132.1,206.5c-0.2,0-0.4,0-0.6-0.1c-2-0.6-3.6-1.2-5.2-2c-1.5-0.7-2.8-1.5-4-2.4c-1.2-0.9-2.1-1.8-2.8-2.9
				c-0.8-1.1-1.3-2.2-1.5-3.3c-0.4-1.7-0.3-3.4,0.4-4.9c1-2.1,2.7-3.5,4.9-4c1.5-0.3,2.9-0.2,4.4,0.5c0.4,0.2,0.8,0.4,1.2,0.7
				c0.3-0.4,0.6-0.8,0.9-1.1c1.1-1.1,2.3-1.8,3.7-2.1c1.7-0.3,3.4,0,5,0.9c1.6,1,2.7,2.4,3.2,4.3c0.3,0.9,0.4,1.8,0.3,2.8
				c-0.1,1.4-0.4,2.7-1.1,4.2c-0.6,1.2-1.3,2.5-2.3,3.7c-1,1.3-2.1,2.5-3.5,3.7c-0.4,0.3-0.8,0.7-1.2,1l-0.5,0.5
				C133.1,206.3,132.6,206.5,132.1,206.5z M130.9,202.9C130.9,202.9,130.9,202.9,130.9,202.9L130.9,202.9z M124.8,190.8
				c-0.2,0-0.4,0-0.6,0.1c-1,0.2-1.7,0.8-2.1,1.7c-0.3,0.7-0.4,1.4-0.2,2.3c0.2,0.6,0.4,1.3,0.9,1.9c0.5,0.7,1.2,1.4,2,2
				c0.9,0.7,2,1.4,3.3,2c1.1,0.5,2.3,1,3.6,1.4c0.3-0.2,0.6-0.5,0.8-0.7c1.2-1,2.2-2.1,3-3.2c0.8-1,1.4-2,1.8-2.9
				c0.4-1,0.7-1.9,0.7-2.7c0-0.6,0-1-0.2-1.5c-0.3-0.9-0.7-1.5-1.5-2c-0.7-0.4-1.4-0.5-2.1-0.4c-0.6,0.1-1.1,0.4-1.6,0.9
				c-0.4,0.4-0.8,1-1,1.7c0,0.1-0.1,0.3-0.1,0.4l-1.2,3.6l-2.4-2.9c-0.1-0.1-0.2-0.2-0.2-0.3c-0.5-0.5-1-0.9-1.6-1.2
				C125.7,190.9,125.2,190.8,124.8,190.8z"/>
		</g>
	</g>
</g>
</svg>
