<?xml version="1.0" encoding="utf-8"?>
<!-- Generator: Adobe Illustrator 23.0.3, SVG Export Plug-In . SVG Version: 6.00 Build 0)  -->
<svg version="1.1" id="Capa_1" xmlns="http://www.w3.org/2000/svg" xmlns:xlink="http://www.w3.org/1999/xlink" x="0px" y="0px"
	 viewBox="0 0 1375 1080" style="enable-background:new 0 0 1375 1080;" xml:space="preserve">
<style type="text/css">
	.st0{fill:#F0F0F0;}
	.st1{fill:#D8D8D8;}
</style>
<rect x="-1" y="-1" class="st0" width="1376" height="1083.9"/>
<g>
	<polygon class="st1" points="1169.75,44.24 1191.49,80.64 1257.01,50.6 1244.97,32.65 	"/>
	<polygon class="st1" points="1241.96,98.42 1285.61,65.31 1299.15,83.48 1257.01,127.02 	"/>
	<polygon class="st1" points="1162.19,120.33 1213.38,87.99 1220.89,109.21 1178.74,136.05 	"/>
	<polygon class="st1" points="1108,42.74 1150.14,87.99 1162.19,80.64 1141.11,32.65 	"/>
	<polygon class="st1" points="1220.89,136.05 1202.82,199.27 1230,202.32 1241.96,146.12 	"/>
	<polygon class="st1" points="1276.58,136.05 1288.62,127.02 1327.75,169.19 1288.62,183.33 	"/>
</g>
<g>
	<path class="st1" d="M132.28,938.22c-5.44,0.31-10.9,2.67-14.48,6.85c-4.39,5.13-4.54,12.47-1.55,18.33
		c3.54,6.92,9.93,10.88,16.72,14.1c0.85,0.4,1.64,0.4,2.32,0.15c0.61,0.2,1.21,0.39,1.8,0.55c5.98,1.65,12.46,2.92,18.6,1.29
		c5.54-1.47,10.52-5.23,12.75-10.62c5.07-12.27-7.86-20.22-16.85-25.07C145.62,940.58,139.2,937.82,132.28,938.22z M144.38,948.95
		c4.11,1.9,8.26,4.19,11.92,6.87c2.56,1.87,5.35,4.44,5.3,7.88c-0.05,3.43-2.97,6.4-5.9,7.78c-4.09,1.93-8.89,1.48-13.2,0.67
		c-2.31-0.43-5.05-1.04-7.79-1.91c-3.36-2.47-6.93-4.98-9.45-8.26c-2.07-2.69-3.52-6.77-2.17-10.08
		C126.55,943.46,138.17,946.07,144.38,948.95z"/>
	<path class="st1" d="M99.8,888.82c-5.16,2.37-10.37,6.01-13.23,11.04c-3.05,5.36-3.19,11.63,0.12,16.9
		c3.28,5.22,9.18,8.36,15.17,9.25c5.01,0.75,10.79,0.35,15.49-1.93c3.63-0.61,7.15-1.91,10.44-4.3c8.72-6.35,12.77-19.27,4.82-27.91
		C123.98,882.5,110.38,883.96,99.8,888.82z M125.02,896.05c6.31,4.62,4.12,12.45-1.1,16.98c-2.01,1.75-4.33,2.97-6.82,3.83
		c-1.16-0.11-2.32-0.14-3.42-0.02c-2.41,0.25-4.8,0.71-7.23,0.67c-4.1-0.07-7.14-0.85-10.16-3.46c-0.02-0.04-0.72-0.72-0.69-0.68
		c-0.27-0.3-0.52-0.63-0.78-0.94c-0.48-0.59-0.57-0.72-1-1.69c-0.52-1.17-0.73-2.74-0.39-4.13c0.88-3.55,4.2-6.43,7.44-8.39
		C107.81,894.01,117.98,890.89,125.02,896.05z"/>
	<path class="st1" d="M179.49,895.31c-9.65-2.43-20.24,1.41-24.81,10.54c-2.56,5.1-2.5,11.15-0.64,16.45
		c1.8,5.1,5.82,10.2,11.18,11.7c0.73,0.2,1.47,0.25,2.16,0.13c2.96,1,6.08,1.4,9.26,1.1c9.61-0.9,16.36-9.37,17.38-18.59
		C195.09,906.99,188.96,897.69,179.49,895.31z M179.81,904.58c0.18,0.11,0.73,0.42,0.86,0.51c0.33,0.21,0.65,0.44,0.96,0.68
		c0.16,0.12,0.3,0.25,0.46,0.37c0.04,0.03,0.06,0.04,0.08,0.06c0.59,0.6,1.1,1.25,1.61,1.92c0.07,0.09,0.11,0.14,0.14,0.17
		c0.02,0.04,0.04,0.1,0.09,0.21c0.2,0.4,0.41,0.8,0.6,1.21c0.15,0.35,0.29,0.71,0.42,1.06c0.02,0.1,0.14,0.48,0.18,0.63
		c0.21,0.88,0.33,1.78,0.43,2.68c0.01,0.11,0.02,0.17,0.03,0.22c0,0.05,0,0.11,0,0.23c0,0.39,0.01,0.78-0.01,1.17
		c-0.03,0.92-0.16,1.81-0.29,2.71c-0.02,0.12-0.03,0.18-0.03,0.23c-0.02,0.04-0.04,0.1-0.07,0.22c-0.12,0.37-0.22,0.75-0.34,1.12
		c-0.13,0.37-0.26,0.73-0.41,1.09c-0.1,0.24-0.21,0.47-0.31,0.71c0.17-0.39,0.11-0.17-0.04,0.09c-0.39,0.66-0.82,1.31-1.3,1.92
		c-0.12,0.15-0.25,0.3-0.37,0.45c-0.04,0.05-0.07,0.09-0.09,0.11c-0.32,0.32-0.65,0.63-0.99,0.92c-1.18,0.99-2.16,1.59-3.93,2.12
		c0.45-0.13-0.6,0.12-0.77,0.16c-0.51,0.11-1.03,0.18-1.54,0.24c-0.16,0.02-0.32,0.03-0.49,0.04c-0.08,0-0.23,0.01-0.3,0.01
		c-0.46,0-0.92-0.02-1.38-0.05c-1.59-0.12-2.6-0.32-3.98-0.85c0,0-0.01-0.01-0.01-0.01c-0.73-0.52-1.38-1.11-2.07-1.66
		c-0.32-0.26-0.64-0.5-0.96-0.76c0,0,0,0-0.01-0.01c-0.16-0.16-0.31-0.31-0.46-0.48c-0.27-0.3-0.54-0.61-0.79-0.93
		c-0.17-0.21-0.32-0.44-0.49-0.66c-0.01-0.01-0.07-0.11-0.13-0.19c-0.09-0.16-0.36-0.62-0.43-0.75c-0.22-0.42-0.43-0.86-0.62-1.3
		c-0.18-0.42-0.34-0.85-0.49-1.28c-0.05-0.18-0.1-0.35-0.14-0.53c-0.2-0.87-0.36-1.75-0.48-2.64c-0.04-0.27-0.06-0.54-0.09-0.82
		c0-0.02-0.01-0.1-0.01-0.18c0.01-0.17,0.01-0.75,0.02-0.89c0.02-0.41,0.05-0.82,0.1-1.22c0.02-0.2,0.05-0.4,0.08-0.61
		c0.01-0.06,0.08-0.42,0.12-0.63c0.07-0.22,0.19-0.65,0.23-0.76c0.13-0.39,0.27-0.77,0.43-1.14c0.05-0.12,0.28-0.58,0.36-0.76
		c0.05-0.08,0.1-0.16,0.11-0.18c0.2-0.28,0.37-0.57,0.57-0.85c0.23-0.32,0.48-0.62,0.74-0.93c0,0,0,0,0,0c0.1-0.1,0.2-0.2,0.31-0.3
		c0.29-0.26,0.58-0.52,0.89-0.76c0.21-0.16,0.42-0.31,0.63-0.46c0.04-0.03,0.05-0.04,0.07-0.06c0.67-0.39,1.36-0.73,2.07-1.03
		c0.14-0.06,0.7-0.26,0.82-0.32c0.37-0.11,0.74-0.21,1.12-0.29c0.77-0.17,1.56-0.28,2.34-0.36c0.06-0.01,0.28-0.02,0.44-0.03
		c0.1,0,0.2,0,0.21,0c0.46,0.02,0.92,0.02,1.38,0.06c0.39,0.03,0.79,0.08,1.18,0.13c0.14,0.02,0.64,0.12,0.83,0.16
		c0.75,0.2,1.48,0.43,2.2,0.72C179.2,904.31,179.61,904.49,179.81,904.58z"/>
	<path class="st1" d="M194.21,962.96c-5.95,0.79-10.54,4.86-14.46,9.08c-4.66,5.01-8.92,10.68-10.49,17.45
		c-0.47,2-0.7,4.12-0.67,6.23c-0.49,4.54,0.7,9.54,3.74,12.96c3.59,4.04,9.12,5.57,14.31,4.12c5.4-1.51,9.65-5.08,13.32-9.19
		c7.21-8.08,14.91-22.51,9.06-33.23C206.01,964.89,200.4,962.14,194.21,962.96z M199.86,973.47c2.28,2.37,1.94,6.26,1.13,9.16
		c-1.17,4.17-3.17,8.08-5.59,11.64c-2.17,3.2-4.76,6.39-8.06,8.49c-2.06,1.32-4.94,2.47-7.29,1.18c-0.14-0.08-0.25-0.19-0.38-0.27
		c-0.02-0.17-0.04-0.34-0.09-0.51c-0.93-3.5-2.04-6.67-1.49-10.33c0.59-3.95,2.83-7.5,5.23-10.61c2.42-3.13,5.3-6.69,8.76-8.74
		C194.43,972.1,197.78,971.3,199.86,973.47z"/>
	<path class="st1" d="M140.08,844.52c-3.91-0.2-7.97,0.73-11.06,3.23c-3.61,2.91-5.07,7.38-4.73,11.89
		c0.34,4.63,2.9,8.92,6.36,11.93c1.55,1.82,3.29,3.46,5.33,4.77c3.54,2.28,8.15,3.73,12.38,2.98c4.63-0.81,8.22-3.89,10.27-8.02
		c2.01-4.05,1.95-8.77,0.47-12.97C156.4,850.67,148.11,844.93,140.08,844.52z M144.91,854.48c0.03,0.02,0.05,0.02,0.08,0.03
		c0.03,0.02,0.07,0.05,0.14,0.09c0.3,0.18,0.6,0.36,0.89,0.55c0.7,0.46,1.36,0.97,2.01,1.5c0.1,0.08,0.14,0.11,0.19,0.16
		c0.28,0.27,0.55,0.55,0.81,0.84c0.28,0.31,0.54,0.63,0.8,0.95c0.07,0.09,0.57,0.83,0.66,0.93c0.32,0.55,0.61,1.12,0.85,1.7
		c0,0.01,0.22,0.63,0.27,0.74c0.09,0.32,0.17,0.64,0.22,0.97c0.2,1.09,0.23,1.89-0.06,3.33c-0.02,0.03-0.2,0.69-0.22,0.74
		c-0.13,0.37-0.29,0.73-0.43,1.09c-0.04,0.1-0.05,0.15-0.07,0.2c-0.04,0.05-0.08,0.1-0.14,0.2c-0.15,0.21-0.28,0.43-0.43,0.64
		c-0.03,0.04-0.38,0.45-0.46,0.57c-0.22,0.21-0.44,0.42-0.68,0.61c-0.04,0.03-0.62,0.38-0.64,0.41c-0.28,0.14-0.56,0.27-0.84,0.4
		c-0.12,0.05-0.19,0.09-0.24,0.12c-0.06,0.01-0.14,0.02-0.25,0.04c-0.14,0.03-0.27,0.05-0.41,0.08c-1.14-0.84-2.55-1.38-3.84-1.91
		c-1.85-0.76-3.01-1.3-4.54-2.3c-1.45-0.95-2.41-1.71-3.38-2.83c-0.26-0.3-0.51-0.61-0.75-0.93c-0.02-0.03-0.28-0.45-0.39-0.61
		c-0.36-0.65-0.66-1.31-0.94-2c-0.05-0.11-0.07-0.18-0.1-0.23c-0.01-0.06-0.02-0.14-0.04-0.26c-0.07-0.39-0.17-0.77-0.23-1.16
		c-0.02-0.16-0.04-0.32-0.05-0.47c0.02,0.07-0.01-0.67,0-0.75c0.02-0.27,0.06-0.53,0.09-0.79c0.03-0.09,0.14-0.61,0.18-0.71
		c0.09-0.24,0.19-0.47,0.28-0.71c-0.33,0.84,0.28-0.42,0.43-0.63c0.1-0.14,0.57-0.58,0.44-0.47c0.11-0.1,0.21-0.2,0.33-0.29
		c0.11-0.09,0.22-0.16,0.33-0.24c0.09-0.04,0.46-0.27,0.57-0.32c0.29-0.14,0.59-0.25,0.88-0.37c0.7-0.16,1.39-0.27,2.1-0.35
		c0.18-0.01,0.45-0.03,0.52-0.03c0.24,0,0.47,0.01,0.71,0.03c0.72,0.04,1.41,0.15,2.12,0.26c0.06,0.01,0.09,0.01,0.13,0.02
		c0.05,0.02,0.08,0.03,0.15,0.05c0.23,0.07,0.46,0.13,0.69,0.2C143.4,853.82,144.16,854.14,144.91,854.48z"/>
	<g>
		<path class="st1" d="M71.85,946.51c-3.57,3.67-5.52,8.24-5.16,13.39c0.1,1.47,0.49,3.1,1.15,4.61c0.05,0.65,0.14,1.29,0.31,1.92
			c1.29,4.57,5.8,7.24,10.34,7.63c4.59,0.39,8.65-1.55,12.4-3.96c3.59-2.32,7.25-4.93,9.82-8.4c2.55-3.43,3.99-8.11,2.89-12.34
			c-1.13-4.33-4.45-7.66-8.61-9.21C87.28,937.28,77.4,940.81,71.85,946.51z M91.01,948.45c0.34,0.11,0.67,0.21,1,0.34
			c0.12,0.05,0.43,0.19,0.54,0.24c0.14,0.09,0.29,0.17,0.43,0.26c0.23,0.16,0.45,0.33,0.67,0.5c0.09,0.07,0.15,0.11,0.2,0.14
			c0.02,0.04,0.06,0.11,0.13,0.21c-0.02-0.03,0.27,0.37,0.42,0.56c0.08,0.14,0.17,0.31,0.19,0.36c0.05,0.12,0.15,0.44,0.19,0.55
			c0.04,0.19,0.07,0.37,0.1,0.56c0.01,0.06,0.01,0.06,0.02,0.11c-0.01,0.35-0.03,0.69-0.08,1.04c-0.01,0.11-0.08,0.38-0.12,0.53
			c-0.1,0.33-0.21,0.66-0.34,0.98c-0.08,0.2-0.18,0.4-0.27,0.6c-0.05,0.09-0.11,0.21-0.15,0.26c-0.46,0.66-0.91,1.31-1.43,1.93
			c-0.38,0.45-0.3,0.34-0.94,0.93c-0.61,0.56-1.25,1.09-1.9,1.61c-2.45,1.94-4.54,3.55-7.18,4.7c-1.39,0.61-2.94,1-4.35,0.89
			c-0.01-1.27-0.44-2.4-1.1-3.52c-0.29-0.5-0.58-0.98-0.81-1.51c-0.05-0.1-0.12-0.33-0.16-0.45c-0.07-0.27-0.13-0.54-0.18-0.82
			c-0.02-0.12-0.03-0.25-0.05-0.37c-0.01-0.04-0.04-0.21-0.04-0.35c0-0.02,0-0.04-0.01-0.06c0,0.02,0,0.02,0.01,0.04
			c0-0.01,0-0.01,0-0.02c0.03-0.55,0.08-1.09,0.15-1.63c0.04-0.11,0.18-0.77,0.27-1.01c0.11-0.3,0.24-0.6,0.38-0.89
			c0.1-0.17,0.21-0.35,0.32-0.51c0.34-0.51,0.72-1,1.12-1.46c0.08-0.05,0.74-0.72,0.9-0.86c1.36-1.17,1.71-1.39,3.2-2.13
			c0.61-0.31,1.24-0.58,1.88-0.84c0.36-0.14,0.71-0.27,1.07-0.4c0.04-0.01,0.17-0.05,0.29-0.08c0.57-0.15,1.14-0.29,1.72-0.4
			c0.38-0.07,0.76-0.12,1.14-0.17c0.18-0.02,0.35-0.04,0.53-0.05c0.04,0,0.03,0,0.11,0c0.69,0.01,1.37,0.07,2.05,0.17
			C91.92,948.58,91.2,948.51,91.01,948.45z"/>
		<path class="st1" d="M75.82,958.74c0.02,0.11,0.03,0.23,0.04,0.35c0.01,0.03,0.01-0.05-0.05-0.36
			C75.82,958.73,75.82,958.74,75.82,958.74z"/>
	</g>
	<path class="st1" d="M51.24,896.78c-3.66,2.44-5.85,6.5-6.76,10.71c-0.46,2.13-0.58,4.26-0.5,6.43c0.05,1.32,0.04,2.73,0.28,4.03
		c0.15,0.85,0.46,1.61,0.94,2.32c0.32,4.97,2.52,9.74,7.08,12.29c3.4,1.9,7.53,2.08,10.98,0.16c3.21-1.79,5.39-4.66,7.04-7.87
		c3.28-6.36,4.67-15.11,1.32-21.71C67.79,895.6,58.62,891.86,51.24,896.78z M60.8,903.92c0.44,0.29,0.87,0.58,1.27,0.92
		c0.05,0.04,0.07,0.05,0.09,0.07c0.04,0.05,0.07,0.08,0.12,0.15c0.26,0.32,0.53,0.65,0.8,0.96c0.04,0.04,0.15,0.21,0.21,0.29
		c0.1,0.17,0.2,0.34,0.28,0.51c0.16,0.31,0.29,0.62,0.42,0.94c0.02,0.05,0.11,0.31,0.17,0.48c0.04,0.21,0.22,0.96,0.2,0.85
		c0.06,0.3,0.11,0.6,0.16,0.91c0.04,0.3,0.07,0.61,0.1,0.92c0.02,0.22,0.03,0.32,0.04,0.37c-0.01,0.03-0.02,0.11-0.03,0.34
		c-0.08,1.41-0.16,2.8-0.41,4.19c-0.04,0.24-0.09,0.48-0.14,0.73c-0.03,0.11-0.13,0.55-0.16,0.65c-0.18,0.68-0.37,1.35-0.6,2.02
		c-0.18,0.54-0.39,1.08-0.61,1.6c-0.1,0.24-0.21,0.47-0.31,0.7c0.01-0.01-0.21,0.4-0.31,0.59c-0.06,0.11-0.13,0.22-0.16,0.26
		c-0.17,0.27-0.34,0.54-0.52,0.8c-0.31,0.44-0.65,0.87-1.01,1.27c-0.12,0.1-0.58,0.52-0.72,0.63c0,0-0.26,0.17-0.43,0.29
		c-0.18,0.09-0.44,0.23-0.45,0.23c-0.12,0.06-0.25,0.1-0.38,0.15c-0.09,0.02-0.2,0.05-0.25,0.05c0.01,0-0.37,0.02-0.57,0.05
		c-0.12-0.01-0.27-0.02-0.4-0.03c-0.1-0.03-0.47-0.11-0.58-0.16c-0.15-0.05-0.29-0.12-0.43-0.18c-0.03-0.02-0.03-0.02-0.1-0.06
		c-0.76-0.5-0.72-0.45-1.18-0.96c-0.9-1.01-1.39-1.88-1.69-3.04c-0.18-0.71-0.3-1.43-0.41-2.15c0-0.01,0.01-0.02,0.02-0.04
		c0.34-1.12,0.28-2.2,0.2-3.35c-0.11-1.49-0.2-2.61-0.09-4.29c0.1-1.51,0.26-2.51,0.65-3.61c0.19-0.53,0.41-1.04,0.66-1.54
		c0.03-0.04,0.06-0.08,0.1-0.15c0.23-0.34,0.45-0.68,0.7-1c0.1-0.13,0.21-0.25,0.31-0.38c0.08-0.08,0.31-0.31,0.4-0.39
		c0.2-0.17,0.4-0.34,0.62-0.5c0.08-0.06,0.25-0.16,0.37-0.22c0.31-0.13,0.81-0.33,0.81-0.36c0.24-0.05,0.49-0.11,0.74-0.15
		c0.05-0.01,0.08-0.01,0.12-0.01c0.12,0,0.23,0,0.35,0.01c0.27,0.02,0.53,0.07,0.79,0.09c0.02,0,0.02,0,0.04,0
		c0.05,0.02,0.09,0.05,0.16,0.08C60,903.55,60.76,903.93,60.8,903.92z"/>
	<path class="st1" d="M122.96,990.51c-4.89,1.45-8.45,5-10.63,9.53c-2.18,4.52-2.56,9.83-1.52,14.69c0.57,2.68,1.51,5.32,2.65,7.81
		c0.19,2.06,0.68,4.1,1.42,6.01c1.87,4.83,5.94,8.53,11.09,9.4c4.65,0.78,9.75-1.11,13.14-4.3c4.19-3.94,6.23-9.33,7.25-14.88
		c1.73-9.42-0.78-20.7-9.48-25.97C132.72,990.29,127.73,989.1,122.96,990.51z M135.41,1004.79c1.48,2.85,1.9,5.97,1.83,9.04
		c-0.08,3.63-0.58,7.16-2.22,10.4c-1.25,2.46-3.35,4.44-5.72,5.03c-1.39,0.34-2.67,0.3-3.6-0.14c-0.17-0.08-0.32-0.2-0.48-0.3
		c0.38-0.77,0.54-1.65,0.37-2.55c-0.38-2.02-1.44-3.75-2.38-5.55c-0.93-1.78-1.79-3.62-2.44-5.52c-1.02-3-1.25-5.46-0.76-8.52
		c0.16-0.97,0.09-0.39,0.03-0.18c0.12-0.47,0.26-0.93,0.43-1.39c0.19-0.54,0.41-1.06,0.66-1.57c0.08-0.15,0.24-0.43,0.29-0.53
		c0.21-0.33,0.43-0.66,0.66-0.97c0.13-0.18,0.28-0.35,0.42-0.52c0.07-0.05,0.55-0.53,0.64-0.61c1.83-1.55,4.16-1.9,6.47-1.09
		C132.08,1000.67,134.2,1002.44,135.41,1004.79z"/>
	<path class="st1" d="M65.55,837.5c-4.89,1.45-8.45,5-10.63,9.53c-2.18,4.52-2.56,9.83-1.52,14.69c0.57,2.68,1.51,5.32,2.65,7.81
		c0.19,2.06,0.68,4.1,1.42,6.01c1.87,4.83,5.94,8.53,11.09,9.4c4.65,0.78,9.75-1.11,13.14-4.3c4.19-3.94,6.23-9.33,7.25-14.88
		c1.73-9.42-0.78-20.7-9.48-25.97C75.31,837.27,70.32,836.09,65.55,837.5z M78.01,851.77c1.47,2.85,1.9,5.97,1.83,9.04
		c-0.08,3.63-0.58,7.16-2.22,10.4c-1.25,2.46-3.35,4.44-5.72,5.03c-1.39,0.34-2.67,0.3-3.6-0.14c-0.17-0.08-0.32-0.2-0.48-0.3
		c0.38-0.77,0.54-1.65,0.37-2.55c-0.38-2.02-1.44-3.75-2.38-5.55c-0.93-1.78-1.79-3.62-2.44-5.52c-1.02-3-1.25-5.46-0.76-8.52
		c0.16-0.97,0.09-0.39,0.03-0.18c0.12-0.47,0.26-0.93,0.42-1.39c0.19-0.54,0.41-1.06,0.66-1.57c0.08-0.15,0.24-0.43,0.29-0.53
		c0.21-0.33,0.43-0.66,0.66-0.97c0.13-0.18,0.28-0.35,0.42-0.52c0.07-0.05,0.55-0.53,0.64-0.61c1.83-1.55,4.16-1.9,6.47-1.09
		C74.67,847.65,76.8,849.43,78.01,851.77z"/>
	<g>
		<path class="st1" d="M192.76,846.27c-4.69,1.63-8.64,4.82-10.9,9.25c-2.31,4.53-1.95,9.78,0.8,14c2.42,3.72,6.93,5.98,11.33,6.48
			c6.07,2.24,13.24,1.6,18.56-2.13c7.09-4.98,9.57-15.28,4.38-22.44C211.53,843.99,200.7,843.5,192.76,846.27z M207.37,854.4
			c0.1,0.04,0.47,0.23,0.65,0.31c0.18,0.11,0.45,0.28,0.52,0.33c0.34,0.23,0.66,0.48,0.98,0.73c0.02,0.02,0.05,0.05,0.08,0.07
			c-0.04-0.04-0.05-0.05-0.11-0.12c0.04,0.05,0.09,0.1,0.13,0.14c0.06,0.06,0.12,0.12,0.14,0.15c0.03,0.03,0.06,0.06,0.08,0.09
			c0.23,0.26,0.46,0.53,0.66,0.82c0.06,0.08,0.12,0.17,0.17,0.25c0.01,0.02,0.01,0.02,0.02,0.05c0.14,0.36,0.34,0.72,0.5,1.08
			c0.02,0.05,0.04,0.08,0.05,0.11c0.01,0.04,0.01,0.07,0.02,0.14c0.06,0.32,0.14,0.64,0.18,0.97c0.04,0.27,0.03,0.63,0.03,0.55
			c-0.01,0.34-0.01,0.67-0.05,1.01c-0.03,0.33-0.11,0.66-0.15,0.99c0.08-0.72,0.04-0.16-0.08,0.22c-0.21,0.69-0.52,1.32-0.78,1.98
			c-0.06,0.09-0.11,0.19-0.17,0.28c-0.18,0.29-0.37,0.57-0.57,0.85c-0.08,0.12-0.18,0.23-0.26,0.34c-0.26-0.11-0.55-0.21-0.86-0.27
			c-2.26-0.46-4.16,0.35-6.29,1c0.56-0.17-0.42,0.11-0.58,0.15c-0.4,0.11-0.81,0.2-1.22,0.29c-0.89,0.19-1.78,0.26-2.67,0.4
			c-0.03,0-0.03,0-0.05,0.01c-0.16,0-0.31,0-0.47,0c-0.42,0-0.83-0.02-1.24-0.06c-0.36-0.03-0.72-0.11-1.08-0.14
			c-0.01,0-0.01,0-0.02,0c-0.18-0.05-0.35-0.1-0.53-0.15c-0.34-0.11-0.68-0.23-1.01-0.36c-0.06-0.02-0.24-0.1-0.42-0.17
			c-0.05-0.04-0.58-0.31-0.7-0.39c-0.34-0.22-0.68-0.46-1-0.72c-0.14-0.11-0.26-0.23-0.4-0.34c-0.02-0.02-0.03-0.02-0.05-0.04
			c-0.18-0.2-0.38-0.44-0.42-0.48c-0.11-0.13-0.21-0.27-0.32-0.41c-0.04-0.06-0.12-0.19-0.18-0.3c0,0,0-0.01,0-0.01
			c-0.09-0.21-0.19-0.42-0.28-0.63c-0.02-0.05-0.03-0.07-0.05-0.1c0-0.05-0.01-0.09-0.02-0.18c-0.04-0.27-0.08-0.54-0.11-0.82
			c0.01-0.09,0.01-0.45,0.03-0.66c0.02-0.19,0.07-0.39,0.07-0.57c0-0.02,0-0.02,0-0.03c0.11-0.34,0.2-0.68,0.33-1.01
			c0.08-0.21,0.47-0.94,0.36-0.8c0.14-0.24,0.28-0.47,0.44-0.7c0.11-0.16,0.23-0.31,0.35-0.47c0.02-0.03,0.14-0.17,0.23-0.29
			c0.13-0.12,0.51-0.5,0.61-0.59c0.3-0.26,0.61-0.52,0.93-0.75c0.11-0.08,0.57-0.39,0.7-0.49c0.08-0.05,0.16-0.09,0.18-0.1
			c0.24-0.13,0.47-0.26,0.71-0.38c0.79-0.39,1.61-0.67,2.42-1.02c0.04-0.02,0.04-0.02,0.07-0.03c0.13-0.04,0.26-0.08,0.39-0.11
			c0.42-0.12,0.84-0.22,1.26-0.31c0.73-0.15,1.46-0.26,2.2-0.33c0.23-0.02,0.74-0.03,0.67-0.04c0.34,0,0.67-0.01,1.01,0.01
			c0.81,0.03,1.61,0.11,2.4,0.25c0.36,0.06,1.04,0.28,0.31,0.05c0.41,0.13,0.82,0.23,1.22,0.36
			C206.71,854.13,207.04,854.26,207.37,854.4z"/>
		<path class="st1" d="M209.77,856.02c-0.05-0.05-0.09-0.1-0.14-0.15c-0.01-0.01-0.02-0.02-0.03-0.03
			C209.75,856,209.8,856.06,209.77,856.02z"/>
	</g>
</g>
</svg>
