<?xml version="1.0" encoding="utf-8"?>
<!-- Generator: Adobe Illustrator 23.0.3, SVG Export Plug-In . SVG Version: 6.00 Build 0)  -->
<svg version="1.1" id="Capa_1" xmlns="http://www.w3.org/2000/svg" xmlns:xlink="http://www.w3.org/1999/xlink" x="0px" y="0px"
	 viewBox="0 0 155 147" style="enable-background:new 0 0 155 147;" xml:space="preserve">
<style type="text/css">
	.st0{fill:#848484;}
	.st1{fill:#EDCAC9;}
	.st2{fill:#5A3B32;}
	.st3{fill:#FFFFFF;}
	.st4{fill:#CBD6DF;}
	.st5{fill:#CCD7E0;}
	.st6{fill:#A7CDD9;}
</style>
<g>
	<g>
		<g>
			<g>
				<g>
					<path class="st0" d="M23.4,58.6c0,0-9-37.9,3.5-49.6c0,0,3.4-2.9,33.6,12.3"/>
				</g>
			</g>
			<g>
				<g>
					<path class="st0" d="M128.9,58.6c0,0,9.6-37.7-2.7-49.7c0,0-3.4-2.9-33.8,11.7"/>
				</g>
			</g>
			<g>
				<g>
					<path class="st1" d="M30.2,67.5c0,0-9-37.9,3.5-49.6c0,0,3.4-2.9,33.6,12.3"/>
				</g>
				<g>
					<path class="st2" d="M28.9,67.8c-0.4-1.6-9.1-38.8,3.9-50.9c1.3-1.1,7.1-2,35.1,12l-1.2,2.4C41.3,18.5,35.4,18.8,34.5,19
						c-4.7,4.5-6.7,14.2-5.9,28c0.7,10.7,2.9,20.1,2.9,20.2L28.9,67.8z M34.4,19L34.4,19L34.4,19z"/>
				</g>
			</g>
			<g>
				<g>
					<path class="st1" d="M123.2,67.5c0,0,9.6-37.7-2.7-49.7c0,0-3.4-2.9-33.8,11.7"/>
				</g>
				<g>
					<path class="st2" d="M124.5,67.9l-2.6-0.7c0.1-0.4,9.2-36.7-2.2-48.2c-0.9-0.2-6.8-0.6-32.4,11.8l-1.2-2.4
						c28.2-13.6,34-12.6,35.2-11.5C134.2,29.2,124.9,66.3,124.5,67.9z M119.9,19L119.9,19L119.9,19z"/>
				</g>
			</g>
			<g>
				<g>
					<path class="st2" d="M21.8,59c-0.4-1.6-9.1-39,4-51.3l0.1-0.1c2.7-2.3,15.3,2,35.4,12l-1.5,3C35.2,10.4,28.9,10.3,27.8,10.4
						c-4.6,4.6-6.5,14.1-5.7,27.7c0.7,10.7,2.9,20,2.9,20.1L21.8,59z M27.7,10.5L27.7,10.5L27.7,10.5z"/>
				</g>
			</g>
			<g>
				<g>
					<path class="st2" d="M130.5,59l-3.3-0.8c0-0.1,2.4-9.5,3.2-20.1c1.1-13.5-0.8-23.1-5.3-27.7c-1.1-0.1-7.4-0.2-32.1,11.8l-1.5-3
						c20.3-9.8,32.9-13.8,35.6-11.5l0.1,0.1C140.2,20.2,130.9,57.5,130.5,59z M125.4,10.4L125.4,10.4L125.4,10.4z"/>
				</g>
			</g>
			<g>
				<g>
					<path class="st3" d="M130.5,71.9c0,25.9-29.5,40.4-56.4,40.4S20.8,96,22.9,70.2c2.4-29.3,24.4-51.5,52.7-51.5
						C102.6,18.7,130.5,39.9,130.5,71.9z"/>
				</g>
			</g>
			<g>
				<g>
					<path class="st4" d="M56.8,22.2c0,0-67.2,56.2,8.5,89.6c0,0-48.1-6.6-42.5-44.8C22.8,67,27,32.2,56.8,22.2z"/>
				</g>
			</g>
			<g>
				<g>
					<path class="st4" d="M96.6,22.2c0,0,67.2,56.2-8.5,89.6c0,0,48.1-6.6,42.5-44.8C130.6,67,126.4,32.2,96.6,22.2z"/>
				</g>
			</g>
			<g>
				<g>
					<path class="st0" d="M73.3,18.9c0,0,3.3,45-47.7,37.8C25.6,56.7,38.9,15.2,73.3,18.9z"/>
				</g>
			</g>
			<g>
				<g>
					<path class="st0" d="M80.8,20.3c0,0-3.3,45,47.7,37.8C128.5,58.1,115.2,16.6,80.8,20.3z"/>
				</g>
			</g>
			<g>
				<g>
					<path class="st2" d="M22.9,80.4h-18c-0.9,0-1.7-0.8-1.7-1.7C3.2,77.8,4,77,4.9,77h18c0.9,0,1.7,0.8,1.7,1.7
						C24.6,79.6,23.8,80.4,22.9,80.4z"/>
				</g>
			</g>
			<g>
				<g>
					<path class="st2" d="M25.2,88H12.3c-0.9,0-1.7-0.8-1.7-1.7c0-0.9,0.8-1.7,1.7-1.7h12.8c0.9,0,1.7,0.8,1.7,1.7
						C26.8,87.2,26.1,88,25.2,88z"/>
				</g>
			</g>
			<g>
				<g>
					<path class="st2" d="M22.8,72.8H10c-0.9,0-1.7-0.8-1.7-1.7c0-0.9,0.8-1.7,1.7-1.7h12.8c0.9,0,1.7,0.8,1.7,1.7
						C24.5,72,23.8,72.8,22.8,72.8z"/>
				</g>
			</g>
			<g>
				<g>
					<path class="st2" d="M149.4,80.4h-18c-0.9,0-1.7-0.8-1.7-1.7c0-0.9,0.8-1.7,1.7-1.7h18c0.9,0,1.7,0.8,1.7,1.7
						C151.1,79.6,150.4,80.4,149.4,80.4z"/>
				</g>
			</g>
			<g>
				<g>
					<path class="st2" d="M142,88h-12.8c-0.9,0-1.7-0.8-1.7-1.7c0-0.9,0.8-1.7,1.7-1.7H142c0.9,0,1.7,0.8,1.7,1.7
						C143.7,87.2,142.9,88,142,88z"/>
				</g>
			</g>
			<g>
				<g>
					<path class="st2" d="M144.3,72.8h-12.8c-0.9,0-1.7-0.8-1.7-1.7c0-0.9,0.8-1.7,1.7-1.7h12.8c0.9,0,1.7,0.8,1.7,1.7
						C146,72,145.3,72.8,144.3,72.8z"/>
				</g>
			</g>
			<g>
				<g id="K9V0Gw.tif_6_">
					<g>
						<g>
							<g>
								<path class="st1" d="M76,83.3c1.3,0,2.6,0,3.9,0c0.9,0,1.5,0.3,1.8,0.8c0.2,0.3,0.1,0.7-0.2,1c-1.3,1.4-2.5,2.8-3.8,4.2
									c-0.1,0.1-0.2,0.3-0.4,0.4c-0.9,0.6-2.3,0.5-3-0.2c-1.3-1.4-2.6-2.9-3.9-4.3c-0.5-0.5-0.4-1,0.2-1.4
									c0.4-0.3,0.9-0.4,1.4-0.4C73.4,83.3,74.7,83.3,76,83.3z"/>
							</g>
						</g>
					</g>
				</g>
				<g id="K9V0Gw.tif_5_">
					<g>
						<g>
							<g>
								<path class="st2" d="M75.9,92c-1.2,0-2.4-0.4-3.2-1.3c-1.6-1.7-3.1-3.4-4.7-5.2c-0.6-0.7-0.9-1.4-0.8-2.2
									c0.1-0.8,0.5-1.5,1.2-2c0.7-0.5,1.6-0.8,2.7-0.8l3.3,0l2.8,0c1.1,0,2.2,0,3.3,0c1.7,0,3.1,0.7,3.6,1.9c0.5,1,0.3,2.1-0.5,3
									l-4.6,5.1c-0.1,0.2-0.3,0.4-0.6,0.6C77.8,91.7,76.9,92,75.9,92z M71.2,83.9c1.4,1.5,2.7,3,4.1,4.5c0.2,0.2,0.9,0.3,1.3,0
									c0,0,0-0.1,0.1-0.1l0.1-0.1l3.9-4.3c0,0,0,0,0,0c-1.1,0-2.2,0-3.2,0l-2.8,0L71.2,83.9C71.2,83.9,71.2,83.9,71.2,83.9z"/>
							</g>
						</g>
					</g>
				</g>
				<g>
					<g>
						<path class="st2" d="M67.1,97.1c-0.7,0-1.3-0.1-1.9-0.2c-4.2-0.9-6.1-4.3-6.2-4.5c-0.4-0.8-0.1-1.8,0.7-2.3
							c0.8-0.4,1.8-0.1,2.3,0.7c0.1,0.1,1.3,2.3,4,2.8c2.5,0.5,5.6-0.6,9-3.3c0.7-0.6,1.8-0.4,2.4,0.3c0.6,0.7,0.4,1.8-0.3,2.4
							C73.4,95.7,70.1,97.1,67.1,97.1z"/>
					</g>
				</g>
				<g>
					<g>
						<path class="st2" d="M84,97.1c-0.7,0-1.3-0.1-1.9-0.2c-4.2-0.9-6.1-4.3-6.2-4.5c-0.4-0.8-0.1-1.8,0.7-2.3
							c0.8-0.4,1.8-0.1,2.3,0.7c0.1,0.1,1.3,2.3,4,2.8c2.5,0.5,5.6-0.6,9-3.3c0.7-0.6,1.8-0.4,2.4,0.3c0.6,0.7,0.4,1.8-0.3,2.4
							C90.4,95.7,87.1,97.1,84,97.1z"/>
					</g>
				</g>
			</g>
			<g id="K9V0Gw.tif_4_">
				<g>
					<g>
						<g>
							<path class="st5" d="M76.6,92.8c-1.2,0-2.4-0.4-3.2-1.3c-1.6-1.7-3.1-3.4-4.7-5.2c-0.6-0.7-0.9-1.4-0.8-2.2
								c0.1-0.8,0.5-1.5,1.2-2c0.7-0.5,1.6-0.8,2.7-0.8c0,0,0,0,0,0l3.3,0l2.8,0c1.1,0,2.2,0,3.3,0c1.7,0,3.1,0.7,3.6,1.9
								c0.5,1,0.3,2.1-0.5,3l-4.6,5.1c-0.1,0.2-0.3,0.4-0.6,0.6C78.5,92.5,77.5,92.8,76.6,92.8z M71.8,84.7c1.4,1.5,2.7,3,4.1,4.5
								c0.2,0.2,0.9,0.3,1.3,0c0,0,0-0.1,0.1-0.1l0.1-0.1l3.9-4.3c0,0,0,0,0,0c-1.1,0-2.2,0-3.2,0l-2.8,0L71.8,84.7
								C71.9,84.7,71.9,84.7,71.8,84.7z"/>
						</g>
					</g>
				</g>
			</g>
			<g>
				<g>
					<path class="st5" d="M67.7,97.9c-0.7,0-1.3-0.1-1.9-0.2c-4.2-0.9-6.1-4.3-6.2-4.5c-0.4-0.8-0.1-1.8,0.7-2.3
						c0.8-0.4,1.8-0.1,2.3,0.7c0.1,0.1,1.3,2.3,4,2.8c2.5,0.5,5.6-0.6,9-3.3c0.7-0.6,1.8-0.4,2.4,0.3c0.6,0.7,0.4,1.8-0.3,2.4
						C74.1,96.5,70.8,97.9,67.7,97.9z"/>
				</g>
			</g>
			<g>
				<g>
					<path class="st5" d="M84.7,97.9c-0.7,0-1.3-0.1-1.9-0.2c-4.2-0.9-6.1-4.3-6.2-4.5c-0.4-0.8-0.1-1.8,0.7-2.3
						c0.8-0.4,1.8-0.1,2.3,0.7c0.1,0.1,1.3,2.3,4,2.8c2.5,0.5,5.6-0.6,9-3.3c0.7-0.6,1.8-0.4,2.4,0.3c0.6,0.7,0.4,1.8-0.3,2.4
						C91.1,96.5,87.8,97.9,84.7,97.9z"/>
				</g>
			</g>
			<g>
				<g>
					<path class="st2" d="M74.1,114c-17.3,0-33.6-6.4-43.4-17.1c-7-7.6-10.3-16.9-9.5-26.9c1.2-14.7,7.3-28.1,17.1-37.8
						C48.3,22.4,61.5,17,75.6,17c13.9,0,28.1,5.5,38.7,15c11.5,10.4,17.9,24.5,17.9,39.8C132.2,98.3,102.6,114,74.1,114z M75.6,20.4
						c-27.2,0-48.7,21-51.1,50c-0.7,9,2.2,17.4,8.6,24.3c9.1,9.9,24.8,16,41,16c26.9,0,54.8-14.5,54.8-38.7c0-14.4-6-27.6-16.8-37.3
						C102,25.5,88.7,20.4,75.6,20.4z"/>
				</g>
			</g>
			<g id="XMLID_6_">
				<g>
					<path class="st2" d="M58.5,72.8c3.2,2.4,6.8-2.3,3.7-4.8c-9.4-7.3-18.2-3-21.6,0.2c-2.9,2.8,1.3,7.1,4.2,4.3
						C45.1,72.3,50.9,66.8,58.5,72.8z"/>
				</g>
			</g>
			<g id="XMLID_5_">
				<g>
					<path class="st2" d="M110.9,68c-9.4-7.3-18.2-3-21.6,0.2c-2.9,2.8,1.3,7.1,4.2,4.3c0.2-0.2,6-5.7,13.7,0.2
						C110.4,75.2,114.1,70.5,110.9,68L110.9,68z"/>
				</g>
			</g>
			<g>
				<g>
					<path class="st4" d="M38.5,18.7c0,0-6.3,4.9-8.3,26.5l-2.9,1.4c0,0-1.8-22.4,6.5-28.7L38.5,18.7z"/>
				</g>
			</g>
			<g>
				<g>
					<path class="st4" d="M115.7,18.7c0,0,6.3,4.9,8.3,26.5l2.9,1.4c0,0,1.8-22.4-6.5-28.7L115.7,18.7z"/>
				</g>
			</g>
		</g>
	</g>
	<g>
		<path class="st2" d="M51.6,80.6c-10.7,0-19.4-5.4-19.4-12s8.7-12,19.4-12s19.4,5.4,19.4,12S62.2,80.6,51.6,80.6z M51.6,58.5
			C41.9,58.5,34,63,34,68.6s7.9,10.2,17.5,10.2s17.5-4.6,17.5-10.2S61.2,58.5,51.6,58.5z"/>
	</g>
	<g>
		<path class="st2" d="M100.3,81.4c-10.7,0-19.4-5.4-19.4-12s8.7-12,19.4-12s19.4,5.4,19.4,12S111,81.4,100.3,81.4z M100.3,59.2
			c-9.7,0-17.5,4.6-17.5,10.2s7.9,10.2,17.5,10.2s17.5-4.6,17.5-10.2S110,59.2,100.3,59.2z"/>
	</g>
	<g>
		<path class="st2" d="M81.2,70.1c-4.5-4.3-10.7-0.7-10.8-0.6l-0.9-1.6c0.1,0,1.9-1.1,4.3-1.5c3.3-0.6,6.3,0.3,8.6,2.4L81.2,70.1z"
			/>
	</g>
	<g>
		<rect x="117.2" y="64" transform="matrix(0.7771 -0.6294 0.6294 0.7771 -13.19 92.6743)" class="st2" width="14.1" height="1.8"/>
	</g>
	<g>
		
			<rect x="27.7" y="58.2" transform="matrix(0.5887 -0.8083 0.8083 0.5887 -39.7936 49.3569)" class="st2" width="1.8" height="11.1"/>
	</g>
</g>
<g>
	<path class="st6" d="M25.9,138.1l0,0.5v0.3l-0.1,0.4l-0.2,0.2l-0.2,0.1l-0.3,0.1h-0.2l-0.4,0l-3.4-0.2h-2.3l-2.7,0.2l-1.8-0.1H12
		l-1.4,0.1h-0.5l-0.4,0l-0.3-0.1l-0.2-0.1L9,139.2L9,138.8v-0.5l0.2-1.2l0-0.5L9,135.1v-0.5l0.1-1.6v-0.5l0.1-3.7v-0.5L9,124.6v-0.5
		l0-1.6v-2.6L9,119v-0.5l0-0.3l0.1-0.4l0.1-0.2l0.2-0.1l0.3-0.1H10l0.5,0l1.5,0.1h0.5l2.2,0h0.3l0.2,0.1l0.2,0.2v2.6l0.1,1.8v0.5
		l-0.1,1.8v0.5l0.1,1.8v0.5l0.1,1.8v0.5l-0.2,4l0,0.3l0,0.2l0.1,0.2l0.2,0.1l0.4,0.1l1,0.1l0.9-0.1h0.5l4.4-0.1l0.5,0l1-0.1l0.5,0
		h0.5l0.4,0.1l0.2,0.2l0.1,0.2l0,0.3l0,1.7l0,0.5L25.9,138.1z"/>
	<path class="st6" d="M35.5,134.7v0.5l-0.1,1.6v0.5l0,1.7v0.3l-0.1,0.2l-0.2,0.1l-0.4,0l-1.6,0h-1.9l-1.5-0.1l-0.2-0.1l-0.1-0.1V139
		l-0.1-0.8v-0.5l0-0.5v-0.5l-0.1-1.6l0-0.5l0.1-1.6l0-0.5l-0.1-1.7v-0.5l0-1.6v-2.6l0-1.7V124l0-1.6v-2.6l-0.1-1.7l0.1-0.3l0.2-0.1
		l0.3,0h0.2l0.5,0l0.7,0h0.5l1.4-0.1h1.9l0.3,0.1l0.1,0.2l0,0.3l0.1,0.8l0,0.5v3l0,1.6v0.5l0,1.7v0.5l0,1.6v0.5l-0.1,1.6v2.6
		L35.5,134.7z"/>
	<path class="st6" d="M56.6,138.1l0,0.5v0.3l-0.1,0.4l-0.2,0.2l-0.2,0.1l-0.3,0.1h-0.2l-0.4,0l-3.4-0.2h-2.3l-2.7,0.2l-1.8-0.1h-2.3
		l-1.4,0.1h-0.5l-0.4,0l-0.3-0.1l-0.2-0.1l-0.2-0.2l-0.1-0.4v-0.5l0.2-1.2l0-0.5l-0.1-1.6v-0.5l0.1-1.6v-0.5l0.1-3.7v-0.5l-0.1-3.7
		v-0.5l0-1.6v-2.6l-0.1-0.9v-0.5l0-0.3l0.1-0.4l0.1-0.2l0.2-0.1l0.3-0.1h0.2l0.5,0l1.5,0.1h0.5l2.2,0h0.3l0.2,0.1l0.2,0.2v2.6
		l0.1,1.8v0.5l-0.1,1.8v0.5l0.1,1.8v0.5l0.1,1.8v0.5l-0.2,4l0,0.3l0,0.2l0.1,0.2l0.2,0.1l0.4,0.1l1,0.1l0.9-0.1h0.5l4.4-0.1l0.5,0
		l1-0.1l0.5,0h0.5l0.4,0.1l0.2,0.2l0.1,0.2l0,0.3l0,1.7l0,0.5L56.6,138.1z"/>
	<path class="st6" d="M66.2,134.7v0.5l-0.1,1.6v0.5l0,1.7v0.3l-0.1,0.2l-0.2,0.1l-0.4,0l-1.6,0h-1.9l-1.5-0.1l-0.2-0.1l-0.1-0.1V139
		l-0.1-0.8v-0.5l0-0.5v-0.5l-0.1-1.6l0-0.5l0.1-1.6l0-0.5l-0.1-1.7v-0.5l0-1.6v-2.6l0-1.7V124l0-1.6v-2.6l-0.1-1.7l0.1-0.3l0.2-0.1
		l0.3,0h0.2l0.5,0l0.7,0h0.5l1.4-0.1h1.9l0.3,0.1l0.1,0.2l0,0.3l0.1,0.8l0,0.5v3l0,1.6v0.5l0,1.7v0.5l0,1.6v0.5l-0.1,1.6v2.6
		L66.2,134.7z"/>
	<path class="st6" d="M102.4,132.9l0,0.5l-0.1,0.8l-0.1,0.5l-0.2,0.6l-0.2,0.4l-0.3,0.6l-0.3,0.4l-0.5,0.5l-0.3,0.3l-0.8,0.5
		l-0.4,0.3l-0.4,0.2l-0.5,0.2l-0.5,0.2l-0.5,0.2l-1.4,0.3l-0.7,0.1l-0.5,0l-0.7,0.1h-0.5l-1.7,0.1h-2.6l-1.7-0.1h-0.5l-2.1,0h-1.2
		l-0.5-0.1l-0.4-0.1l-0.2-0.1l-0.2-0.2l-0.1-0.3l0-0.5l0-0.4v-0.5l0-0.2v-0.5l0.1-1.6l0-0.5l0-0.8l0-0.5l0-0.3v-0.5l0-0.8v-1.3
		l0.1-1.6v-0.5l-0.1-1.6v-0.5l0-1.6l0-0.5l0.1-1.6l0-0.5l-0.1-1.6l0-0.5l-0.1-0.9v-0.7l0.1-0.4l0.3-0.2l0.4-0.1l0.5,0h1.6l1.7-0.1
		l2.6,0.2l1.6-0.1h0.5l1.7,0h0.5l1.8,0.1l0.5,0.1l0.5,0.1l0.5,0.1l0.7,0.2l0.5,0.2l0.6,0.3l0.4,0.3l0.5,0.4l0.4,0.4l0.3,0.4l0.2,0.4
		l0.3,0.6l0.2,0.4l0.2,0.5l0.1,0.5l0.1,0.8l0,0.5l0,0.5l-0.1,0.5l-0.2,0.7l-0.2,0.5l-0.3,0.5l-0.3,0.4l-0.7,0.7l-0.1,0.2l0.1,0.2
		l0.3,0.3l0.4,0.3l0.4,0.4l0.2,0.2l0.3,0.4l0.3,0.5l0.2,0.5l0.1,0.3l0.2,0.5l0.1,0.5l0.1,0.5L102.4,132.9z M88.6,124.8l0,0.5
		l0.1,0.3l0.1,0.2l0.2,0.1l0.4,0h0.7l1-0.1l0.5,0l0.7,0l1,0.1h0.7l0.4-0.1l0.4-0.2l0.3-0.2l0.2-0.3l0.2-0.3l0.1-0.4v-0.5l-0.1-0.4
		l-0.3-0.4l-0.4-0.3l-0.2-0.1l-0.5-0.1l-0.2,0l-0.5-0.1h-0.3l-0.5-0.1l-0.7-0.1l-0.5,0l-1.5,0.1h-0.4l-0.3,0l-0.3,0.1l-0.2,0.1
		l-0.1,0.2l-0.1,0.4l-0.1,0.7l0,0.5L88.6,124.8z M96.3,132.9l0-0.4l-0.1-0.4l-0.2-0.4l-0.2-0.2l-0.4-0.4l-0.5-0.3l-0.5-0.2l-0.2,0
		l-0.4,0l-1.4,0.1l-0.5,0h-1.8l-0.5,0h-0.2l-0.4,0.1l-0.3,0.1l-0.1,0.1l0,0.3v0.7l0,0.5v0.5l-0.1,0.7v0.5l0.1,0.3l0.1,0.2l0.2,0.1
		l0.4,0l2.4,0l1.9-0.1l1-0.1l0.5-0.1l0.3-0.2l0.2-0.2l0.1-0.2l0.2-0.5l0.1-0.5L96.3,132.9z"/>
	<path class="st6" d="M126.1,128.8l0.1,1l0,0.5l0,0.7l-0.1,0.5l-0.1,0.7l-0.1,0.5l-0.1,0.7l-0.1,0.5l-0.2,0.6l-0.2,0.4l-0.3,0.6
		l-0.2,0.4l-0.4,0.6l-0.3,0.4l-0.4,0.4l-0.4,0.3l-0.6,0.5l-0.4,0.3l-0.6,0.4l-0.4,0.2l-0.6,0.3l-0.5,0.2l-0.7,0.2l-0.5,0.1l-0.7,0.1
		l-0.5,0.1l-0.9,0.1h-1.4l-0.7-0.1l-0.5,0l-1.7-0.2l-0.5-0.1l-0.3,0l-0.5-0.2l-0.2-0.1l-0.5-0.2l-0.7-0.3l-0.5-0.3l-0.5-0.3
		l-0.8-0.7l-0.3-0.3l-0.4-0.5l-0.3-0.4l-0.5-0.8l-0.3-0.4l-0.2-0.5l-0.2-0.5l-0.2-0.5l-0.1-0.4l-0.1-0.5l-0.1-0.7l-0.1-0.5l-0.1-0.5
		l-0.1-1l0-0.5l0.1-1.9v-0.5l-0.1-1.9V125l0.1-1.9v-2.8l-0.1-1v-0.5l0-0.5l0.1-0.5l0.2-0.3l0.4-0.1l1-0.1l1.2,0.1h0.5l1,0l0.5,0
		l0.7,0l0.4,0.1l0.2,0.2l0.1,0.4l0,0.4v0.5l-0.1,1.2v0.5l0.1,1.9v0.5l0,1.9v0.5l-0.1,1.9v0.5l0,1.9l0,0.5l0.1,0.8l0.1,0.5l0.2,0.7
		l0.2,0.5l0.3,0.7l0.3,0.4l0.5,0.5l0.4,0.2l0.7,0.2l0.5,0.1l0.8,0.1h0.5l0.8-0.2l0.5-0.1l0.6-0.3l0.4-0.2l0.5-0.4l0.3-0.4l0.3-0.6
		l0.2-0.5l0.2-0.5l0.1-0.5l0.1-0.9l0-0.5l-0.1-1.9v-0.5l0.1-1.9v-0.5l0.1-1.9v-0.5l-0.1-1.9l0-0.5l-0.1-1.3v-0.8l0.1-0.4l0.3-0.2
		l0.4-0.1h0.6l1.6,0.1h0.5l1.2-0.1h0.5l0.5,0l0.4,0.1l0.2,0.2l0,0.4l0,0.9v0.5l0,0.7v0.5l0.1,1.9v0.5l-0.1,1.9v0.5l-0.1,1.9
		L126.1,128.8z"/>
	<path class="st6" d="M151.5,117.9l-0.2,0.3l-2.2,3.2l-0.3,0.4l-1,1.4l-0.3,0.4l-0.9,1.5l-0.3,0.4l-0.9,1.4l-0.3,0.4l-1,1.4
		l-0.3,0.4l-1,1.4l-0.1,0.2v2.5l0.1,1.6l0,0.5l-0.1,1.6v0.5l0.1,1.3l0,0.4l-0.1,0.2l-0.1,0.1l-0.3,0.1h-2l-3.6-0.1l-0.1-0.1
		l-0.1-0.3v-3.7l0-0.5l-0.1-1.6l0-0.5l0.1-1.6l-0.1-0.3l-0.2-0.2l-0.8-1.5l-0.3-0.4l-1-1.4l-0.3-0.4l-0.9-1.5l-0.2-0.4l-2.1-3.2
		l-0.2-0.4l-0.9-1.4l-0.2-0.4l-0.9-1.5l-0.1-0.3l0-0.2l0.2-0.1h4.1l0.5,0l1.8,0.1l0.3,0l0.1,0.1l0.9,1.5l0.2,0.4l0.9,1.4l0.2,0.4
		l0.8,1.4l0.3,0.4l0.8,1.3l0.2,0.3l0.2,0.1l0.2-0.2l0.8-1.5l0.3-0.4l0.9-1.3l0.3-0.4l0.8-1.4l0.2-0.4l0.9-1.4l0.2-0.3l0.2-0.1l0.3,0
		l1.5,0.1h0.5l1.8-0.1h0.5l1.7,0.1l0.4,0.1l0.2,0.1L151.5,117.9z"/>
</g>
<circle class="st6" cx="75" cy="130.5" r="2.6"/>
</svg>
