<?xml version="1.0" encoding="utf-8"?>
<!-- Generator: Adobe Illustrator 23.0.3, SVG Export Plug-In . SVG Version: 6.00 Build 0)  -->
<svg version="1.1" id="Capa_1" xmlns="http://www.w3.org/2000/svg" xmlns:xlink="http://www.w3.org/1999/xlink" x="0px" y="0px"
	 viewBox="0 0 362 74" style="enable-background:new 0 0 362 74;" xml:space="preserve">
<style type="text/css">
	.st0{fill:#4B2F86;}
	.st1{fill:#80DF81;}
</style>
<g>
	<path class="st0" d="M4.69,3.56h21.05c7.13,0,19.85,0,28.1,12.16c4.38,6.17,5.85,13.13,5.85,20.27c0,17.8-8.59,32.78-32.74,32.78
		H4.69V3.56z M20.93,54.14h6.96c12.12,0,15.56-8.64,15.56-17.89c0-3.7-0.77-8.37-3.1-12.07c-1.89-2.91-5.16-5.99-12.37-5.99h-7.05
		V54.14z"/>
	<polygon class="st0" points="69.31,3.56 104.62,3.56 104.62,18.19 84.86,18.19 84.86,28.32 84.86,42.95 84.86,54.14 104.62,54.14 
		104.62,68.76 69.31,68.76 	"/>
	<path class="st0" d="M114.67,3.56h20.79c11.77,0,16.15,1.85,19.59,4.76c4.98,4.23,7.47,10.66,7.47,17.27
		c0,6.61-2.66,13.57-6.71,17.09c-4.38,3.79-8.68,5.64-18.55,5.64h-7.05v20.44h-15.55V3.56z M130.22,33.69h6.62
		c3.09,0,10.14,0,10.14-7.84c0-7.66-7.22-7.66-10.74-7.66h-6.02V33.69z"/>
	<path class="st0" d="M229.29,3.56h20.11c11.17,0,15.47,1.41,19.59,4.67c5.24,4.23,7.82,11.1,7.82,17.8
		c0,7.49-3.78,18.51-15.81,20.53l17.27,22.2h-18.56l-14.7-21.06h-0.17v21.06h-15.56V3.56z M244.85,36.34h5.76
		c9.54,0,10.65-6.17,10.65-9.34c0-5.91-4.21-8.81-10.48-8.81h-5.93V36.34z"/>
	<polygon class="st0" points="312.23,28.09 326.38,68.77 344,68.77 318.74,3.56 305.93,3.56 280.42,68.77 297.86,68.77 	"/>
	<rect x="90.35" y="29.21" class="st1" width="13.57" height="13.91"/>
	<path class="st0" d="M185.39,3.56v39.39c0,4.4,0.26,12.42,8.25,12.42c8.08,0,8.08-7.23,8.08-12.42V26.2h16.24v16.75
		c0,10.93-2.32,15.77-6.36,20c-4.13,4.32-9.88,7.05-17.79,7.05c-4.64,0-13.06-1.15-18.3-6.96c-5.24-5.9-6.36-10.48-6.36-20.09V3.56
		H185.39z"/>
	<rect x="202.79" y="3.91" class="st1" width="13.57" height="13.91"/>
</g>
</svg>
