<?xml version="1.0" encoding="utf-8"?>
<!-- Generator: Adobe Illustrator 23.0.3, SVG Export Plug-In . SVG Version: 6.00 Build 0)  -->
<svg version="1.1" id="Capa_1" xmlns="http://www.w3.org/2000/svg" xmlns:xlink="http://www.w3.org/1999/xlink" x="0px" y="0px"
	 viewBox="0 0 217 46" style="enable-background:new 0 0 217 46;" xml:space="preserve">
<style type="text/css">
	.st0{fill:url(#SVGID_1_);}
	.st1{fill:url(#SVGID_2_);}
	.st2{fill:url(#SVGID_3_);}
	.st3{fill:url(#SVGID_4_);}
	.st4{fill:url(#SVGID_5_);}
	.st5{fill:url(#SVGID_6_);}
	.st6{fill:url(#SVGID_7_);}
	.st7{fill:url(#SVGID_8_);}
	.st8{fill:url(#SVGID_9_);stroke:#000000;stroke-miterlimit:10;}
	.st9{fill:url(#SVGID_10_);}
	.st10{fill:url(#SVGID_11_);}
	.st11{fill:url(#SVGID_12_);}
	.st12{fill:url(#SVGID_13_);}
	.st13{fill:url(#SVGID_14_);}
	.st14{fill:url(#SVGID_15_);}
	.st15{fill:url(#SVGID_16_);}
	.st16{fill:url(#SVGID_17_);}
	.st17{fill:url(#SVGID_18_);}
	.st18{fill:url(#SVGID_19_);}
	.st19{fill:url(#SVGID_20_);}
	.st20{fill:url(#SVGID_21_);}
	.st21{fill:url(#SVGID_22_);}
	.st22{fill:url(#SVGID_23_);}
	.st23{fill:url(#SVGID_24_);}
	.st24{fill:url(#SVGID_25_);}
	.st25{fill:url(#SVGID_26_);}
	.st26{fill:url(#SVGID_27_);}
	.st27{fill:url(#SVGID_28_);}
	.st28{fill:url(#SVGID_29_);}
	.st29{fill:url(#SVGID_30_);}
	.st30{fill:url(#SVGID_31_);}
	.st31{fill:url(#SVGID_32_);}
	.st32{fill:url(#SVGID_33_);}
	.st33{fill:url(#SVGID_34_);}
	.st34{fill:url(#SVGID_35_);}
	.st35{fill:url(#SVGID_36_);}
	.st36{fill:url(#SVGID_37_);}
	.st37{fill:url(#SVGID_38_);}
	.st38{fill:url(#SVGID_39_);}
	.st39{fill:url(#SVGID_40_);}
	.st40{fill:url(#SVGID_41_);}
	.st41{fill:url(#SVGID_42_);}
	.st42{fill:url(#SVGID_43_);}
	.st43{fill:url(#SVGID_44_);}
	.st44{fill:url(#SVGID_45_);}
	.st45{fill:url(#SVGID_46_);}
	.st46{fill:url(#SVGID_47_);}
	.st47{fill:url(#SVGID_48_);}
	.st48{fill:url(#SVGID_49_);}
	.st49{fill:url(#SVGID_50_);}
	.st50{fill:url(#SVGID_51_);}
	.st51{fill:url(#SVGID_52_);}
	.st52{fill:url(#SVGID_53_);}
	.st53{fill:url(#SVGID_54_);}
	.st54{fill:url(#SVGID_55_);}
	.st55{fill:url(#SVGID_56_);}
	.st56{fill:url(#SVGID_57_);}
	.st57{fill:url(#SVGID_58_);}
	.st58{fill:url(#SVGID_59_);}
	.st59{fill:url(#SVGID_60_);}
	.st60{fill:url(#SVGID_61_);}
	.st61{fill:url(#SVGID_62_);}
	.st62{fill:url(#SVGID_63_);}
</style>
<g>
	<g>
		<linearGradient id="SVGID_1_" gradientUnits="userSpaceOnUse" x1="34.3565" y1="15.7115" x2="256.3673" y2="17.2973">
			<stop  offset="0" style="stop-color:#253B8C"/>
			<stop  offset="1" style="stop-color:#4A80FA"/>
		</linearGradient>
		<path class="st0" d="M13.38,0.69v2.33c-1.23,0.29-1.85,1.28-1.85,2.94v19.57c0,0.76,0.11,1.34,0.32,1.74
			c0.18,0.34,0.57,0.62,1.16,0.86v2.38c-0.45,0-0.86-0.04-1.23-0.11c-0.37-0.07-0.87-0.21-1.48-0.42c-1.47-0.5-2.8-1.27-3.99-2.31
			c-1.19-1.04-2.17-2.28-2.94-3.72c-1.19-2.26-1.79-4.93-1.79-8.01c0-2.98,0.53-5.63,1.6-7.95c1.06-2.31,2.59-4.13,4.58-5.44
			c1.15-0.77,2.38-1.32,3.7-1.66C11.99,0.76,12.64,0.69,13.38,0.69z M24.6,26.43c-0.56,0.56-1.31,1.13-2.24,1.71
			c-0.93,0.58-1.81,1.04-2.64,1.38c-0.76,0.29-1.59,0.53-2.51,0.71c-0.92,0.18-1.73,0.27-2.43,0.27v-2.38
			c0.41-0.1,0.71-0.22,0.91-0.36c0.2-0.14,0.37-0.34,0.51-0.59c0.24-0.43,0.36-0.99,0.36-1.66v-6.14c0-0.55-0.11-0.94-0.32-1.18
			c-0.1-0.14-0.2-0.23-0.29-0.26c-0.1-0.03-0.42-0.12-0.97-0.24c-0.67-0.17-1.01-0.56-1.01-1.18c0-0.36,0.16-0.64,0.47-0.84
			c0.32-0.2,0.78-0.29,1.4-0.29h0.69h7.69c0.63,0,1.08,0.09,1.33,0.26c0.26,0.18,0.39,0.48,0.39,0.91c0,0.27-0.05,0.49-0.16,0.66
			c-0.11,0.18-0.3,0.36-0.58,0.56c-0.28,0.2-0.46,0.38-0.53,0.55c-0.07,0.17-0.11,0.48-0.11,0.92V26.43z M15.1,2.98V0.71
			c2.28,0.21,4.16,0.63,5.63,1.26c0.43,0.2,0.77,0.29,1.01,0.29c0.22,0,0.4-0.05,0.51-0.16c0.12-0.11,0.36-0.4,0.73-0.89
			c0.25-0.35,0.57-0.53,0.95-0.53c0.39,0,0.67,0.11,0.83,0.33C24.92,1.23,25,1.59,25,2.09v8.18c0,1.07-0.39,1.6-1.18,1.6
			c-0.39,0-0.68-0.11-0.87-0.32c-0.19-0.21-0.37-0.62-0.54-1.24c-0.21-0.78-0.59-1.7-1.14-2.74c-0.55-1.04-1.07-1.87-1.58-2.47
			c-0.57-0.7-1.22-1.22-1.93-1.54C17.06,3.23,16.17,3.03,15.1,2.98z"/>
		<linearGradient id="SVGID_2_" gradientUnits="userSpaceOnUse" x1="34.3574" y1="15.586" x2="256.3682" y2="17.1718">
			<stop  offset="0" style="stop-color:#253B8C"/>
			<stop  offset="1" style="stop-color:#4A80FA"/>
		</linearGradient>
		<path class="st1" d="M40.6,29.94h-9.35H30.7c-0.5,0-0.89-0.09-1.17-0.28c-0.27-0.19-0.41-0.46-0.41-0.81
			c0-0.57,0.28-0.95,0.84-1.13c0.46-0.15,0.73-0.25,0.81-0.28c0.08-0.03,0.16-0.12,0.24-0.24c0.17-0.22,0.25-0.58,0.25-1.07V5.08
			c0-0.49-0.08-0.85-0.25-1.07c-0.08-0.13-0.16-0.21-0.24-0.24c-0.08-0.03-0.35-0.13-0.81-0.28c-0.56-0.18-0.84-0.56-0.84-1.14
			c0-0.35,0.14-0.62,0.41-0.81c0.27-0.19,0.66-0.28,1.17-0.28h0.55h9.37h0.71c0.62,0,1.06,0.08,1.32,0.25
			c0.36,0.22,0.55,0.52,0.55,0.88c0,0.62-0.34,1-1.01,1.16c-0.55,0.13-0.87,0.21-0.97,0.25c-0.1,0.04-0.2,0.13-0.32,0.25
			C40.7,4.3,40.6,4.69,40.6,5.23V29.94z M42.3,29.94v-2.35c0.69-0.13,1.23-0.27,1.63-0.42c0.4-0.15,0.78-0.38,1.15-0.67
			c0.59-0.46,1.13-1.1,1.62-1.91c0.49-0.81,0.89-1.72,1.2-2.71c0.22-0.77,0.43-1.28,0.62-1.52c0.19-0.25,0.47-0.37,0.83-0.37
			c0.39,0,0.68,0.16,0.86,0.48c0.08,0.15,0.13,0.46,0.13,0.92v8.55H42.3z"/>
		<linearGradient id="SVGID_3_" gradientUnits="userSpaceOnUse" x1="34.3588" y1="15.3864" x2="256.3696" y2="16.9722">
			<stop  offset="0" style="stop-color:#253B8C"/>
			<stop  offset="1" style="stop-color:#4A80FA"/>
		</linearGradient>
		<path class="st2" d="M63.11,2.96c-0.71,0.25-1.22,0.6-1.51,1.03c-0.29,0.43-0.44,1.07-0.44,1.91v18.79c0,1.23,0.17,2.1,0.5,2.61
			c0.27,0.42,0.75,0.72,1.45,0.9v2.31C60,30.26,57.39,29.09,55.29,27c-2.73-2.72-4.1-6.51-4.1-11.37c0-2.44,0.36-4.64,1.08-6.61
			c0.72-1.97,1.79-3.64,3.21-5.01c1.08-1.05,2.24-1.85,3.49-2.4c1.25-0.55,2.63-0.85,4.14-0.92V2.96z M64.83,2.96V0.69
			c1.51,0.07,2.9,0.38,4.15,0.92c1.25,0.55,2.42,1.35,3.5,2.4c2.86,2.79,4.29,6.66,4.29,11.62c0,4.86-1.37,8.65-4.1,11.37
			c-2.1,2.1-4.72,3.27-7.84,3.51V28.2c0.36-0.08,0.65-0.19,0.85-0.33c0.2-0.13,0.39-0.33,0.56-0.58c0.38-0.57,0.57-1.44,0.57-2.61
			V5.9c0-0.74-0.13-1.33-0.38-1.77c-0.17-0.29-0.37-0.53-0.6-0.69C65.6,3.27,65.27,3.11,64.83,2.96z"/>
		<linearGradient id="SVGID_4_" gradientUnits="userSpaceOnUse" x1="34.3606" y1="15.1369" x2="256.3714" y2="16.7227">
			<stop  offset="0" style="stop-color:#253B8C"/>
			<stop  offset="1" style="stop-color:#4A80FA"/>
		</linearGradient>
		<path class="st3" d="M94.01,19.77l-2.54,10.17h-4.54l-6.77-24.7c-0.15-0.56-0.3-0.94-0.43-1.14c-0.13-0.2-0.36-0.36-0.68-0.48
			c-0.56-0.22-0.84-0.6-0.84-1.11c0-0.41,0.18-0.72,0.53-0.94c0.35-0.22,0.84-0.33,1.47-0.33h9.84c0.62,0,1.04,0.08,1.26,0.25
			c0.29,0.21,0.44,0.5,0.44,0.86c0,0.43-0.25,0.8-0.74,1.09c-0.41,0.24-0.67,0.44-0.79,0.6c-0.12,0.16-0.18,0.4-0.18,0.73
			c0,0.15,0.02,0.31,0.06,0.46L94.01,19.77z M96,1.25h4.33l5.04,19.13l-2.4,9.56H98.4l-4.9-18.48L96,1.25z M106.18,17.02l-1.09-4.27
			l1.53-6.22c0.13-0.49,0.19-0.87,0.19-1.14c0-0.42-0.12-0.78-0.35-1.08c-0.23-0.3-0.61-0.58-1.15-0.85
			c-0.35-0.18-0.59-0.36-0.73-0.53c-0.13-0.17-0.2-0.39-0.2-0.65c0-0.36,0.12-0.63,0.35-0.79c0.23-0.16,0.6-0.24,1.1-0.24h5
			c0.57,0,0.98,0.08,1.21,0.24c0.23,0.16,0.35,0.43,0.35,0.81c0,0.22-0.06,0.41-0.18,0.56c-0.12,0.15-0.32,0.28-0.6,0.41
			c-0.63,0.28-1.09,0.57-1.39,0.88c-0.64,0.64-1.13,1.58-1.45,2.8L106.18,17.02z"/>
		<linearGradient id="SVGID_5_" gradientUnits="userSpaceOnUse" x1="34.3619" y1="14.9588" x2="256.3727" y2="16.5445">
			<stop  offset="0" style="stop-color:#253B8C"/>
			<stop  offset="1" style="stop-color:#4A80FA"/>
		</linearGradient>
		<path class="st4" d="M124.4,0.69V3.1c-0.87,0.24-1.53,0.61-1.99,1.1c-0.46,0.5-0.68,1.11-0.68,1.84c0,0.7,0.19,1.31,0.57,1.84
			c0.38,0.53,0.99,1.03,1.85,1.5c0.59,0.32,1.92,0.94,3.99,1.85c1.26,0.55,2.24,1.04,2.93,1.48c0.69,0.44,1.35,0.99,1.97,1.65
			c1.65,1.74,2.48,3.8,2.48,6.2c0,1.81-0.45,3.46-1.35,4.96c-0.9,1.5-2.13,2.68-3.7,3.53c-0.84,0.45-1.76,0.8-2.76,1.06
			c-1,0.26-1.94,0.39-2.81,0.39v-2.4c1.22-0.29,2.1-0.7,2.64-1.23c0.54-0.53,0.81-1.24,0.81-2.13c0-0.94-0.42-1.77-1.26-2.48
			c-0.56-0.46-1.63-1.04-3.19-1.72c-1.72-0.76-2.9-1.3-3.54-1.62c-0.64-0.32-1.25-0.7-1.84-1.14c-2.63-1.88-3.95-4.38-3.95-7.5
			c0-1.6,0.33-3.07,0.99-4.42c0.66-1.35,1.58-2.44,2.75-3.27C119.94,1.45,121.98,0.81,124.4,0.69z M123.31,28.11v2.4
			c-1.15,0-2.42-0.33-3.8-0.99c-0.52-0.24-0.88-0.39-1.07-0.46c-0.2-0.07-0.39-0.11-0.57-0.11c-0.28,0-0.49,0.05-0.63,0.14
			c-0.14,0.09-0.36,0.32-0.67,0.68c-0.25,0.31-0.53,0.46-0.82,0.46c-0.78,0-1.18-0.6-1.18-1.81v-7.65c0-0.39,0.11-0.73,0.34-1
			c0.22-0.27,0.5-0.42,0.84-0.43c0.31-0.01,0.55,0.07,0.73,0.26c0.18,0.19,0.33,0.52,0.45,1c0.32,1.21,0.79,2.33,1.4,3.38
			c0.61,1.05,1.32,1.94,2.13,2.67C121.28,27.42,122.23,27.9,123.31,28.11z M126.06,3.1V0.79c0.84,0.06,1.57,0.16,2.19,0.33
			c0.62,0.16,1.49,0.48,2.63,0.96c0.28,0.11,0.51,0.17,0.69,0.17c0.27,0,0.46-0.09,0.59-0.27l0.46-0.61
			c0.22-0.31,0.5-0.46,0.82-0.46c0.38,0,0.65,0.14,0.83,0.41c0.18,0.27,0.26,0.7,0.26,1.29v6.94c0,0.41-0.12,0.74-0.35,1
			c-0.23,0.26-0.53,0.39-0.89,0.39c-0.28,0-0.54-0.09-0.78-0.27c-0.13-0.11-0.23-0.25-0.3-0.41c-0.08-0.16-0.15-0.43-0.22-0.81
			c-0.15-0.69-0.42-1.39-0.8-2.12c-0.38-0.73-0.82-1.38-1.32-1.95C128.86,4.22,127.59,3.47,126.06,3.1z"/>
		<linearGradient id="SVGID_6_" gradientUnits="userSpaceOnUse" x1="34.3634" y1="14.7496" x2="256.3742" y2="16.3354">
			<stop  offset="0" style="stop-color:#253B8C"/>
			<stop  offset="1" style="stop-color:#4A80FA"/>
		</linearGradient>
		<path class="st5" d="M137.96,1.25h5.53V3.8c-0.66,0.38-1.17,0.86-1.53,1.45c-0.6,0.95-1.01,2.08-1.22,3.38l-0.21,1.28
			c-0.07,0.41-0.22,0.73-0.45,0.96c-0.23,0.23-0.52,0.35-0.87,0.35c-0.36,0-0.66-0.13-0.89-0.38c-0.23-0.25-0.35-0.58-0.35-0.99
			V1.25z M154.52,1.25v24.7c0,0.55,0.11,0.94,0.32,1.18c0.11,0.14,0.22,0.23,0.32,0.26c0.1,0.04,0.42,0.12,0.97,0.26
			c0.67,0.15,1.01,0.54,1.01,1.16c0,0.36-0.18,0.66-0.55,0.88c-0.27,0.17-0.71,0.25-1.35,0.25h-0.69h-9.37h-0.69
			c-0.62,0-1.08-0.09-1.4-0.28c-0.32-0.19-0.47-0.47-0.47-0.85c0-0.62,0.34-1,1.01-1.16c0.55-0.14,0.87-0.23,0.97-0.26
			c0.1-0.03,0.2-0.12,0.29-0.26c0.21-0.24,0.32-0.63,0.32-1.18V1.25H154.52z M161.79,1.25v8.6c0,0.41-0.12,0.74-0.35,0.99
			c-0.23,0.25-0.53,0.38-0.89,0.38c-0.35,0-0.64-0.12-0.87-0.35c-0.23-0.23-0.38-0.55-0.45-0.96l-0.21-1.28
			c-0.21-1.3-0.62-2.43-1.22-3.38c-0.38-0.59-0.89-1.07-1.53-1.45V1.25H161.79z"/>
		<linearGradient id="SVGID_7_" gradientUnits="userSpaceOnUse" x1="34.3646" y1="14.5857" x2="256.3753" y2="16.1715">
			<stop  offset="0" style="stop-color:#253B8C"/>
			<stop  offset="1" style="stop-color:#4A80FA"/>
		</linearGradient>
		<path class="st6" d="M175.85,1.25v28.69h-9.35h-0.55c-0.5,0-0.89-0.09-1.17-0.28c-0.27-0.19-0.41-0.46-0.41-0.81
			c0-0.57,0.28-0.95,0.84-1.13c0.46-0.15,0.73-0.25,0.81-0.28c0.08-0.03,0.16-0.12,0.24-0.24c0.17-0.22,0.25-0.58,0.25-1.07V5.08
			c0-0.49-0.08-0.85-0.25-1.07c-0.08-0.13-0.16-0.21-0.24-0.24c-0.08-0.03-0.35-0.13-0.81-0.28c-0.56-0.18-0.84-0.56-0.84-1.14
			c0-0.35,0.14-0.62,0.41-0.81c0.27-0.19,0.66-0.28,1.17-0.28h0.55H175.85z M177.62,16.55v-2.44c0.81-0.39,1.42-0.82,1.81-1.28
			c0.39-0.46,0.68-1.08,0.86-1.85c0.11-0.53,0.26-0.9,0.44-1.1c0.18-0.2,0.44-0.3,0.78-0.3c0.45,0,0.76,0.18,0.92,0.53
			c0.1,0.18,0.15,0.6,0.15,1.24v8.01c0,0.66-0.07,1.11-0.22,1.37c-0.15,0.25-0.42,0.38-0.81,0.38c-0.32,0-0.57-0.1-0.76-0.29
			c-0.18-0.2-0.33-0.53-0.44-0.99c-0.24-0.97-0.58-1.71-1.02-2.23C178.89,17.07,178.32,16.72,177.62,16.55z M177.73,1.25h8.47v7.44
			c0,0.43-0.08,0.75-0.25,0.95c-0.17,0.2-0.43,0.29-0.8,0.29c-0.31,0-0.53-0.06-0.67-0.19c-0.14-0.13-0.27-0.39-0.4-0.78
			c-0.53-1.63-1.31-2.87-2.34-3.72c-1.03-0.85-2.36-1.37-4-1.53V1.25z M177.75,29.94v-2.27c0.91-0.14,1.66-0.34,2.26-0.59
			c0.6-0.25,1.19-0.64,1.8-1.16c0.6-0.52,1.08-1.05,1.44-1.61c0.36-0.55,0.7-1.29,1.02-2.2c0.15-0.45,0.32-0.75,0.48-0.91
			c0.17-0.16,0.4-0.24,0.69-0.24c0.39,0,0.67,0.12,0.82,0.35c0.15,0.23,0.23,0.63,0.23,1.21v7.42H177.75z"/>
		<linearGradient id="SVGID_8_" gradientUnits="userSpaceOnUse" x1="34.3659" y1="14.3943" x2="256.3767" y2="15.98">
			<stop  offset="0" style="stop-color:#253B8C"/>
			<stop  offset="1" style="stop-color:#4A80FA"/>
		</linearGradient>
		<path class="st7" d="M192.73,8.63l2.23,3.7V23.6c0,0.98,0.16,1.79,0.49,2.42c0.33,0.63,0.85,1.15,1.57,1.56l0.63,0.36
			c0.36,0.21,0.55,0.53,0.55,0.95c0,0.32-0.13,0.59-0.4,0.8c-0.22,0.18-0.69,0.27-1.39,0.27h-4.86c-1.28,0-1.91-0.36-1.91-1.09
			c0-0.25,0.07-0.45,0.2-0.6c0.13-0.15,0.42-0.35,0.87-0.6c1.35-0.74,2.02-2.09,2.02-4.06V8.63z M201.54,1.25l11.18,19.42v9.27
			h-5.74L192.71,5.35c-0.31-0.53-0.56-0.9-0.76-1.11c-0.2-0.21-0.45-0.36-0.76-0.46l-0.8-0.29c-0.21-0.07-0.38-0.2-0.5-0.38
			c-0.13-0.18-0.19-0.39-0.19-0.61c0-0.24,0.06-0.46,0.19-0.66c0.13-0.2,0.29-0.35,0.5-0.43c0.24-0.1,0.88-0.15,1.93-0.15H201.54z
			 M212.72,17.31l-2.23-3.76V7.73c0-1.18-0.17-2.08-0.51-2.7c-0.34-0.62-0.95-1.16-1.82-1.61c-0.29-0.14-0.5-0.29-0.61-0.45
			c-0.11-0.16-0.17-0.37-0.17-0.62c0-0.38,0.12-0.65,0.37-0.83c0.24-0.18,0.64-0.26,1.19-0.26h5.25c0.71,0,1.18,0.11,1.41,0.34
			c0.24,0.22,0.36,0.49,0.36,0.8c0,0.29-0.07,0.51-0.2,0.66c-0.13,0.15-0.45,0.35-0.96,0.6c-0.74,0.38-1.3,0.96-1.68,1.74
			c-0.27,0.57-0.4,1.35-0.4,2.33V17.31z"/>
	</g>
	<linearGradient id="SVGID_9_" gradientUnits="userSpaceOnUse" x1="34.2238" y1="33.9766" x2="256.2346" y2="35.5624">
		<stop  offset="0" style="stop-color:#253B8C"/>
		<stop  offset="1" style="stop-color:#4A80FA"/>
	</linearGradient>
	<line class="st8" x1="2" y1="34.5" x2="213" y2="34.5"/>
	<g>
		<linearGradient id="SVGID_10_" gradientUnits="userSpaceOnUse" x1="34.1775" y1="40.7715" x2="256.1883" y2="42.3573">
			<stop  offset="0" style="stop-color:#253B8C"/>
			<stop  offset="1" style="stop-color:#4A80FA"/>
		</linearGradient>
		<path class="st9" d="M2.64,37.71h1.01c0.49,0,0.84,0.12,1.06,0.37c0.22,0.25,0.33,0.64,0.33,1.18c0,0.76-0.22,1.24-0.67,1.46
			c-0.22,0.1-0.55,0.15-0.97,0.15v2.52H2.64V37.71z M3.41,40.21c0.32,0,0.53-0.06,0.65-0.19c0.12-0.13,0.18-0.36,0.18-0.69
			c0-0.34-0.06-0.59-0.18-0.74c-0.12-0.16-0.3-0.24-0.56-0.24H3.41V40.21z"/>
		<linearGradient id="SVGID_11_" gradientUnits="userSpaceOnUse" x1="34.1714" y1="41.6324" x2="256.1822" y2="43.2181">
			<stop  offset="0" style="stop-color:#253B8C"/>
			<stop  offset="1" style="stop-color:#4A80FA"/>
		</linearGradient>
		<path class="st10" d="M6.79,39.58h0.7v0.47c0.12-0.2,0.24-0.34,0.36-0.42c0.12-0.08,0.27-0.13,0.47-0.14v0.74
			c-0.05-0.01-0.09-0.01-0.13-0.01c-0.25,0-0.43,0.06-0.54,0.19c-0.11,0.13-0.16,0.35-0.16,0.67v2.31h-0.7V39.58z"/>
		<linearGradient id="SVGID_12_" gradientUnits="userSpaceOnUse" x1="34.1713" y1="41.6495" x2="256.182" y2="43.2353">
			<stop  offset="0" style="stop-color:#253B8C"/>
			<stop  offset="1" style="stop-color:#4A80FA"/>
		</linearGradient>
		<path class="st11" d="M12.27,41.52c0,1.29-0.4,1.93-1.2,1.93c-0.8,0-1.2-0.65-1.2-1.96c0-1.31,0.4-1.97,1.19-1.97
			c0.21,0,0.38,0.04,0.54,0.12c0.15,0.08,0.28,0.2,0.37,0.36c0.1,0.16,0.17,0.37,0.22,0.62C12.24,40.87,12.27,41.17,12.27,41.52z
			 M11.54,41.5c0-0.5-0.03-0.85-0.1-1.05c-0.07-0.2-0.18-0.3-0.35-0.3c-0.17,0-0.29,0.1-0.36,0.29c-0.07,0.2-0.1,0.54-0.1,1.03
			c0,0.49,0.03,0.83,0.1,1.02c0.07,0.2,0.19,0.29,0.36,0.29c0.17,0,0.28-0.1,0.35-0.29C11.51,42.32,11.54,41.99,11.54,41.5z"/>
		<linearGradient id="SVGID_13_" gradientUnits="userSpaceOnUse" x1="34.18" y1="40.4269" x2="256.1908" y2="42.0127">
			<stop  offset="0" style="stop-color:#253B8C"/>
			<stop  offset="1" style="stop-color:#4A80FA"/>
		</linearGradient>
		<path class="st12" d="M16.3,37.14v6.25h-0.7V42.9c-0.1,0.21-0.2,0.35-0.3,0.43c-0.1,0.08-0.23,0.12-0.4,0.12
			c-0.31,0-0.54-0.16-0.69-0.48c-0.15-0.32-0.22-0.83-0.22-1.52c0-0.33,0.02-0.62,0.06-0.86c0.04-0.24,0.09-0.44,0.17-0.6
			c0.07-0.16,0.17-0.27,0.29-0.35c0.12-0.07,0.26-0.11,0.42-0.11c0.15,0,0.28,0.04,0.38,0.11c0.05,0.03,0.1,0.08,0.15,0.15
			c0.05,0.06,0.1,0.14,0.15,0.24v-2.87H16.3z M14.71,41.47c0,0.5,0.03,0.85,0.1,1.05c0.07,0.2,0.19,0.3,0.36,0.3
			c0.16,0,0.27-0.1,0.34-0.31c0.07-0.22,0.11-0.56,0.11-1.02c0-0.46-0.04-0.8-0.11-1.02c-0.07-0.21-0.19-0.31-0.34-0.31
			c-0.17,0-0.29,0.1-0.36,0.29C14.74,40.63,14.71,40.97,14.71,41.47z"/>
		<linearGradient id="SVGID_14_" gradientUnits="userSpaceOnUse" x1="34.1715" y1="41.6172" x2="256.1823" y2="43.203">
			<stop  offset="0" style="stop-color:#253B8C"/>
			<stop  offset="1" style="stop-color:#4A80FA"/>
		</linearGradient>
		<path class="st13" d="M18.29,39.58H19v2.55c0,0.24,0.04,0.4,0.1,0.5c0.06,0.1,0.17,0.15,0.33,0.15c0.16,0,0.27-0.04,0.33-0.13
			c0.06-0.09,0.1-0.26,0.1-0.49v-0.31v-2.28h0.7v2.28c0,0.53-0.04,0.89-0.12,1.07c-0.16,0.35-0.51,0.52-1.02,0.52
			c-0.41,0-0.7-0.1-0.87-0.31c-0.17-0.21-0.26-0.56-0.26-1.04V39.58z"/>
		<linearGradient id="SVGID_15_" gradientUnits="userSpaceOnUse" x1="34.1719" y1="41.5604" x2="256.1827" y2="43.1462">
			<stop  offset="0" style="stop-color:#253B8C"/>
			<stop  offset="1" style="stop-color:#4A80FA"/>
		</linearGradient>
		<path class="st14" d="M24.11,39.66v0.72c-0.1-0.12-0.22-0.18-0.35-0.18c-0.39,0-0.58,0.42-0.58,1.26c0,0.89,0.19,1.34,0.58,1.34
			c0.11,0,0.23-0.05,0.36-0.14v0.66c-0.19,0.1-0.38,0.15-0.57,0.15c-0.76,0-1.13-0.64-1.13-1.93c0-0.68,0.09-1.19,0.28-1.51
			c0.19-0.33,0.48-0.49,0.87-0.49C23.75,39.52,23.93,39.57,24.11,39.66z"/>
		<linearGradient id="SVGID_16_" gradientUnits="userSpaceOnUse" x1="34.1758" y1="41.0088" x2="256.1866" y2="42.5946">
			<stop  offset="0" style="stop-color:#253B8C"/>
			<stop  offset="1" style="stop-color:#4A80FA"/>
		</linearGradient>
		<path class="st15" d="M25.99,38.52h0.7v1.07h0.38v0.56h-0.38v3.25h-0.7v-3.25H25.6v-0.56h0.39V38.52z"/>
		<linearGradient id="SVGID_17_" gradientUnits="userSpaceOnUse" x1="34.1722" y1="41.5157" x2="256.183" y2="43.1014">
			<stop  offset="0" style="stop-color:#253B8C"/>
			<stop  offset="1" style="stop-color:#4A80FA"/>
		</linearGradient>
		<path class="st16" d="M31.01,41.52c0,1.29-0.4,1.93-1.2,1.93c-0.8,0-1.2-0.65-1.2-1.96c0-1.31,0.4-1.97,1.19-1.97
			c0.21,0,0.38,0.04,0.54,0.12c0.15,0.08,0.28,0.2,0.37,0.36c0.1,0.16,0.17,0.37,0.22,0.62C30.99,40.87,31.01,41.17,31.01,41.52z
			 M30.28,41.5c0-0.5-0.03-0.85-0.1-1.05c-0.07-0.2-0.18-0.3-0.35-0.3c-0.17,0-0.29,0.1-0.36,0.29c-0.07,0.2-0.1,0.54-0.1,1.03
			c0,0.49,0.03,0.83,0.1,1.02c0.07,0.2,0.19,0.29,0.36,0.29s0.28-0.1,0.35-0.29C30.25,42.32,30.28,41.99,30.28,41.5z"/>
		<linearGradient id="SVGID_18_" gradientUnits="userSpaceOnUse" x1="34.1725" y1="41.476" x2="256.1833" y2="43.0617">
			<stop  offset="0" style="stop-color:#253B8C"/>
			<stop  offset="1" style="stop-color:#4A80FA"/>
		</linearGradient>
		<path class="st17" d="M34.33,39.66v0.66c-0.17-0.13-0.35-0.19-0.54-0.19c-0.06,0-0.12,0.01-0.18,0.03
			c-0.05,0.02-0.1,0.05-0.14,0.09c-0.04,0.04-0.07,0.08-0.1,0.14c-0.02,0.05-0.03,0.11-0.03,0.17c0,0.18,0.16,0.4,0.49,0.65
			c0.13,0.1,0.24,0.2,0.33,0.29c0.09,0.09,0.16,0.17,0.2,0.25c0.1,0.15,0.14,0.35,0.14,0.58c0,0.34-0.1,0.61-0.3,0.82
			c-0.2,0.2-0.46,0.3-0.79,0.3c-0.2,0-0.41-0.06-0.62-0.18v-0.68c0.2,0.15,0.4,0.23,0.58,0.23c0.32,0,0.48-0.16,0.48-0.47
			c0-0.12-0.03-0.22-0.09-0.31c-0.03-0.04-0.07-0.09-0.13-0.15c-0.06-0.06-0.13-0.12-0.22-0.19c-0.3-0.23-0.5-0.42-0.6-0.58
			c-0.1-0.16-0.15-0.36-0.15-0.58c0-0.31,0.09-0.56,0.28-0.75c0.19-0.19,0.44-0.29,0.75-0.29C33.92,39.49,34.13,39.55,34.33,39.66z"
			/>
		<linearGradient id="SVGID_19_" gradientUnits="userSpaceOnUse" x1="34.1674" y1="42.1954" x2="256.1781" y2="43.7811">
			<stop  offset="0" style="stop-color:#253B8C"/>
			<stop  offset="1" style="stop-color:#4A80FA"/>
		</linearGradient>
		<path class="st18" d="M39.03,44.95v-5.37h0.7v0.49c0.1-0.21,0.2-0.35,0.3-0.43c0.1-0.08,0.24-0.12,0.4-0.12
			c0.31,0,0.54,0.16,0.69,0.49c0.15,0.33,0.22,0.83,0.22,1.53c0,0.68-0.07,1.16-0.22,1.46c-0.15,0.3-0.38,0.46-0.71,0.46
			c-0.16,0-0.29-0.04-0.39-0.11c-0.05-0.03-0.1-0.08-0.15-0.15c-0.05-0.06-0.1-0.14-0.15-0.23v1.99H39.03z M40.62,41.5
			c0-0.52-0.03-0.87-0.1-1.05c-0.07-0.2-0.19-0.3-0.36-0.3c-0.16,0-0.28,0.1-0.35,0.31c-0.07,0.19-0.1,0.53-0.1,1.02
			c0,0.49,0.03,0.83,0.1,1.02c0.07,0.2,0.19,0.3,0.35,0.3c0.17,0,0.29-0.1,0.36-0.29C40.59,42.34,40.62,42,40.62,41.5z"/>
		<linearGradient id="SVGID_20_" gradientUnits="userSpaceOnUse" x1="34.1732" y1="41.3722" x2="256.184" y2="42.958">
			<stop  offset="0" style="stop-color:#253B8C"/>
			<stop  offset="1" style="stop-color:#4A80FA"/>
		</linearGradient>
		<path class="st19" d="M43.21,39.58h0.7v0.47c0.12-0.2,0.24-0.34,0.36-0.42c0.12-0.08,0.27-0.13,0.47-0.14v0.74
			c-0.05-0.01-0.09-0.01-0.13-0.01c-0.25,0-0.43,0.06-0.54,0.19c-0.11,0.13-0.16,0.35-0.16,0.67v2.31h-0.7V39.58z"/>
		<linearGradient id="SVGID_21_" gradientUnits="userSpaceOnUse" x1="34.1731" y1="41.3894" x2="256.1839" y2="42.9752">
			<stop  offset="0" style="stop-color:#253B8C"/>
			<stop  offset="1" style="stop-color:#4A80FA"/>
		</linearGradient>
		<path class="st20" d="M48.69,41.52c0,1.29-0.4,1.93-1.2,1.93c-0.8,0-1.2-0.65-1.2-1.96c0-1.31,0.4-1.97,1.19-1.97
			c0.21,0,0.38,0.04,0.54,0.12c0.15,0.08,0.28,0.2,0.37,0.36c0.1,0.16,0.17,0.37,0.22,0.62C48.66,40.87,48.69,41.17,48.69,41.52z
			 M47.96,41.5c0-0.5-0.03-0.85-0.1-1.05c-0.07-0.2-0.18-0.3-0.35-0.3c-0.17,0-0.29,0.1-0.36,0.29c-0.07,0.2-0.1,0.54-0.1,1.03
			c0,0.49,0.03,0.83,0.1,1.02c0.07,0.2,0.19,0.29,0.36,0.29c0.17,0,0.28-0.1,0.35-0.29C47.92,42.32,47.96,41.99,47.96,41.5z"/>
		<linearGradient id="SVGID_22_" gradientUnits="userSpaceOnUse" x1="34.1823" y1="40.1074" x2="256.1931" y2="41.6932">
			<stop  offset="0" style="stop-color:#253B8C"/>
			<stop  offset="1" style="stop-color:#4A80FA"/>
		</linearGradient>
		<path class="st21" d="M50.27,39.58h0.35v-1.33c0-0.43,0.06-0.74,0.19-0.92c0.13-0.18,0.35-0.27,0.67-0.27
			c0.14,0,0.3,0.03,0.48,0.1v0.74c-0.11-0.06-0.21-0.09-0.3-0.09c-0.12,0-0.21,0.04-0.26,0.11c-0.05,0.07-0.08,0.19-0.08,0.36
			l0,0.29v1.01h0.6v0.56h-0.6v3.25h-0.7v-3.25h-0.35V39.58z"/>
		<linearGradient id="SVGID_23_" gradientUnits="userSpaceOnUse" x1="34.1735" y1="41.3385" x2="256.1843" y2="42.9243">
			<stop  offset="0" style="stop-color:#253B8C"/>
			<stop  offset="1" style="stop-color:#4A80FA"/>
		</linearGradient>
		<path class="st22" d="M55.07,42.11h0.65c-0.05,0.9-0.42,1.34-1.1,1.34c-0.2,0-0.38-0.04-0.52-0.11c-0.15-0.08-0.27-0.19-0.36-0.35
			c-0.1-0.16-0.17-0.36-0.21-0.61c-0.05-0.25-0.07-0.54-0.07-0.88c0-0.67,0.09-1.17,0.28-1.49c0.19-0.32,0.48-0.49,0.87-0.49
			c0.76,0,1.14,0.67,1.14,2.02v0.09h-1.61c0,0.81,0.16,1.22,0.49,1.22C54.92,42.85,55.07,42.6,55.07,42.11z M55.03,41.12
			c-0.03-0.4-0.07-0.66-0.14-0.79c-0.06-0.14-0.17-0.21-0.31-0.21c-0.14,0-0.25,0.07-0.31,0.21c-0.06,0.13-0.11,0.39-0.14,0.79
			H55.03z"/>
		<linearGradient id="SVGID_24_" gradientUnits="userSpaceOnUse" x1="34.1738" y1="41.2995" x2="256.1845" y2="42.8853">
			<stop  offset="0" style="stop-color:#253B8C"/>
			<stop  offset="1" style="stop-color:#4A80FA"/>
		</linearGradient>
		<path class="st23" d="M59.04,39.66v0.66c-0.17-0.13-0.35-0.19-0.54-0.19c-0.06,0-0.12,0.01-0.18,0.03
			c-0.05,0.02-0.1,0.05-0.14,0.09c-0.04,0.04-0.07,0.08-0.1,0.14c-0.02,0.05-0.03,0.11-0.03,0.17c0,0.18,0.16,0.4,0.49,0.65
			c0.13,0.1,0.24,0.2,0.33,0.29c0.09,0.09,0.16,0.17,0.2,0.25c0.1,0.15,0.14,0.35,0.14,0.58c0,0.34-0.1,0.61-0.3,0.82
			c-0.2,0.2-0.46,0.3-0.79,0.3c-0.2,0-0.41-0.06-0.62-0.18v-0.68c0.2,0.15,0.4,0.23,0.58,0.23c0.32,0,0.48-0.16,0.48-0.47
			c0-0.12-0.03-0.22-0.09-0.31c-0.03-0.04-0.07-0.09-0.13-0.15c-0.06-0.06-0.13-0.12-0.22-0.19c-0.3-0.23-0.5-0.42-0.6-0.58
			c-0.1-0.16-0.15-0.36-0.15-0.58c0-0.31,0.09-0.56,0.28-0.75c0.19-0.19,0.44-0.29,0.75-0.29C58.63,39.49,58.84,39.55,59.04,39.66z"
			/>
		<linearGradient id="SVGID_25_" gradientUnits="userSpaceOnUse" x1="34.1796" y1="40.4842" x2="256.1904" y2="42.07">
			<stop  offset="0" style="stop-color:#253B8C"/>
			<stop  offset="1" style="stop-color:#4A80FA"/>
		</linearGradient>
		<path class="st24" d="M61.31,37.96c0.13,0,0.24,0.05,0.33,0.14c0.09,0.09,0.14,0.2,0.14,0.33c0,0.13-0.05,0.25-0.14,0.34
			c-0.09,0.09-0.21,0.14-0.34,0.14c-0.13,0-0.25-0.05-0.34-0.14c-0.09-0.09-0.14-0.2-0.14-0.34c0-0.13,0.05-0.24,0.14-0.33
			C61.07,38.01,61.19,37.96,61.31,37.96z M60.98,39.58h0.71v3.81h-0.71V39.58z"/>
		<linearGradient id="SVGID_26_" gradientUnits="userSpaceOnUse" x1="34.174" y1="41.2663" x2="256.1848" y2="42.852">
			<stop  offset="0" style="stop-color:#253B8C"/>
			<stop  offset="1" style="stop-color:#4A80FA"/>
		</linearGradient>
		<path class="st25" d="M65.93,41.52c0,1.29-0.4,1.93-1.2,1.93c-0.8,0-1.2-0.65-1.2-1.96c0-1.31,0.4-1.97,1.19-1.97
			c0.21,0,0.38,0.04,0.54,0.12s0.28,0.2,0.37,0.36c0.1,0.16,0.17,0.37,0.22,0.62C65.9,40.87,65.93,41.17,65.93,41.52z M65.2,41.5
			c0-0.5-0.03-0.85-0.1-1.05c-0.07-0.2-0.18-0.3-0.35-0.3c-0.17,0-0.29,0.1-0.36,0.29c-0.07,0.2-0.1,0.54-0.1,1.03
			c0,0.49,0.03,0.83,0.1,1.02c0.07,0.2,0.19,0.29,0.36,0.29c0.17,0,0.28-0.1,0.35-0.29C65.16,42.32,65.2,41.99,65.2,41.5z"/>
		<linearGradient id="SVGID_27_" gradientUnits="userSpaceOnUse" x1="34.1744" y1="41.2097" x2="256.1852" y2="42.7955">
			<stop  offset="0" style="stop-color:#253B8C"/>
			<stop  offset="1" style="stop-color:#4A80FA"/>
		</linearGradient>
		<path class="st26" d="M67.78,39.58h0.7v0.44c0.2-0.33,0.46-0.5,0.78-0.5c0.31,0,0.53,0.12,0.66,0.36c0.07,0.14,0.11,0.4,0.11,0.8
			v2.71h-0.7l0-2.55c0-0.26-0.03-0.44-0.09-0.55c-0.06-0.11-0.17-0.16-0.32-0.16c-0.08,0-0.15,0.01-0.2,0.04
			c-0.06,0.03-0.1,0.07-0.13,0.14c-0.03,0.06-0.06,0.14-0.08,0.24c-0.02,0.1-0.02,0.22-0.02,0.37v2.46h-0.7V39.58z"/>
		<linearGradient id="SVGID_28_" gradientUnits="userSpaceOnUse" x1="34.1744" y1="41.2086" x2="256.1852" y2="42.7944">
			<stop  offset="0" style="stop-color:#253B8C"/>
			<stop  offset="1" style="stop-color:#4A80FA"/>
		</linearGradient>
		<path class="st27" d="M74.2,39.58v3.81h-0.7V42.9c-0.1,0.21-0.2,0.35-0.3,0.43c-0.1,0.08-0.23,0.12-0.4,0.12
			c-0.32,0-0.55-0.16-0.7-0.49c-0.15-0.32-0.22-0.83-0.22-1.52c0-0.66,0.07-1.14,0.22-1.46c0.15-0.31,0.38-0.47,0.7-0.47
			c0.29,0,0.52,0.16,0.7,0.49v-0.43H74.2z M72.61,41.47c0,0.5,0.03,0.85,0.1,1.05c0.07,0.2,0.19,0.3,0.36,0.3
			c0.16,0,0.27-0.1,0.34-0.31c0.07-0.22,0.11-0.56,0.11-1.02c0-0.46-0.04-0.8-0.11-1.02c-0.07-0.21-0.19-0.31-0.34-0.31
			c-0.17,0-0.29,0.1-0.36,0.29C72.65,40.63,72.61,40.97,72.61,41.47z"/>
		<linearGradient id="SVGID_29_" gradientUnits="userSpaceOnUse" x1="34.1833" y1="39.9621" x2="256.1941" y2="41.5479">
			<stop  offset="0" style="stop-color:#253B8C"/>
			<stop  offset="1" style="stop-color:#4A80FA"/>
		</linearGradient>
		<path class="st28" d="M76.2,37.14h0.7v6.25h-0.7V37.14z"/>
		<linearGradient id="SVGID_30_" gradientUnits="userSpaceOnUse" x1="34.1748" y1="41.1578" x2="256.1855" y2="42.7436">
			<stop  offset="0" style="stop-color:#253B8C"/>
			<stop  offset="1" style="stop-color:#4A80FA"/>
		</linearGradient>
		<path class="st29" d="M80.37,42.11h0.65c-0.05,0.9-0.42,1.34-1.1,1.34c-0.2,0-0.38-0.04-0.52-0.11c-0.15-0.08-0.27-0.19-0.36-0.35
			c-0.1-0.16-0.17-0.36-0.21-0.61c-0.05-0.25-0.07-0.54-0.07-0.88c0-0.67,0.09-1.17,0.28-1.49c0.19-0.32,0.48-0.49,0.87-0.49
			c0.76,0,1.14,0.67,1.14,2.02v0.09h-1.61c0,0.81,0.16,1.22,0.49,1.22C80.23,42.85,80.37,42.6,80.37,42.11z M80.34,41.12
			c-0.03-0.4-0.07-0.66-0.14-0.79c-0.06-0.14-0.17-0.21-0.31-0.21c-0.14,0-0.25,0.07-0.31,0.21c-0.06,0.13-0.11,0.39-0.14,0.79
			H80.34z"/>
		<linearGradient id="SVGID_31_" gradientUnits="userSpaceOnUse" x1="34.175" y1="41.1187" x2="256.1858" y2="42.7045">
			<stop  offset="0" style="stop-color:#253B8C"/>
			<stop  offset="1" style="stop-color:#4A80FA"/>
		</linearGradient>
		<path class="st30" d="M84.35,39.66v0.66c-0.17-0.13-0.35-0.19-0.54-0.19c-0.06,0-0.12,0.01-0.18,0.03
			c-0.05,0.02-0.1,0.05-0.14,0.09c-0.04,0.04-0.07,0.08-0.1,0.14c-0.02,0.05-0.03,0.11-0.03,0.17c0,0.18,0.16,0.4,0.49,0.65
			c0.13,0.1,0.24,0.2,0.33,0.29c0.09,0.09,0.16,0.17,0.2,0.25c0.1,0.15,0.14,0.35,0.14,0.58c0,0.34-0.1,0.61-0.3,0.82
			c-0.2,0.2-0.46,0.3-0.79,0.3c-0.2,0-0.41-0.06-0.62-0.18v-0.68c0.2,0.15,0.4,0.23,0.58,0.23c0.32,0,0.48-0.16,0.48-0.47
			c0-0.12-0.03-0.22-0.09-0.31c-0.03-0.04-0.07-0.09-0.13-0.15c-0.06-0.06-0.13-0.12-0.22-0.19c-0.3-0.23-0.5-0.42-0.6-0.58
			c-0.1-0.16-0.15-0.36-0.15-0.58c0-0.31,0.09-0.56,0.28-0.75c0.19-0.19,0.44-0.29,0.75-0.29C83.94,39.49,84.15,39.55,84.35,39.66z"
			/>
		<linearGradient id="SVGID_32_" gradientUnits="userSpaceOnUse" x1="34.1699" y1="41.8381" x2="256.1807" y2="43.4239">
			<stop  offset="0" style="stop-color:#253B8C"/>
			<stop  offset="1" style="stop-color:#4A80FA"/>
		</linearGradient>
		<path class="st31" d="M89.05,44.95v-5.37h0.7v0.49c0.1-0.21,0.2-0.35,0.3-0.43c0.1-0.08,0.24-0.12,0.4-0.12
			c0.31,0,0.54,0.16,0.69,0.49c0.15,0.33,0.22,0.83,0.22,1.53c0,0.68-0.07,1.16-0.22,1.46c-0.15,0.3-0.38,0.46-0.71,0.46
			c-0.16,0-0.29-0.04-0.39-0.11c-0.05-0.03-0.1-0.08-0.15-0.15c-0.05-0.06-0.1-0.14-0.15-0.23v1.99H89.05z M90.64,41.5
			c0-0.52-0.03-0.87-0.1-1.05c-0.07-0.2-0.19-0.3-0.36-0.3c-0.16,0-0.28,0.1-0.35,0.31c-0.07,0.19-0.1,0.53-0.1,1.02
			c0,0.49,0.03,0.83,0.1,1.02c0.07,0.2,0.19,0.3,0.35,0.3c0.17,0,0.29-0.1,0.36-0.29C90.6,42.34,90.64,42,90.64,41.5z"/>
		<linearGradient id="SVGID_33_" gradientUnits="userSpaceOnUse" x1="34.1755" y1="41.0572" x2="256.1863" y2="42.643">
			<stop  offset="0" style="stop-color:#253B8C"/>
			<stop  offset="1" style="stop-color:#4A80FA"/>
		</linearGradient>
		<path class="st32" d="M95.39,39.58v3.81h-0.7V42.9c-0.1,0.21-0.2,0.35-0.3,0.43c-0.1,0.08-0.23,0.12-0.4,0.12
			c-0.32,0-0.55-0.16-0.7-0.49c-0.15-0.32-0.22-0.83-0.22-1.52c0-0.66,0.07-1.14,0.22-1.46c0.15-0.31,0.38-0.47,0.7-0.47
			c0.29,0,0.52,0.16,0.7,0.49v-0.43H95.39z M93.81,41.47c0,0.5,0.03,0.85,0.1,1.05c0.07,0.2,0.19,0.3,0.36,0.3
			c0.16,0,0.27-0.1,0.34-0.31c0.07-0.22,0.11-0.56,0.11-1.02c0-0.46-0.04-0.8-0.11-1.02c-0.07-0.21-0.19-0.31-0.34-0.31
			c-0.17,0-0.29,0.1-0.36,0.29C93.84,40.63,93.81,40.97,93.81,41.47z"/>
		<linearGradient id="SVGID_34_" gradientUnits="userSpaceOnUse" x1="34.176" y1="40.9852" x2="256.1868" y2="42.571">
			<stop  offset="0" style="stop-color:#253B8C"/>
			<stop  offset="1" style="stop-color:#4A80FA"/>
		</linearGradient>
		<path class="st33" d="M97.39,39.58h0.7v0.47c0.12-0.2,0.24-0.34,0.36-0.42c0.12-0.08,0.27-0.13,0.47-0.14v0.74
			c-0.05-0.01-0.09-0.01-0.13-0.01c-0.25,0-0.43,0.06-0.54,0.19c-0.11,0.13-0.16,0.35-0.16,0.67v2.31h-0.7V39.58z"/>
		<linearGradient id="SVGID_35_" gradientUnits="userSpaceOnUse" x1="34.1759" y1="41.0042" x2="256.1866" y2="42.59">
			<stop  offset="0" style="stop-color:#253B8C"/>
			<stop  offset="1" style="stop-color:#4A80FA"/>
		</linearGradient>
		<path class="st34" d="M102.82,39.58v3.81h-0.7V42.9c-0.1,0.21-0.2,0.35-0.3,0.43c-0.1,0.08-0.23,0.12-0.4,0.12
			c-0.32,0-0.55-0.16-0.7-0.49c-0.15-0.32-0.22-0.83-0.22-1.52c0-0.66,0.07-1.14,0.22-1.46c0.15-0.31,0.38-0.47,0.7-0.47
			c0.29,0,0.52,0.16,0.7,0.49v-0.43H102.82z M101.23,41.47c0,0.5,0.03,0.85,0.1,1.05c0.07,0.2,0.19,0.3,0.36,0.3
			c0.16,0,0.27-0.1,0.34-0.31c0.07-0.22,0.11-0.56,0.11-1.02c0-0.46-0.04-0.8-0.11-1.02c-0.07-0.21-0.19-0.31-0.34-0.31
			c-0.17,0-0.29,0.1-0.36,0.29C101.27,40.63,101.23,40.97,101.23,41.47z"/>
		<linearGradient id="SVGID_36_" gradientUnits="userSpaceOnUse" x1="34.1762" y1="40.9547" x2="256.187" y2="42.5405">
			<stop  offset="0" style="stop-color:#253B8C"/>
			<stop  offset="1" style="stop-color:#4A80FA"/>
		</linearGradient>
		<path class="st35" d="M109.75,39.58v3.81h-0.7V42.9c-0.1,0.21-0.2,0.35-0.3,0.43c-0.1,0.08-0.23,0.12-0.4,0.12
			c-0.32,0-0.55-0.16-0.7-0.49s-0.22-0.83-0.22-1.52c0-0.66,0.07-1.14,0.22-1.46c0.15-0.31,0.38-0.47,0.7-0.47
			c0.29,0,0.52,0.16,0.7,0.49v-0.43H109.75z M108.16,41.47c0,0.5,0.03,0.85,0.1,1.05c0.07,0.2,0.19,0.3,0.36,0.3
			c0.16,0,0.27-0.1,0.34-0.31c0.07-0.22,0.11-0.56,0.11-1.02c0-0.46-0.04-0.8-0.11-1.02c-0.07-0.21-0.19-0.31-0.34-0.31
			c-0.17,0-0.29,0.1-0.36,0.29C108.2,40.63,108.16,40.97,108.16,41.47z"/>
		<linearGradient id="SVGID_37_" gradientUnits="userSpaceOnUse" x1="34.1765" y1="40.9125" x2="256.1873" y2="42.4983">
			<stop  offset="0" style="stop-color:#253B8C"/>
			<stop  offset="1" style="stop-color:#4A80FA"/>
		</linearGradient>
		<path class="st36" d="M113.22,39.66v0.66c-0.17-0.13-0.35-0.19-0.54-0.19c-0.06,0-0.12,0.01-0.18,0.03
			c-0.05,0.02-0.1,0.05-0.14,0.09c-0.04,0.04-0.07,0.08-0.1,0.14c-0.02,0.05-0.03,0.11-0.03,0.17c0,0.18,0.16,0.4,0.49,0.65
			c0.13,0.1,0.24,0.2,0.33,0.29c0.09,0.09,0.16,0.17,0.2,0.25c0.1,0.15,0.14,0.35,0.14,0.58c0,0.34-0.1,0.61-0.3,0.82
			c-0.2,0.2-0.46,0.3-0.79,0.3c-0.2,0-0.41-0.06-0.62-0.18v-0.68c0.2,0.15,0.4,0.23,0.58,0.23c0.32,0,0.48-0.16,0.48-0.47
			c0-0.12-0.03-0.22-0.09-0.31c-0.03-0.04-0.07-0.09-0.13-0.15c-0.06-0.06-0.13-0.12-0.22-0.19c-0.3-0.23-0.5-0.42-0.6-0.58
			c-0.1-0.16-0.15-0.36-0.15-0.58c0-0.31,0.09-0.56,0.28-0.75c0.19-0.19,0.44-0.29,0.75-0.29
			C112.81,39.49,113.02,39.55,113.22,39.66z"/>
		<linearGradient id="SVGID_38_" gradientUnits="userSpaceOnUse" x1="34.1766" y1="40.8988" x2="256.1874" y2="42.4846">
			<stop  offset="0" style="stop-color:#253B8C"/>
			<stop  offset="1" style="stop-color:#4A80FA"/>
		</linearGradient>
		<path class="st37" d="M116.63,42.11h0.65c-0.05,0.9-0.42,1.34-1.1,1.34c-0.2,0-0.38-0.04-0.52-0.11
			c-0.15-0.08-0.27-0.19-0.36-0.35c-0.1-0.16-0.17-0.36-0.21-0.61c-0.05-0.25-0.07-0.54-0.07-0.88c0-0.67,0.09-1.17,0.28-1.49
			c0.19-0.32,0.48-0.49,0.87-0.49c0.76,0,1.14,0.67,1.14,2.02v0.09h-1.61c0,0.81,0.16,1.22,0.49,1.22
			C116.49,42.85,116.63,42.6,116.63,42.11z M116.6,41.12c-0.03-0.4-0.07-0.66-0.14-0.79c-0.06-0.14-0.17-0.21-0.31-0.21
			c-0.14,0-0.25,0.07-0.31,0.21c-0.06,0.13-0.11,0.39-0.14,0.79H116.6z"/>
		<linearGradient id="SVGID_39_" gradientUnits="userSpaceOnUse" x1="34.1768" y1="40.8701" x2="256.1876" y2="42.4559">
			<stop  offset="0" style="stop-color:#253B8C"/>
			<stop  offset="1" style="stop-color:#4A80FA"/>
		</linearGradient>
		<path class="st38" d="M121.39,41.52c0,1.29-0.4,1.93-1.2,1.93c-0.8,0-1.2-0.65-1.2-1.96c0-1.31,0.4-1.97,1.19-1.97
			c0.21,0,0.38,0.04,0.54,0.12c0.15,0.08,0.28,0.2,0.37,0.36c0.1,0.16,0.17,0.37,0.22,0.62C121.36,40.87,121.39,41.17,121.39,41.52z
			 M120.66,41.5c0-0.5-0.03-0.85-0.1-1.05c-0.07-0.2-0.18-0.3-0.35-0.3c-0.17,0-0.29,0.1-0.36,0.29c-0.07,0.2-0.1,0.54-0.1,1.03
			c0,0.49,0.03,0.83,0.1,1.02c0.07,0.2,0.19,0.29,0.36,0.29c0.17,0,0.28-0.1,0.35-0.29C120.62,42.32,120.66,41.99,120.66,41.5z"/>
		<linearGradient id="SVGID_40_" gradientUnits="userSpaceOnUse" x1="34.1838" y1="39.8911" x2="256.1946" y2="41.4769">
			<stop  offset="0" style="stop-color:#253B8C"/>
			<stop  offset="1" style="stop-color:#4A80FA"/>
		</linearGradient>
		<path class="st39" d="M126.04,37.71h0.77v5.68h-0.77V37.71z"/>
		<linearGradient id="SVGID_41_" gradientUnits="userSpaceOnUse" x1="34.1775" y1="40.7736" x2="256.1883" y2="42.3594">
			<stop  offset="0" style="stop-color:#253B8C"/>
			<stop  offset="1" style="stop-color:#4A80FA"/>
		</linearGradient>
		<path class="st40" d="M128.84,39.58h0.7v0.44c0.2-0.33,0.46-0.5,0.78-0.5c0.31,0,0.53,0.12,0.66,0.36c0.07,0.14,0.11,0.4,0.11,0.8
			v2.71h-0.7l0-2.55c0-0.26-0.03-0.44-0.09-0.55c-0.06-0.11-0.17-0.16-0.32-0.16c-0.08,0-0.15,0.01-0.2,0.04
			c-0.06,0.03-0.1,0.07-0.13,0.14c-0.03,0.06-0.06,0.14-0.08,0.24c-0.02,0.1-0.02,0.22-0.02,0.37v2.46h-0.7V39.58z"/>
		<linearGradient id="SVGID_42_" gradientUnits="userSpaceOnUse" x1="34.1861" y1="39.5772" x2="256.1968" y2="41.163">
			<stop  offset="0" style="stop-color:#253B8C"/>
			<stop  offset="1" style="stop-color:#4A80FA"/>
		</linearGradient>
		<path class="st41" d="M135.26,37.14v6.25h-0.7V42.9c-0.1,0.21-0.2,0.35-0.3,0.43c-0.1,0.08-0.23,0.12-0.4,0.12
			c-0.31,0-0.54-0.16-0.69-0.48c-0.15-0.32-0.22-0.83-0.22-1.52c0-0.33,0.02-0.62,0.06-0.86c0.04-0.24,0.09-0.44,0.17-0.6
			c0.07-0.16,0.17-0.27,0.29-0.35c0.12-0.07,0.26-0.11,0.42-0.11c0.15,0,0.28,0.04,0.38,0.11c0.05,0.03,0.1,0.08,0.15,0.15
			c0.05,0.06,0.1,0.14,0.15,0.24v-2.87H135.26z M133.67,41.47c0,0.5,0.03,0.85,0.1,1.05c0.07,0.2,0.19,0.3,0.36,0.3
			c0.16,0,0.27-0.1,0.34-0.31c0.07-0.22,0.11-0.56,0.11-1.02c0-0.46-0.04-0.8-0.11-1.02c-0.07-0.21-0.19-0.31-0.34-0.31
			c-0.17,0-0.29,0.1-0.36,0.29C133.71,40.63,133.67,40.97,133.67,41.47z"/>
		<linearGradient id="SVGID_43_" gradientUnits="userSpaceOnUse" x1="34.1776" y1="40.7675" x2="256.1883" y2="42.3532">
			<stop  offset="0" style="stop-color:#253B8C"/>
			<stop  offset="1" style="stop-color:#4A80FA"/>
		</linearGradient>
		<path class="st42" d="M137.26,39.58h0.7v2.55c0,0.24,0.04,0.4,0.1,0.5c0.06,0.1,0.17,0.15,0.33,0.15c0.16,0,0.27-0.04,0.33-0.13
			c0.06-0.09,0.1-0.26,0.1-0.49v-0.31v-2.28h0.7v2.28c0,0.53-0.04,0.89-0.12,1.07c-0.16,0.35-0.51,0.52-1.02,0.52
			c-0.41,0-0.7-0.1-0.87-0.31c-0.17-0.21-0.26-0.56-0.26-1.04V39.58z"/>
		<linearGradient id="SVGID_44_" gradientUnits="userSpaceOnUse" x1="34.178" y1="40.6999" x2="256.1888" y2="42.2857">
			<stop  offset="0" style="stop-color:#253B8C"/>
			<stop  offset="1" style="stop-color:#4A80FA"/>
		</linearGradient>
		<path class="st43" d="M142.99,39.66v0.66c-0.17-0.13-0.35-0.19-0.54-0.19c-0.06,0-0.12,0.01-0.18,0.03
			c-0.05,0.02-0.1,0.05-0.14,0.09c-0.04,0.04-0.07,0.08-0.1,0.14c-0.02,0.05-0.03,0.11-0.03,0.17c0,0.18,0.16,0.4,0.49,0.65
			c0.13,0.1,0.24,0.2,0.33,0.29c0.09,0.09,0.16,0.17,0.2,0.25c0.1,0.15,0.14,0.35,0.14,0.58c0,0.34-0.1,0.61-0.3,0.82
			c-0.2,0.2-0.46,0.3-0.79,0.3c-0.2,0-0.41-0.06-0.62-0.18v-0.68c0.2,0.15,0.4,0.23,0.58,0.23c0.32,0,0.48-0.16,0.48-0.47
			c0-0.12-0.03-0.22-0.09-0.31c-0.03-0.04-0.07-0.09-0.13-0.15c-0.06-0.06-0.13-0.12-0.22-0.19c-0.3-0.23-0.5-0.42-0.6-0.58
			c-0.1-0.16-0.15-0.36-0.15-0.58c0-0.31,0.09-0.56,0.28-0.75c0.19-0.19,0.44-0.29,0.75-0.29
			C142.58,39.49,142.79,39.55,142.99,39.66z"/>
		<linearGradient id="SVGID_45_" gradientUnits="userSpaceOnUse" x1="34.1819" y1="40.1584" x2="256.1927" y2="41.7442">
			<stop  offset="0" style="stop-color:#253B8C"/>
			<stop  offset="1" style="stop-color:#4A80FA"/>
		</linearGradient>
		<path class="st44" d="M145.05,38.52h0.7v1.07h0.38v0.56h-0.38v3.25h-0.7v-3.25h-0.39v-0.56h0.39V38.52z"/>
		<linearGradient id="SVGID_46_" gradientUnits="userSpaceOnUse" x1="34.1786" y1="40.6249" x2="256.1894" y2="42.2107">
			<stop  offset="0" style="stop-color:#253B8C"/>
			<stop  offset="1" style="stop-color:#4A80FA"/>
		</linearGradient>
		<path class="st45" d="M147.84,39.58h0.7v0.47c0.12-0.2,0.24-0.34,0.36-0.42c0.12-0.08,0.27-0.13,0.47-0.14v0.74
			c-0.05-0.01-0.09-0.01-0.13-0.01c-0.25,0-0.43,0.06-0.54,0.19c-0.11,0.13-0.16,0.35-0.16,0.67v2.31h-0.7V39.58z"/>
		<linearGradient id="SVGID_47_" gradientUnits="userSpaceOnUse" x1="34.1842" y1="39.8408" x2="256.1949" y2="41.4266">
			<stop  offset="0" style="stop-color:#253B8C"/>
			<stop  offset="1" style="stop-color:#4A80FA"/>
		</linearGradient>
		<path class="st46" d="M151.4,37.96c0.13,0,0.24,0.05,0.33,0.14c0.09,0.09,0.14,0.2,0.14,0.33c0,0.13-0.05,0.25-0.14,0.34
			c-0.09,0.09-0.21,0.14-0.34,0.14c-0.13,0-0.25-0.05-0.34-0.14c-0.09-0.09-0.14-0.2-0.14-0.34c0-0.13,0.05-0.24,0.14-0.33
			C151.16,38.01,151.27,37.96,151.4,37.96z M151.07,39.58h0.71v3.81h-0.71V39.58z"/>
		<linearGradient id="SVGID_48_" gradientUnits="userSpaceOnUse" x1="34.1786" y1="40.6248" x2="256.1894" y2="42.2106">
			<stop  offset="0" style="stop-color:#253B8C"/>
			<stop  offset="1" style="stop-color:#4A80FA"/>
		</linearGradient>
		<path class="st47" d="M155.94,39.58v3.81h-0.7V42.9c-0.1,0.21-0.2,0.35-0.3,0.43c-0.1,0.08-0.23,0.12-0.4,0.12
			c-0.32,0-0.55-0.16-0.7-0.49c-0.15-0.32-0.22-0.83-0.22-1.52c0-0.66,0.07-1.14,0.22-1.46c0.15-0.31,0.38-0.47,0.7-0.47
			c0.29,0,0.52,0.16,0.7,0.49v-0.43H155.94z M154.35,41.47c0,0.5,0.03,0.85,0.1,1.05c0.07,0.2,0.19,0.3,0.36,0.3
			c0.16,0,0.27-0.1,0.34-0.31c0.07-0.22,0.11-0.56,0.11-1.02c0-0.46-0.04-0.8-0.11-1.02c-0.07-0.21-0.19-0.31-0.34-0.31
			c-0.17,0-0.29,0.1-0.36,0.29C154.38,40.63,154.35,40.97,154.35,41.47z"/>
		<linearGradient id="SVGID_49_" gradientUnits="userSpaceOnUse" x1="34.1875" y1="39.3783" x2="256.1983" y2="40.9641">
			<stop  offset="0" style="stop-color:#253B8C"/>
			<stop  offset="1" style="stop-color:#4A80FA"/>
		</linearGradient>
		<path class="st48" d="M157.93,37.14h0.7v6.25h-0.7V37.14z"/>
		<linearGradient id="SVGID_50_" gradientUnits="userSpaceOnUse" x1="34.1791" y1="40.5543" x2="256.1898" y2="42.1401">
			<stop  offset="0" style="stop-color:#253B8C"/>
			<stop  offset="1" style="stop-color:#4A80FA"/>
		</linearGradient>
		<path class="st49" d="M164.86,42.11h0.65c-0.05,0.9-0.42,1.34-1.1,1.34c-0.2,0-0.38-0.04-0.52-0.11
			c-0.15-0.08-0.27-0.19-0.36-0.35c-0.1-0.16-0.17-0.36-0.21-0.61c-0.05-0.25-0.07-0.54-0.07-0.88c0-0.67,0.09-1.17,0.28-1.49
			c0.19-0.32,0.48-0.49,0.87-0.49c0.76,0,1.14,0.67,1.14,2.02v0.09h-1.61c0,0.81,0.16,1.22,0.49,1.22
			C164.72,42.85,164.86,42.6,164.86,42.11z M164.83,41.12c-0.03-0.4-0.07-0.66-0.14-0.79c-0.06-0.14-0.17-0.21-0.31-0.21
			c-0.14,0-0.25,0.07-0.31,0.21c-0.06,0.13-0.11,0.39-0.14,0.79H164.83z"/>
		<linearGradient id="SVGID_51_" gradientUnits="userSpaceOnUse" x1="34.1861" y1="39.5759" x2="256.1968" y2="41.1617">
			<stop  offset="0" style="stop-color:#253B8C"/>
			<stop  offset="1" style="stop-color:#4A80FA"/>
		</linearGradient>
		<path class="st50" d="M170.17,37.71h0.77v5.68h-0.77V37.71z"/>
		<linearGradient id="SVGID_52_" gradientUnits="userSpaceOnUse" x1="34.1798" y1="40.4585" x2="256.1906" y2="42.0442">
			<stop  offset="0" style="stop-color:#253B8C"/>
			<stop  offset="1" style="stop-color:#4A80FA"/>
		</linearGradient>
		<path class="st51" d="M172.97,39.58h0.7v0.44c0.2-0.33,0.46-0.5,0.78-0.5c0.31,0,0.53,0.12,0.66,0.36c0.07,0.14,0.11,0.4,0.11,0.8
			v2.71h-0.7l0-2.55c0-0.26-0.03-0.44-0.09-0.55c-0.06-0.11-0.17-0.16-0.32-0.16c-0.08,0-0.15,0.01-0.2,0.04
			c-0.06,0.03-0.1,0.07-0.13,0.14c-0.03,0.06-0.06,0.14-0.08,0.24c-0.02,0.1-0.02,0.22-0.02,0.37v2.46h-0.7V39.58z"/>
		<linearGradient id="SVGID_53_" gradientUnits="userSpaceOnUse" x1="34.1799" y1="40.4449" x2="256.1906" y2="42.0307">
			<stop  offset="0" style="stop-color:#253B8C"/>
			<stop  offset="1" style="stop-color:#4A80FA"/>
		</linearGradient>
		<path class="st52" d="M178.69,39.66v0.66c-0.17-0.13-0.35-0.19-0.54-0.19c-0.06,0-0.12,0.01-0.18,0.03
			c-0.05,0.02-0.1,0.05-0.14,0.09c-0.04,0.04-0.07,0.08-0.1,0.14c-0.02,0.05-0.03,0.11-0.03,0.17c0,0.18,0.16,0.4,0.49,0.65
			c0.13,0.1,0.24,0.2,0.33,0.29c0.09,0.09,0.16,0.17,0.2,0.25c0.1,0.15,0.14,0.35,0.14,0.58c0,0.34-0.1,0.61-0.3,0.82
			c-0.2,0.2-0.46,0.3-0.79,0.3c-0.2,0-0.41-0.06-0.62-0.18v-0.68c0.2,0.15,0.4,0.23,0.58,0.23c0.32,0,0.48-0.16,0.48-0.47
			c0-0.12-0.03-0.22-0.09-0.31c-0.03-0.04-0.07-0.09-0.13-0.15c-0.06-0.06-0.13-0.12-0.22-0.19c-0.3-0.23-0.5-0.42-0.6-0.58
			c-0.1-0.16-0.15-0.36-0.15-0.58c0-0.31,0.09-0.56,0.28-0.75c0.19-0.19,0.44-0.29,0.75-0.29
			C178.27,39.49,178.48,39.55,178.69,39.66z"/>
		<linearGradient id="SVGID_54_" gradientUnits="userSpaceOnUse" x1="34.1837" y1="39.9034" x2="256.1945" y2="41.4892">
			<stop  offset="0" style="stop-color:#253B8C"/>
			<stop  offset="1" style="stop-color:#4A80FA"/>
		</linearGradient>
		<path class="st53" d="M180.75,38.52h0.7v1.07h0.38v0.56h-0.38v3.25h-0.7v-3.25h-0.39v-0.56h0.39V38.52z"/>
		<linearGradient id="SVGID_55_" gradientUnits="userSpaceOnUse" x1="34.1858" y1="39.6089" x2="256.1966" y2="41.1947">
			<stop  offset="0" style="stop-color:#253B8C"/>
			<stop  offset="1" style="stop-color:#4A80FA"/>
		</linearGradient>
		<path class="st54" d="M183.87,37.96c0.13,0,0.24,0.05,0.33,0.14c0.09,0.09,0.14,0.2,0.14,0.33c0,0.13-0.05,0.25-0.14,0.34
			c-0.09,0.09-0.21,0.14-0.34,0.14s-0.25-0.05-0.34-0.14c-0.09-0.09-0.14-0.2-0.14-0.34c0-0.13,0.05-0.24,0.14-0.33
			C183.63,38.01,183.74,37.96,183.87,37.96z M183.54,39.58h0.71v3.81h-0.71V39.58z"/>
		<linearGradient id="SVGID_56_" gradientUnits="userSpaceOnUse" x1="34.184" y1="39.8637" x2="256.1948" y2="41.4495">
			<stop  offset="0" style="stop-color:#253B8C"/>
			<stop  offset="1" style="stop-color:#4A80FA"/>
		</linearGradient>
		<path class="st55" d="M186.32,38.52h0.7v1.07h0.38v0.56h-0.38v3.25h-0.7v-3.25h-0.39v-0.56h0.39V38.52z"/>
		<linearGradient id="SVGID_57_" gradientUnits="userSpaceOnUse" x1="34.1802" y1="40.3971" x2="256.191" y2="41.9829">
			<stop  offset="0" style="stop-color:#253B8C"/>
			<stop  offset="1" style="stop-color:#4A80FA"/>
		</linearGradient>
		<path class="st56" d="M189.1,39.58h0.7v2.55c0,0.24,0.04,0.4,0.1,0.5c0.06,0.1,0.17,0.15,0.33,0.15c0.16,0,0.27-0.04,0.33-0.13
			c0.06-0.09,0.1-0.26,0.1-0.49v-0.31v-2.28h0.7v2.28c0,0.53-0.04,0.89-0.12,1.07c-0.16,0.35-0.51,0.52-1.02,0.52
			c-0.41,0-0.7-0.1-0.87-0.31c-0.17-0.21-0.26-0.56-0.26-1.04V39.58z"/>
		<linearGradient id="SVGID_58_" gradientUnits="userSpaceOnUse" x1="34.1806" y1="40.3404" x2="256.1914" y2="41.9262">
			<stop  offset="0" style="stop-color:#253B8C"/>
			<stop  offset="1" style="stop-color:#4A80FA"/>
		</linearGradient>
		<path class="st57" d="M194.92,39.66v0.72c-0.1-0.12-0.22-0.18-0.35-0.18c-0.39,0-0.58,0.42-0.58,1.26c0,0.89,0.19,1.34,0.58,1.34
			c0.11,0,0.23-0.05,0.36-0.14v0.66c-0.19,0.1-0.38,0.15-0.57,0.15c-0.76,0-1.13-0.64-1.13-1.93c0-0.68,0.09-1.19,0.28-1.51
			c0.19-0.33,0.48-0.49,0.87-0.49C194.56,39.52,194.74,39.57,194.92,39.66z"/>
		<linearGradient id="SVGID_59_" gradientUnits="userSpaceOnUse" x1="34.1865" y1="39.5147" x2="256.1973" y2="41.1005">
			<stop  offset="0" style="stop-color:#253B8C"/>
			<stop  offset="1" style="stop-color:#4A80FA"/>
		</linearGradient>
		<path class="st58" d="M197.05,37.96c0.13,0,0.24,0.05,0.33,0.14c0.09,0.09,0.14,0.2,0.14,0.33c0,0.13-0.05,0.25-0.14,0.34
			c-0.09,0.09-0.21,0.14-0.34,0.14s-0.25-0.05-0.34-0.14c-0.09-0.09-0.14-0.2-0.14-0.34c0-0.13,0.05-0.24,0.14-0.33
			C196.81,38.01,196.92,37.96,197.05,37.96z M196.72,39.58h0.71v3.81h-0.71V39.58z"/>
		<linearGradient id="SVGID_60_" gradientUnits="userSpaceOnUse" x1="34.1809" y1="40.2968" x2="256.1917" y2="41.8826">
			<stop  offset="0" style="stop-color:#253B8C"/>
			<stop  offset="1" style="stop-color:#4A80FA"/>
		</linearGradient>
		<path class="st59" d="M201.66,41.52c0,1.29-0.4,1.93-1.2,1.93s-1.2-0.65-1.2-1.96c0-1.31,0.4-1.97,1.19-1.97
			c0.21,0,0.38,0.04,0.54,0.12c0.15,0.08,0.28,0.2,0.37,0.36c0.1,0.16,0.17,0.37,0.22,0.62C201.64,40.87,201.66,41.17,201.66,41.52z
			 M200.93,41.5c0-0.5-0.03-0.85-0.1-1.05c-0.07-0.2-0.18-0.3-0.35-0.3c-0.17,0-0.29,0.1-0.36,0.29c-0.07,0.2-0.1,0.54-0.1,1.03
			c0,0.49,0.03,0.83,0.1,1.02c0.07,0.2,0.19,0.29,0.36,0.29c0.17,0,0.28-0.1,0.35-0.29C200.9,42.32,200.93,41.99,200.93,41.5z"/>
		<linearGradient id="SVGID_61_" gradientUnits="userSpaceOnUse" x1="34.1813" y1="40.2403" x2="256.1921" y2="41.8261">
			<stop  offset="0" style="stop-color:#253B8C"/>
			<stop  offset="1" style="stop-color:#4A80FA"/>
		</linearGradient>
		<path class="st60" d="M203.51,39.58h0.7v0.44c0.2-0.33,0.46-0.5,0.78-0.5c0.31,0,0.53,0.12,0.66,0.36c0.07,0.14,0.11,0.4,0.11,0.8
			v2.71h-0.7l0-2.55c0-0.26-0.03-0.44-0.09-0.55c-0.06-0.11-0.17-0.16-0.32-0.16c-0.08,0-0.15,0.01-0.2,0.04
			c-0.06,0.03-0.1,0.07-0.13,0.14c-0.03,0.06-0.06,0.14-0.08,0.24c-0.02,0.1-0.02,0.22-0.02,0.37v2.46h-0.7V39.58z"/>
		<linearGradient id="SVGID_62_" gradientUnits="userSpaceOnUse" x1="34.1813" y1="40.2391" x2="256.1921" y2="41.8249">
			<stop  offset="0" style="stop-color:#253B8C"/>
			<stop  offset="1" style="stop-color:#4A80FA"/>
		</linearGradient>
		<path class="st61" d="M209.94,39.58v3.81h-0.7V42.9c-0.1,0.21-0.2,0.35-0.3,0.43c-0.1,0.08-0.23,0.12-0.4,0.12
			c-0.32,0-0.55-0.16-0.7-0.49c-0.15-0.32-0.22-0.83-0.22-1.52c0-0.66,0.07-1.14,0.22-1.46c0.15-0.31,0.38-0.47,0.7-0.47
			c0.29,0,0.52,0.16,0.7,0.49v-0.43H209.94z M208.35,41.47c0,0.5,0.03,0.85,0.1,1.05c0.07,0.2,0.19,0.3,0.36,0.3
			c0.16,0,0.27-0.1,0.34-0.31c0.07-0.22,0.11-0.56,0.11-1.02c0-0.46-0.04-0.8-0.11-1.02c-0.07-0.21-0.19-0.31-0.34-0.31
			c-0.17,0-0.29,0.1-0.36,0.29C208.38,40.63,208.35,40.97,208.35,41.47z"/>
		<linearGradient id="SVGID_63_" gradientUnits="userSpaceOnUse" x1="34.1902" y1="38.9926" x2="256.201" y2="40.5784">
			<stop  offset="0" style="stop-color:#253B8C"/>
			<stop  offset="1" style="stop-color:#4A80FA"/>
		</linearGradient>
		<path class="st62" d="M211.93,37.14h0.7v6.25h-0.7V37.14z"/>
	</g>
</g>
</svg>
