<?xml version="1.0" encoding="utf-8"?>
<!-- Generator: Adobe Illustrator 23.0.3, SVG Export Plug-In . SVG Version: 6.00 Build 0)  -->
<svg version="1.1" id="Capa_1" xmlns="http://www.w3.org/2000/svg" xmlns:xlink="http://www.w3.org/1999/xlink" x="0px" y="0px"
	 viewBox="0 0 76 77" style="enable-background:new 0 0 76 77;" xml:space="preserve">
<style type="text/css">
	.st0{fill:#FFFFFF;}
</style>
<path class="st0" d="M38.05,75.07C18.16,75.07,1.98,58.89,1.98,39c0-19.89,16.18-36.07,36.07-36.07S74.13,19.11,74.13,39
	C74.13,58.89,57.94,75.07,38.05,75.07z M50.22,24.37c-1.47,0-2.67,1.2-2.67,2.67c0,1.47,1.2,2.67,2.67,2.67s2.67-1.19,2.67-2.67
	C52.88,25.56,51.69,24.37,50.22,24.37z M38.35,27.79c-6.18,0-11.21,5.03-11.21,11.21s5.03,11.21,11.21,11.21
	c6.18,0,11.21-5.03,11.21-11.21S44.53,27.79,38.35,27.79z M38.35,46.18c-3.96,0-7.18-3.22-7.18-7.18s3.22-7.18,7.18-7.18
	c3.96,0,7.18,3.22,7.18,7.18S42.31,46.18,38.35,46.18z M60.97,29.68c0-7.55-6.12-13.68-13.68-13.68H29.25
	c-7.55,0-13.68,6.12-13.68,13.68v18.05c0,7.55,6.12,13.68,13.68,13.68H47.3c7.55,0,13.68-6.12,13.68-13.68V29.68z M56.69,47.73
	c0,5.19-4.21,9.39-9.39,9.39H29.25c-5.19,0-9.39-4.21-9.39-9.39V29.68c0-5.19,4.21-9.39,9.39-9.39H47.3c5.19,0,9.39,4.21,9.39,9.39
	V47.73z"/>
</svg>
