<?xml version="1.0" encoding="utf-8"?>
<!-- Generator: Adobe Illustrator 23.0.3, SVG Export Plug-In . SVG Version: 6.00 Build 0)  -->
<svg version="1.1" id="Capa_1" xmlns="http://www.w3.org/2000/svg" xmlns:xlink="http://www.w3.org/1999/xlink" x="0px" y="0px"
	 viewBox="0 0 155 141" style="enable-background:new 0 0 155 141;" xml:space="preserve">
<style type="text/css">
	.st0{fill:#848484;}
	.st1{fill:#EDCAC9;}
	.st2{fill:#5A3B32;}
	.st3{fill:#FFFFFF;}
	.st4{fill:#CBD6DF;}
	.st5{fill:#73483F;}
</style>
<path class="st0" d="M23.4,55.6c0,0-9-37.9,3.5-49.6c0,0,3.4-2.9,33.6,12.3"/>
<path class="st0" d="M128.9,55.6c0,0,9.6-37.7-2.7-49.7c0,0-3.4-2.9-33.8,11.7"/>
<path class="st1" d="M30.2,64.5c0,0-9-37.9,3.5-49.6c0,0,3.4-2.9,33.6,12.3"/>
<path class="st2" d="M28.9,64.8c-0.4-1.6-9.1-38.8,3.9-50.9c1.3-1.1,7.1-2,35.1,12l-1.2,2.4C41.3,15.5,35.4,15.8,34.5,16
	c-4.7,4.5-6.7,14.2-5.9,28c0.7,10.7,2.9,20.1,2.9,20.2L28.9,64.8z M34.4,16L34.4,16L34.4,16z"/>
<path class="st1" d="M123.2,64.5c0,0,9.6-37.7-2.7-49.7c0,0-3.4-2.9-33.8,11.7"/>
<path class="st2" d="M124.5,64.9l-2.6-0.7c0.1-0.4,9.2-36.7-2.2-48.2c-0.9-0.2-6.8-0.6-32.4,11.8l-1.2-2.4
	c28.2-13.6,34-12.6,35.2-11.5C134.2,26.2,124.9,63.3,124.5,64.9z M119.9,16L119.9,16L119.9,16z"/>
<path class="st2" d="M21.8,56c-0.4-1.6-9.1-39,4-51.3l0.1-0.1c2.7-2.3,15.3,2,35.4,12l-1.5,3C35.2,7.4,28.9,7.3,27.8,7.4
	c-4.6,4.6-6.5,14.1-5.7,27.7c0.7,10.7,2.9,20,2.9,20.1L21.8,56z M27.7,7.5L27.7,7.5L27.7,7.5z"/>
<path class="st2" d="M130.5,56l-3.3-0.8c0-0.1,2.4-9.5,3.2-20.1c1.1-13.5-0.8-23.1-5.3-27.7C124,7.3,117.7,7.2,93,19.2l-1.5-3
	c20.3-9.8,32.9-13.8,35.6-11.5l0.1,0.1C140.2,17.2,130.9,54.5,130.5,56z M125.4,7.4L125.4,7.4L125.4,7.4z"/>
<path class="st3" d="M130.5,68.9c0,25.9-29.5,40.4-56.4,40.4S20.8,93,22.9,67.2c2.4-29.3,24.4-51.5,52.7-51.5
	C102.6,15.7,130.5,36.9,130.5,68.9z"/>
<path class="st4" d="M56.8,19.2c0,0-67.2,56.2,8.5,89.6c0,0-48.1-6.6-42.5-44.8C22.8,64,27,29.2,56.8,19.2z"/>
<path class="st4" d="M96.6,19.2c0,0,67.2,56.2-8.5,89.6c0,0,48.1-6.6,42.5-44.8C130.6,64,126.4,29.2,96.6,19.2z"/>
<path class="st0" d="M73.3,15.9c0,0,3.3,45-47.7,37.8C25.6,53.7,38.9,12.2,73.3,15.9z"/>
<path class="st0" d="M80.8,17.3c0,0-3.3,45,47.7,37.8C128.5,55.1,115.2,13.6,80.8,17.3z"/>
<path class="st2" d="M22.9,77.4h-18c-0.9,0-1.7-0.8-1.7-1.7C3.2,74.8,4,74,4.9,74h18c0.9,0,1.7,0.8,1.7,1.7
	C24.6,76.6,23.8,77.4,22.9,77.4z"/>
<path class="st2" d="M25.2,85H12.3c-0.9,0-1.7-0.8-1.7-1.7c0-0.9,0.8-1.7,1.7-1.7h12.8c0.9,0,1.7,0.8,1.7,1.7
	C26.8,84.2,26.1,85,25.2,85z"/>
<path class="st2" d="M22.8,69.8H10c-0.9,0-1.7-0.8-1.7-1.7c0-0.9,0.8-1.7,1.7-1.7h12.8c0.9,0,1.7,0.8,1.7,1.7S23.8,69.8,22.8,69.8z"
	/>
<path class="st2" d="M149.4,77.4h-18c-0.9,0-1.7-0.8-1.7-1.7c0-0.9,0.8-1.7,1.7-1.7h18c0.9,0,1.7,0.8,1.7,1.7
	C151.1,76.6,150.4,77.4,149.4,77.4z"/>
<path class="st2" d="M142,85h-12.8c-0.9,0-1.7-0.8-1.7-1.7c0-0.9,0.8-1.7,1.7-1.7H142c0.9,0,1.7,0.8,1.7,1.7S142.9,85,142,85z"/>
<path class="st2" d="M144.3,69.8h-12.8c-0.9,0-1.7-0.8-1.7-1.7c0-0.9,0.8-1.7,1.7-1.7h12.8c0.9,0,1.7,0.8,1.7,1.7
	S145.3,69.8,144.3,69.8z"/>
<path class="st1" d="M76,80.3c1.3,0,2.6,0,3.9,0c0.9,0,1.5,0.3,1.8,0.8c0.2,0.3,0.1,0.7-0.2,1c-1.3,1.4-2.5,2.8-3.8,4.2
	c-0.1,0.1-0.2,0.3-0.4,0.4c-0.9,0.6-2.3,0.5-3-0.2c-1.3-1.4-2.6-2.9-3.9-4.3c-0.5-0.5-0.4-1,0.2-1.4c0.4-0.3,0.9-0.4,1.4-0.4
	C73.4,80.3,74.7,80.3,76,80.3z"/>
<path class="st2" d="M75.9,89c-1.2,0-2.4-0.4-3.2-1.3c-1.6-1.7-3.1-3.4-4.7-5.2c-0.6-0.7-0.9-1.4-0.8-2.2c0.1-0.8,0.5-1.5,1.2-2
	s1.6-0.8,2.7-0.8h3.3h2.8c1.1,0,2.2,0,3.3,0c1.7,0,3.1,0.7,3.6,1.9c0.5,1,0.3,2.1-0.5,3L79,87.5c-0.1,0.2-0.3,0.4-0.6,0.6
	C77.8,88.7,76.9,89,75.9,89z M71.2,80.9c1.4,1.5,2.7,3,4.1,4.5c0.2,0.2,0.9,0.3,1.3,0c0,0,0-0.1,0.1-0.1l0.1-0.1l3.9-4.3l0,0
	c-1.1,0-2.2,0-3.2,0h-2.8H71.2L71.2,80.9z"/>
<path class="st2" d="M67.1,94.1c-0.7,0-1.3-0.1-1.9-0.2C61,93,59.1,89.6,59,89.4c-0.4-0.8-0.1-1.8,0.7-2.3c0.8-0.4,1.8-0.1,2.3,0.7
	c0.1,0.1,1.3,2.3,4,2.8c2.5,0.5,5.6-0.6,9-3.3c0.7-0.6,1.8-0.4,2.4,0.3c0.6,0.7,0.4,1.8-0.3,2.4C73.4,92.7,70.1,94.1,67.1,94.1z"/>
<path class="st2" d="M84,94.1c-0.7,0-1.3-0.1-1.9-0.2c-4.2-0.9-6.1-4.3-6.2-4.5c-0.4-0.8-0.1-1.8,0.7-2.3c0.8-0.4,1.8-0.1,2.3,0.7
	c0.1,0.1,1.3,2.3,4,2.8c2.5,0.5,5.6-0.6,9-3.3c0.7-0.6,1.8-0.4,2.4,0.3c0.6,0.7,0.4,1.8-0.3,2.4C90.4,92.7,87.1,94.1,84,94.1z"/>
<path class="st2" d="M74.1,111c-17.3,0-33.6-6.4-43.4-17.1c-7-7.6-10.3-16.9-9.5-26.9c1.2-14.7,7.3-28.1,17.1-37.8
	C48.3,19.4,61.5,14,75.6,14c13.9,0,28.1,5.5,38.7,15c11.5,10.4,17.9,24.5,17.9,39.8C132.2,95.3,102.6,111,74.1,111z M75.6,17.4
	c-27.2,0-48.7,21-51.1,50c-0.7,9,2.2,17.4,8.6,24.3c9.1,9.9,24.8,16,41,16c26.9,0,54.8-14.5,54.8-38.7c0-14.4-6-27.6-16.8-37.3
	C102,22.5,88.7,17.4,75.6,17.4z"/>
<path class="st2" d="M58.5,69.8c3.2,2.4,6.8-2.3,3.7-4.8c-9.4-7.3-18.2-3-21.6,0.2c-2.9,2.8,1.3,7.1,4.2,4.3
	C45.1,69.3,50.9,63.8,58.5,69.8z"/>
<path class="st2" d="M110.9,65c-9.4-7.3-18.2-3-21.6,0.2c-2.9,2.8,1.3,7.1,4.2,4.3c0.2-0.2,6-5.7,13.7,0.2
	C110.4,72.2,114.1,67.5,110.9,65L110.9,65z"/>
<path class="st2" d="M51.6,77.6c-10.7,0-19.4-5.4-19.4-12s8.7-12,19.4-12S71,59,71,65.6S62.2,77.6,51.6,77.6z M51.6,55.5
	C41.9,55.5,34,60,34,65.6s7.9,10.2,17.5,10.2S69,71.2,69,65.6S61.2,55.5,51.6,55.5z"/>
<path class="st2" d="M100.3,78.4c-10.7,0-19.4-5.4-19.4-12s8.7-12,19.4-12s19.4,5.4,19.4,12S111,78.4,100.3,78.4z M100.3,56.2
	c-9.7,0-17.5,4.6-17.5,10.2s7.9,10.2,17.5,10.2s17.5-4.6,17.5-10.2S110,56.2,100.3,56.2z"/>
<path class="st2" d="M81.2,67.1c-4.5-4.3-10.7-0.7-10.8-0.6l-0.9-1.6c0.1,0,1.9-1.1,4.3-1.5c3.3-0.6,6.3,0.3,8.6,2.4L81.2,67.1z"/>
<rect x="117.2" y="61" transform="matrix(0.7771 -0.6294 0.6294 0.7771 -11.2741 91.9777)" class="st2" width="14.1" height="1.8"/>
<rect x="27.7" y="55.2" transform="matrix(0.5887 -0.8083 0.8083 0.5887 -37.3707 48.089)" class="st2" width="1.8" height="11.1"/>
<g>
	<path class="st5" d="M26.9,135.1v0.5v0.3l-0.1,0.4l-0.2,0.2l-0.2,0.1l-0.3,0.1h-0.2h-0.4l-3.4-0.2h-2.3l-2.7,0.2l-1.8-0.1H13
		l-1.4,0.1h-0.5h-0.4l-0.3-0.1l-0.2-0.1l-0.2-0.2l-0.1-0.4v-0.5l0.2-1.2v-0.5l-0.1-1.6v-0.5l0.1-1.6v-0.5l0.1-3.7v-0.5l-0.1-3.7
		v-0.5v-1.6v-2.6L10,116v-0.5v-0.3l0.1-0.4l0.1-0.2l0.2-0.1l0.3-0.1H11h0.5l1.5,0.1h0.5h2.2H16l0.2,0.1l0.2,0.2v2.6l0.1,1.8v0.5
		l-0.1,1.8v0.5l0.1,1.8v0.5l0.1,1.8v0.5l-0.2,4v0.3v0.2l0.1,0.2l0.2,0.1l0.4,0.1l1,0.1l0.9-0.1h0.5l4.4-0.1h0.5l1-0.1h0.5h0.5
		l0.4,0.1l0.2,0.2l0.1,0.2v0.3v1.7v0.5L26.9,135.1z"/>
	<path class="st5" d="M36.5,131.7v0.5l-0.1,1.6v0.5v1.7v0.3l-0.1,0.2l-0.2,0.1h-0.4h-1.6h-1.9l-1.5-0.1l-0.2-0.1l-0.1-0.1V136
		l-0.1-0.8v-0.5v-0.5v-0.5l-0.1-1.6v-0.5l0.1-1.6v-0.5l-0.1-1.7v-0.5v-1.6v-2.6v-1.7V121v-1.6v-2.6l-0.1-1.7l0.1-0.3l0.2-0.1h0.3
		h0.2h0.5h0.7h0.5l1.4-0.1h1.9l0.3,0.1l0.1,0.2v0.3l0.1,0.8v0.5v3v1.6v0.5v1.7v0.5v1.6v0.5l-0.1,1.6v2.6L36.5,131.7z"/>
	<path class="st5" d="M57.6,135.1v0.5v0.3l-0.1,0.4l-0.2,0.2l-0.2,0.1l-0.3,0.1h-0.2h-0.4l-3.4-0.2h-2.3l-2.7,0.2l-1.8-0.1h-2.3
		l-1.4,0.1h-0.5h-0.4l-0.3-0.1l-0.2-0.1l-0.2-0.2l-0.1-0.4v-0.5l0.2-1.2v-0.5l-0.1-1.6v-0.5l0.1-1.6v-0.5l0.1-3.7v-0.5l-0.1-3.7
		v-0.5v-1.6v-2.6l-0.1-0.9v-0.5v-0.3l0.1-0.4l0.1-0.2l0.2-0.1l0.3-0.1h0.2h0.5l1.5,0.1h0.5h2.2h0.3l0.2,0.1l0.2,0.2v2.6l0.1,1.8v0.5
		l-0.1,1.8v0.5l0.1,1.8v0.5l0.1,1.8v0.5l-0.2,4v0.3v0.2l0.1,0.2l0.2,0.1l0.4,0.1l1,0.1l0.9-0.1h0.5l4.4-0.1H55l1-0.1h0.5H57l0.4,0.1
		l0.2,0.2l0.1,0.2v0.3v1.7v0.5L57.6,135.1z"/>
	<path class="st5" d="M67.2,131.7v0.5l-0.1,1.6v0.5v1.7v0.3l-0.1,0.2l-0.2,0.1h-0.4h-1.6h-1.9l-1.5-0.1l-0.2-0.1l-0.1-0.1V136
		l-0.1-0.8v-0.5v-0.5v-0.5l-0.1-1.6v-0.5L61,130v-0.5l-0.1-1.7v-0.5v-1.6v-2.6v-1.7V121v-1.6v-2.6l-0.1-1.7l0.1-0.3l0.2-0.1h0.3h0.2
		h0.5h0.7h0.5l1.4-0.1h1.9l0.3,0.1l0.1,0.2v0.3l0.1,0.8v0.5v3v1.6v0.5v1.7v0.5v1.6v0.5l-0.1,1.6v2.6L67.2,131.7z"/>
	<path class="st5" d="M103.4,129.9v0.5l-0.1,0.8l-0.1,0.5l-0.2,0.6l-0.2,0.4l-0.3,0.6l-0.3,0.4l-0.5,0.5l-0.3,0.3l-0.8,0.5l-0.4,0.3
		l-0.4,0.2l-0.5,0.2l-0.5,0.2l-0.5,0.2l-1.4,0.3l-0.7,0.1h-0.5l-0.7,0.1h-0.5l-1.7,0.1h-2.6l-1.7-0.1H88h-2.1h-1.2l-0.5-0.1
		l-0.4-0.1l-0.2-0.1l-0.2-0.2l-0.1-0.3v-0.5v-0.4v-0.5v-0.2v-0.5l0.1-1.6v-0.5v-0.8v-0.5V130v-0.5v-0.8v-1.3l0.1-1.6v-0.5l-0.1-1.6
		v-0.5v-1.6v-0.5l0.1-1.6V119l-0.1-1.6v-0.5l-0.1-0.9v-0.7l0.1-0.4l0.3-0.2l0.4-0.1h0.5h1.6l1.7-0.1l2.6,0.2l1.6-0.1h0.5h1.7h0.5
		l1.8,0.1l0.5,0.1l0.5,0.1l0.5,0.1l0.7,0.2l0.5,0.2l0.6,0.3l0.4,0.3l0.5,0.4l0.4,0.4l0.3,0.4l0.2,0.4l0.3,0.6l0.2,0.4l0.2,0.5
		l0.1,0.5l0.1,0.8v0.5v0.5l-0.1,0.5l-0.2,0.7l-0.2,0.5l-0.3,0.5l-0.3,0.4l-0.7,0.7l-0.1,0.2l0.1,0.2l0.3,0.3l0.4,0.3l0.4,0.4
		l0.2,0.2l0.3,0.4l0.3,0.5l0.2,0.5l0.1,0.3l0.2,0.5l0.1,0.5l0.1,0.5L103.4,129.9z M89.6,121.8v0.5l0.1,0.3l0.1,0.2l0.2,0.1h0.4h0.7
		l1-0.1h0.5h0.7l1,0.1H95l0.4-0.1l0.4-0.2l0.3-0.2l0.2-0.3l0.2-0.3l0.1-0.4v-0.5l-0.1-0.4l-0.3-0.4l-0.4-0.3l-0.2-0.1l-0.5-0.1h-0.2
		l-0.5-0.1h-0.3l-0.5-0.1l-0.7-0.1h-0.5l-1.5,0.1h-0.4h-0.3l-0.3,0.1l-0.2,0.1l-0.1,0.2l-0.1,0.4l-0.1,0.7v0.5L89.6,121.8z
		 M97.3,129.9v-0.4l-0.1-0.4l-0.2-0.4l-0.2-0.2l-0.4-0.4l-0.5-0.3l-0.5-0.2h-0.2h-0.4l-1.4,0.1h-0.5h-1.8h-0.5h-0.2l-0.4,0.1
		l-0.3,0.1l-0.1,0.1v0.3v0.7v0.5v0.5l-0.1,0.7v0.5l0.1,0.3l0.1,0.2l0.2,0.1h0.4h2.4l1.9-0.1l1-0.1l0.5-0.1l0.3-0.2l0.2-0.2l0.1-0.2
		l0.2-0.5l0.1-0.5L97.3,129.9z"/>
	<path class="st5" d="M127.1,125.8l0.1,1v0.5v0.7l-0.1,0.5l-0.1,0.7l-0.1,0.5l-0.1,0.7l-0.1,0.5l-0.2,0.6l-0.2,0.4l-0.3,0.6
		l-0.2,0.4l-0.4,0.6l-0.3,0.4l-0.4,0.4l-0.4,0.3l-0.6,0.5l-0.4,0.3l-0.6,0.4l-0.4,0.2l-0.6,0.3l-0.5,0.2l-0.7,0.2l-0.5,0.1l-0.7,0.1
		l-0.5,0.1l-0.9,0.1h-1.4l-0.7-0.1h-0.5l-1.7-0.2l-0.5-0.1h-0.3l-0.5-0.2l-0.2-0.1l-0.5-0.2l-0.7-0.3l-0.5-0.3l-0.5-0.3l-0.8-0.7
		l-0.3-0.3l-0.4-0.5l-0.3-0.4l-0.5-0.8l-0.3-0.4l-0.2-0.5l-0.2-0.5l-0.2-0.5l-0.1-0.4l-0.1-0.5l-0.1-0.7l-0.1-0.5l-0.1-0.5l-0.1-1
		v-0.5l0.1-1.9v-0.5l-0.1-1.9V122l0.1-1.9v-2.8l-0.1-1v-0.5v-0.5l0.1-0.5l0.2-0.3l0.4-0.1l1-0.1l1.2,0.1h0.5h1h0.5h0.7l0.4,0.1
		l0.2,0.2l0.1,0.4v0.4v0.5l-0.1,1.2v0.5l0.1,1.9v0.5v1.9v0.5l-0.1,1.9v0.5v1.9v0.5l0.1,0.8l0.1,0.5l0.2,0.7l0.2,0.5l0.3,0.7l0.3,0.4
		l0.5,0.5l0.4,0.2l0.7,0.2l0.5,0.1l0.8,0.1h0.5l0.8-0.2l0.5-0.1l0.6-0.3l0.4-0.2l0.5-0.4l0.3-0.4l0.3-0.6l0.2-0.5l0.2-0.5l0.1-0.5
		l0.1-0.9v-0.5l-0.1-1.9v-0.5l0.1-1.9v-0.5l0.1-1.9v-0.5l-0.1-1.9v-0.5l-0.1-1.3v-0.8l0.1-0.4l0.3-0.2l0.4-0.1h0.6l1.6,0.1h0.5
		l1.2-0.1h0.5h0.5l0.4,0.1l0.2,0.2v0.4v0.9v0.5v0.7v0.5l0.1,1.9v0.5l-0.1,1.9v0.5l-0.1,1.9L127.1,125.8z"/>
	<path class="st5" d="M152.5,114.9l-0.2,0.3l-2.2,3.2l-0.3,0.4l-1,1.4l-0.3,0.4l-0.9,1.5l-0.3,0.4l-0.9,1.4l-0.3,0.4l-1,1.4
		l-0.3,0.4l-1,1.4l-0.1,0.2v2.5l0.1,1.6v0.5l-0.1,1.6v0.5l0.1,1.3v0.4l-0.1,0.2l-0.1,0.1l-0.3,0.1h-2l-3.6-0.1l-0.1-0.1l-0.1-0.3
		v-3.7v-0.5l-0.1-1.6v-0.5l0.1-1.6l-0.1-0.3l-0.2-0.2l-0.8-1.5l-0.3-0.4l-1-1.4l-0.3-0.4l-0.9-1.5l-0.2-0.4l-2.1-3.2l-0.2-0.4
		l-0.9-1.4l-0.2-0.4l-0.9-1.5l-0.1-0.3v-0.2l0.2-0.1h4.1h0.5l1.8,0.1h0.3l0.1,0.1l0.9,1.5l0.2,0.4l0.9,1.4l0.2,0.4l0.8,1.4l0.3,0.4
		l0.8,1.3l0.2,0.3l0.2,0.1l0.2-0.2l0.8-1.5l0.3-0.4l0.9-1.3l0.3-0.4l0.8-1.4l0.2-0.4l0.9-1.4l0.2-0.3l0.2-0.1h0.3l1.5,0.1h0.5
		l1.8-0.1h0.5l1.7,0.1l0.4,0.1l0.2,0.1L152.5,114.9z"/>
</g>
<circle class="st5" cx="76" cy="127.5" r="2.6"/>
</svg>
