<?xml version="1.0" encoding="utf-8"?>
<!-- Generator: Adobe Illustrator 19.0.0, SVG Export Plug-In . SVG Version: 6.00 Build 0)  -->
<svg version="1.1" id="Capa_1" xmlns="http://www.w3.org/2000/svg" xmlns:xlink="http://www.w3.org/1999/xlink" x="0px" y="0px"
	 viewBox="-223 25 512 512" style="enable-background:new -223 25 512 512;" xml:space="preserve">
<style type="text/css">
	.st0{fill:#FFFFFF;}
</style>
<g>
	<g>
		<path class="st0" d="M129,25H-63c-88.4,0-160,71.6-160,160v192c0,88.4,71.6,160,160,160h192c88.4,0,160-71.6,160-160V185
			C289,96.6,217.4,25,129,25z M241,377c0,61.8-50.2,112-112,112H-63c-61.8,0-112-50.2-112-112V185c0-61.8,50.2-112,112-112h192
			c61.8,0,112,50.2,112,112V377z"/>
	</g>
</g>
<g>
	<g>
		<path class="st0" d="M33,153c-70.7,0-128,57.3-128,128s57.3,128,128,128s128-57.3,128-128S103.7,153,33,153z M33,361
			c-44.1,0-80-35.9-80-80c0-44.1,35.9-80,80-80s80,35.9,80,80C113,325.1,77.1,361,33,361z"/>
	</g>
</g>
<g>
	<g>
		<circle class="st0" cx="170.6" cy="143.4" r="17.1"/>
	</g>
</g>
</svg>
