<?xml version="1.0" encoding="utf-8"?>
<!-- Generator: Adobe Illustrator 23.0.3, SVG Export Plug-In . SVG Version: 6.00 Build 0)  -->
<svg version="1.1" id="Capa_1" xmlns="http://www.w3.org/2000/svg" xmlns:xlink="http://www.w3.org/1999/xlink" x="0px" y="0px"
	 viewBox="0 0 231 197" style="enable-background:new 0 0 231 197;" xml:space="preserve">
<style type="text/css">
	.st0{fill:url(#SVGID_1_);}
	.st1{fill:url(#SVGID_2_);}
</style>
<linearGradient id="SVGID_1_" gradientUnits="userSpaceOnUse" x1="-0.0422" y1="98.8786" x2="230.9462" y2="98.8786">
	<stop  offset="0" style="stop-color:#86CBEB"/>
	<stop  offset="1" style="stop-color:#4A80FA"/>
</linearGradient>
<rect x="-0.04" y="0.31" class="st0" width="230.99" height="197.14"/>
<linearGradient id="SVGID_2_" gradientUnits="userSpaceOnUse" x1="94.6514" y1="54.9299" x2="181.9786" y2="137.2798">
	<stop  offset="0" style="stop-color:#86CBEB"/>
	<stop  offset="1" style="stop-color:#4A80FA"/>
</linearGradient>
<path class="st1" d="M205.86,52.24c0.02-25.55-20.81-46.54-46.37-46.71c-19.96-0.13-37.04,12.25-43.85,29.77
	c-1.64,4.21-5.79,6.86-10.31,6.62c-13.37-0.7-27.06,2.88-38.87,11.13c-27.3,19.07-34.75,56.59-16.74,84.6
	c10.68,16.61,27.77,26.36,45.8,28.28c6.57,0.7,12.48,4.5,15.69,10.28c5.32,9.55,15.52,16.01,27.23,16.01
	c16.83-0.01,30.75-13.64,31.1-30.46c0.15-7.08-2.07-13.63-5.92-18.92c-3.92-5.39-4.75-12.38-2.6-18.69
	c1.91-5.61,3.02-11.48,3.28-17.4c0.2-4.51,3.2-8.4,7.55-9.63C191.46,91.62,205.85,73.61,205.86,52.24z"/>
</svg>
