<?xml version="1.0" encoding="utf-8"?>
<!-- Generator: Adobe Illustrator 23.0.3, SVG Export Plug-In . SVG Version: 6.00 Build 0)  -->
<svg version="1.1" id="Capa_1" xmlns="http://www.w3.org/2000/svg" xmlns:xlink="http://www.w3.org/1999/xlink" x="0px" y="0px"
	 viewBox="0 0 362 74" style="enable-background:new 0 0 362 74;" xml:space="preserve">
<style type="text/css">
	.st0{fill:#FFFFFF;}
	.st1{fill:#80E28F;}
</style>
<path class="st0" d="M5.31,4.22h21.93c7.43,0,20.68,0,29.26,12.35c4.56,6.26,6.09,13.34,6.09,20.59c0,18.08-8.95,33.29-34.11,33.29
	H5.31V4.22z M22.22,55.6h7.25c12.62,0,16.2-8.77,16.2-18.17c0-3.76-0.81-8.5-3.23-12.26c-1.97-2.95-5.37-6.09-12.89-6.09h-7.34V55.6
	z"/>
<polygon class="st0" points="72.61,4.22 109.39,4.22 109.39,19.08 88.8,19.08 88.8,29.37 88.8,44.23 88.8,55.6 109.39,55.6 
	109.39,70.46 72.61,70.46 "/>
<path class="st0" d="M119.86,4.22h21.66c12.26,0,16.82,1.88,20.41,4.83c5.19,4.3,7.79,10.83,7.79,17.54
	c0,6.71-2.77,13.78-6.99,17.36c-4.56,3.85-9.04,5.73-19.32,5.73h-7.35v20.76h-16.2V4.22z M136.06,34.83h6.9
	c3.22,0,10.56,0,10.56-7.97c0-7.79-7.52-7.79-11.19-7.79h-6.27V34.83z"/>
<path class="st0" d="M239.25,4.22h20.94c11.64,0,16.11,1.43,20.41,4.74c5.46,4.3,8.14,11.28,8.14,18.08
	c0,7.61-3.94,18.8-16.47,20.86l17.99,22.55h-19.33l-15.31-21.39h-0.17v21.39h-16.2V4.22z M255.45,37.52h6
	c9.93,0,11.1-6.26,11.1-9.48c0-6-4.38-8.95-10.92-8.95h-6.17V37.52z"/>
<polygon class="st0" points="325.65,29.14 340.38,70.46 358.73,70.46 332.42,4.22 319.08,4.22 292.5,70.46 310.67,70.46 "/>
<rect x="94.53" y="30.27" class="st1" width="14.14" height="14.13"/>
<path class="st0" d="M193.52,4.22v40.01c0,4.47,0.27,12.62,8.59,12.62c8.42,0,8.42-7.34,8.42-12.62V27.22h16.91v17.01
	c0,11.1-2.42,16.02-6.62,20.31c-4.3,4.39-10.29,7.16-18.53,7.16c-4.83,0-13.6-1.17-19.07-7.07c-5.46-5.99-6.63-10.65-6.63-20.4V4.22
	H193.52z"/>
<rect x="211.65" y="4.57" class="st1" width="14.14" height="14.13"/>
</svg>
